<svg width="52" height="33" viewBox="0 0 52 33" fill="none" xmlns="http://www.w3.org/2000/svg">
<path d="M26.3578 4.05127C24.9464 9.8474 25.0368 9.53758 23.7566 14.8389C23.7286 15.3273 23.3242 15.7124 22.8315 15.7124C22.7777 15.7124 22.7239 15.7081 22.6723 15.6995H22.6787H21.2265C21.1834 15.7081 21.1318 15.7124 21.0823 15.7124C20.6455 15.7124 20.2862 15.3875 20.2303 14.968V14.9637C18.9889 10.992 17.3258 5.47556 16.207 1.78574C15.7939 0.423845 16.065 0.456117 17.1451 0.484086C17.5194 0.494844 17.8809 0.484086 18.2531 0.484086C18.2789 0.481935 18.309 0.479784 18.3413 0.479784C18.763 0.479784 19.1115 0.79175 19.1696 1.19623V1.20054C19.5332 2.50219 19.7742 3.50048 21.8504 11.6998C21.8891 11.8612 21.9408 12.014 21.9924 12.1624H22.1021C22.1516 11.9602 22.2118 11.7708 22.2635 11.5664C23.0495 8.24884 23.8326 4.92836 24.6129 1.60502C24.856 0.572298 25.2885 0.47548 26.3341 0.47548H27.1C27.7885 0.486238 28.008 0.626086 28.1801 1.31241C28.7847 3.6726 30.551 11.5751 30.8716 12.4443C31.388 10.5983 30.6909 13.2403 33.746 1.45441C33.9569 0.638995 34.1591 0.477632 34.9874 0.477632H36.259C36.8033 0.48839 36.9646 0.658358 36.8334 1.19408C36.5903 2.15365 36.5408 2.19237 32.6703 14.5936C32.3561 15.5919 32.2464 15.6823 31.1986 15.6823H30.1293C29.3935 15.6823 29.202 15.551 29.0213 14.8346C28.5867 13.2016 26.6719 5.18511 26.3578 4.05557V4.05127ZM12.6656 15.2627C12.8119 15.5618 13.1132 15.764 13.4617 15.764C13.707 15.764 13.9264 15.665 14.0878 15.5037L14.7225 15.0798C15.411 14.6259 15.4583 14.4451 15.0861 13.7179C14.6859 12.9563 14.4492 12.0548 14.4492 11.0974C14.4492 11.0651 14.4492 11.0329 14.4492 11.0006V11.0049C14.4492 10.6908 14.5095 5.3895 14.3589 4.27072C14.2255 2.39892 12.9281 0.86275 11.194 0.37436L11.1639 0.367906C10.4044 0.157059 9.53307 0.0365748 8.63159 0.0365748C8.3605 0.0365748 8.08942 0.0473331 7.82478 0.068848L7.85921 0.0666967C6.2757 0.12909 4.80408 0.548632 3.50242 1.24357L3.55621 1.21775C3.36043 1.32317 3.21412 1.49744 3.14528 1.70614L3.14312 1.71259C3.08719 1.96647 3.05491 2.25907 3.05491 2.55813C3.05491 2.68937 3.06137 2.82061 3.07213 2.9497L3.06997 2.93249C3.13022 3.52845 3.33246 3.63818 3.89615 3.44885C4.41251 3.27673 4.9052 3.05728 5.41941 2.90452C6.16167 2.62913 7.01797 2.46992 7.91299 2.46992C8.60793 2.46992 9.27919 2.56674 9.91603 2.74531L9.8644 2.7324C10.5464 2.93679 11.0778 3.451 11.3016 4.10721L11.3059 4.12227C11.4716 4.67735 11.5684 5.3142 11.5684 5.97471C11.5684 6.17695 11.5598 6.37919 11.5426 6.57713L11.5447 6.55131C11.5447 7.10639 11.534 7.10639 10.9896 7.00527C10.0645 6.77506 9.0038 6.64167 7.91084 6.64167C7.50851 6.64167 7.10833 6.65888 6.71461 6.69546L6.76624 6.69115C5.20426 6.80518 3.84021 7.56466 2.92152 8.6985L2.91291 8.70926C2.35353 9.4838 2.01789 10.4541 2.01789 11.5019C2.01789 11.9257 2.07168 12.3345 2.17495 12.7261L2.1685 12.6917C2.39225 14.159 3.43358 15.3337 4.80408 15.7511L4.8299 15.7576C5.43232 15.9727 6.12725 16.0975 6.8523 16.0975C8.28735 16.0975 9.61052 15.6091 10.6605 14.7894L10.6475 14.8001C11.0305 14.5183 11.3748 14.1762 11.7663 13.8406C12.0804 14.344 12.3515 14.8174 12.6635 15.252L12.6656 15.2627ZM11.1166 9.05134H11.1273C11.3661 9.05134 11.5598 9.24498 11.5598 9.4838C11.5598 9.51392 11.5576 9.54189 11.5512 9.57201V9.56986C11.5297 9.95282 11.5619 10.3358 11.5211 10.7188C11.4135 11.844 10.7099 12.782 9.73531 13.2231L9.71595 13.2317C9.08341 13.563 8.33684 13.7588 7.54294 13.7588C7.38157 13.7588 7.22236 13.7502 7.0653 13.7352L7.08467 13.7373C5.94652 13.6706 5.04935 12.7326 5.04935 11.5837C5.04935 11.4072 5.07087 11.2351 5.11174 11.0694L5.10959 11.0845C5.16553 9.90549 6.09928 8.96098 7.26969 8.88783H7.27615C7.72796 8.81468 8.24863 8.7738 8.77789 8.7738C9.61267 8.7738 10.4259 8.87707 11.2005 9.07071L11.1316 9.05565L11.1166 9.05134ZM46.2849 15.6156C48.0599 15.0196 49.3142 13.3715 49.3142 11.4309C49.3142 11.1275 49.2841 10.8306 49.226 10.5445L49.2303 10.5725C49.0001 9.16753 48.0169 8.04014 46.7152 7.60554L46.6894 7.59693C44.7272 6.98161 43.1201 6.35982 41.5624 5.64983L41.8399 5.76386C41.3903 5.53795 41.0848 5.08614 41.074 4.56117C41.0611 4.48157 41.0546 4.38905 41.0546 4.29654C41.0546 3.39506 41.7388 2.65495 42.6166 2.56458H42.6231C43.077 2.45701 43.5977 2.39677 44.1334 2.39677C44.6003 2.39677 45.0586 2.4441 45.4996 2.53231L45.4566 2.52586C46.1924 2.66786 46.8981 2.9497 47.6146 3.16055C47.8964 3.25091 48.2105 3.37139 48.402 2.99919C48.501 2.79049 48.5591 2.54522 48.5591 2.28919C48.5591 1.64805 48.2019 1.09081 47.6748 0.806811L47.6662 0.802508C46.6034 0.294755 45.3555 0 44.0388 0C42.864 0 41.7453 0.236665 40.7255 0.662661L40.7814 0.641146C39.2216 1.26078 38.1394 2.75822 38.1394 4.50738C38.1394 6.1834 39.1334 7.62921 40.5641 8.28326L40.5899 8.29402C41.3666 8.66838 42.2121 8.88998 43.0297 9.19119C43.8473 9.4924 44.6627 9.7764 45.4609 10.1077C46.0117 10.4132 46.3796 10.992 46.3796 11.6568C46.3796 12.2721 46.0655 12.8122 45.5878 13.1284L45.5814 13.1327C42.7887 14.6818 39.0408 12.8896 38.6041 12.7498C38.2728 12.64 38.0705 12.7713 37.9694 13.1241C37.8876 13.3156 37.8403 13.5394 37.8403 13.7739C37.8403 14.5678 38.3889 15.2347 39.1291 15.4112L39.1398 15.4133C40.2823 15.8716 41.6054 16.1362 42.991 16.1362C44.1657 16.1362 45.2974 15.9447 46.3538 15.5919L46.2785 15.6134L46.2849 15.6156ZM29.8604 32.0207C35.2348 31.4441 40.1144 29.7573 44.411 27.1928L44.2475 27.2831C45.0543 26.8098 45.8094 26.2504 46.5754 25.6996C47.3112 25.1833 46.8981 23.845 45.4351 24.469C40.392 26.6829 34.5356 28.0985 28.3845 28.3868L28.2748 28.3911C27.6293 28.4234 26.8741 28.4406 26.1147 28.4406C23.6361 28.4406 21.2006 28.2513 18.8232 27.8855L19.0879 27.92C12.3817 26.9539 6.3424 24.7831 0.952902 21.6225L1.18741 21.7495C0.998083 21.6225 0.780782 21.5193 0.54842 21.4504L0.531208 21.4461C0.0363641 21.3364 -0.245482 21.9194 0.288089 22.4229C6.89103 28.5288 15.7552 32.2724 25.495 32.2724H25.5251H25.523C26.9753 32.1907 28.4275 32.1821 29.8583 32.0207H29.8604ZM47.4747 22.7263C48.9678 22.808 49.4304 23.3222 49.0582 24.7616C48.6752 26.2547 48.1202 27.707 47.6576 29.1786C47.5672 29.4712 47.2337 29.8133 47.5758 30.0672C47.9502 30.3296 48.232 29.966 48.4838 29.7358C49.4627 28.8042 50.2329 27.6661 50.7299 26.3903L50.7514 26.3279C51.3065 25.1144 51.6292 23.6944 51.6292 22.1991C51.6292 22.1647 51.6292 22.1324 51.6292 22.098V22.1023C51.6077 21.4784 51.4485 21.2138 50.8418 21.0438C50.3599 20.8953 49.794 20.7813 49.2131 20.7254L49.1787 20.7232C48.785 20.6737 48.331 20.6458 47.8684 20.6458C46.0698 20.6458 44.3701 21.0696 42.8619 21.8205L42.9264 21.7904C42.593 21.9711 42.3047 22.169 42.04 22.3928L42.0486 22.3863C41.9389 22.4767 41.7259 22.9199 42.2918 23.0016C42.3434 23.006 42.4058 23.0081 42.466 23.0081C42.6145 23.0081 42.7608 22.9952 42.9006 22.9694L42.8856 22.9715C44.0173 22.8102 45.3254 22.7177 46.6528 22.7177C46.9411 22.7177 47.2273 22.722 47.5134 22.7306H47.4726L47.4747 22.7263Z" fill="url(#paint0_linear_425_1105)"/>
<defs>
<linearGradient id="paint0_linear_425_1105" x1="0" y1="0" x2="39.9278" y2="18.3133" gradientUnits="userSpaceOnUse">
<stop stop-color="white"/>
<stop offset="0.602787" stop-color="#989898"/>
<stop offset="1" stop-color="white"/>
</linearGradient>
</defs>
</svg>
