<svg width="118" height="33" viewBox="0 0 118 33" fill="none" xmlns="http://www.w3.org/2000/svg">
<path d="M17.9746 2.58556C16.9247 -0.021752 20.0309 -0.466125 21.0654 0.407822C27.5703 5.98811 33.009 9.42184 35.9912 12.8561C39.7765 17.1803 38.1074 25.9554 33.2715 29.4215C24.1706 35.9243 12.0579 30.726 11.625 19.6451C10.7749 20.535 4.56287 25.7495 3.1875 26.5289C-0.442978 27.3555 -0.52038 23.7948 0.731445 22.5709C3.9605 19.4072 11.3453 14.5421 14.6523 11.3307C12.3506 11.3307 9.10634 11.2989 7.1748 11.3307C5.08893 11.3617 4.64085 7.48265 7.46875 7.26036H23.1826C20.7412 5.43243 17.9748 2.5864 17.9746 2.58556ZM24.7744 11.1559C20.2626 11.1559 16.6153 14.5577 16.6152 18.692C16.6152 22.8567 20.2625 26.2281 24.7744 26.2281C29.2553 26.2279 32.9326 22.8566 32.9326 18.692C32.9325 14.5579 29.2552 11.1561 24.7744 11.1559ZM64.2793 13.8805C68.9619 13.8702 70.3691 16.5407 70.3984 20.36C67.5244 20.36 64.3579 20.3766 61.4678 20.3766C61.5305 21.3973 61.7766 22.2916 63.0273 22.7701C63.1235 22.8069 63.2256 22.8409 63.334 22.8727C63.5509 22.9362 63.7931 22.9891 64.0635 23.0309C64.2952 23.0667 64.509 23.0739 64.709 23.0543C64.8421 23.0413 64.9689 23.0164 65.0908 22.9801C65.7623 22.78 66.2814 22.2341 66.8438 21.4254C67.6173 21.9349 68.4985 22.4906 69.2861 23.0152C68.5917 24.4463 66.5364 25.4796 63.6152 25.3678C62.8753 25.2566 62.1994 25.1171 61.5918 24.9264C61.4182 24.8719 61.2503 24.8129 61.0879 24.7496C60.7632 24.6231 60.4614 24.4777 60.1826 24.3102C59.9038 24.1426 59.6484 23.9527 59.417 23.7359C59.0119 23.3565 58.6803 22.8958 58.4268 22.3316C58.3544 22.1706 58.2881 22.0012 58.2285 21.8229C58.1987 21.7337 58.1711 21.6421 58.1445 21.5484C58.0913 21.3608 58.0441 21.1641 58.0039 20.9576C57.9638 20.7513 57.9302 20.5353 57.9033 20.3092C57.8899 20.1962 57.8783 20.0806 57.8682 19.9625C57.8633 19.721 57.8662 19.4862 57.8779 19.2584C57.8896 19.0308 57.9094 18.81 57.9375 18.5963C57.9796 18.2756 58.0403 17.9705 58.1191 17.6813C58.3556 16.8136 58.7568 16.0889 59.3184 15.5133C59.568 15.2574 59.8493 15.031 60.1621 14.8346C60.3186 14.7362 60.483 14.6454 60.6553 14.5621C60.8272 14.479 61.0069 14.4035 61.1943 14.3356C61.851 14.0975 62.603 13.9533 63.4482 13.9049C63.569 13.898 63.6918 13.8932 63.8164 13.8902C63.9742 13.8843 64.1284 13.8808 64.2793 13.8805ZM104.123 13.8873C108.452 14.0434 109.77 16.6641 109.799 20.36C106.925 20.36 103.758 20.3766 100.868 20.3766C100.945 21.6328 101.3 22.6968 103.464 23.0309C103.532 23.0414 103.599 23.0487 103.664 23.0543C103.82 23.0678 103.968 23.0681 104.108 23.0543C104.575 23.0088 104.965 22.8172 105.33 22.5006C105.434 22.4102 105.537 22.31 105.638 22.1998C105.688 22.1446 105.739 22.0869 105.789 22.027C105.94 21.8471 106.09 21.646 106.244 21.4254C106.986 21.9659 107.93 22.4588 108.688 23.0152C107.992 24.4463 105.937 25.4796 103.016 25.3678C101.853 25.1931 100.848 24.9472 100.018 24.5455C99.8666 24.4725 99.7215 24.394 99.582 24.3102C98.8155 23.8492 98.2253 23.2177 97.8271 22.3316C97.6824 22.0095 97.563 21.6538 97.4697 21.2604C97.4464 21.1618 97.4244 21.061 97.4043 20.9576C97.3642 20.7513 97.3306 20.5353 97.3037 20.3092C97.2903 20.1963 97.2786 20.0806 97.2686 19.9625C97.2662 19.842 97.2659 19.7232 97.2676 19.6061C97.2744 19.1367 97.3142 18.6948 97.3867 18.2809C97.4411 17.9704 97.5144 17.6758 97.6055 17.3971C97.7267 17.0259 97.8798 16.6828 98.0654 16.3688C98.2512 16.0545 98.4692 15.7692 98.7188 15.5133C98.9683 15.2574 99.2497 15.031 99.5625 14.8346C99.719 14.7362 99.8834 14.6454 100.056 14.5621C100.313 14.4375 100.589 14.3303 100.882 14.2399C101.077 14.1795 101.28 14.1266 101.491 14.0816C101.702 14.0367 101.92 13.9988 102.146 13.9693C102.26 13.9546 102.375 13.9421 102.492 13.9313C102.726 13.9096 102.968 13.8962 103.217 13.8902C103.533 13.8783 103.835 13.8769 104.123 13.8873ZM40.1299 10.4078L43.4365 11.3297V15.1451C43.5712 15.0575 43.7088 14.9752 43.8486 14.8981C43.9183 14.8596 43.9887 14.8226 44.0596 14.7867C44.2726 14.679 44.4907 14.5833 44.7129 14.4996C45.2314 14.3044 45.7723 14.1754 46.3232 14.1168C46.5595 14.0917 46.7981 14.0797 47.0371 14.0807L47.3496 14.0875C50.5584 14.2378 53.1247 16.6881 53.125 19.6598C53.125 22.5364 50.7215 24.9242 47.6582 25.2115C47.4539 25.2307 47.2467 25.2408 47.0371 25.2408L46.7861 25.2359C46.1212 25.2123 45.4848 25.0948 44.8906 24.8951C44.5934 24.7953 44.3066 24.6752 44.0322 24.5358C43.8951 24.4661 43.7607 24.3921 43.6299 24.3131L43.4365 24.191V25.1295H40.1299V10.4078ZM96.6348 25.1295H93.2363L93.25 24.2076C93.1875 24.2481 93.1247 24.2884 93.0605 24.3268C92.0919 24.9056 90.9281 25.2408 89.6973 25.2408C89.1733 25.2408 88.6644 25.1793 88.1787 25.0641C87.9845 25.018 87.7937 24.9638 87.6074 24.901C87.4213 24.8382 87.2397 24.7666 87.0625 24.6881C86.7076 24.5308 86.3714 24.3434 86.0586 24.1285C85.8242 23.9675 85.6032 23.7908 85.3965 23.6012C85.1896 23.4115 84.9969 23.2088 84.8213 22.9938C84.7626 22.9219 84.7063 22.8484 84.6514 22.774C84.5419 22.6257 84.4405 22.472 84.3467 22.3141C83.8772 21.5235 83.6094 20.6187 83.6094 19.6598C83.6095 18.7012 83.8771 17.7968 84.3467 17.0065C84.4405 16.8485 84.5419 16.6948 84.6514 16.5465C84.7061 16.4723 84.7628 16.3994 84.8213 16.3277C84.9969 16.1126 85.1896 15.91 85.3965 15.7203C85.6032 15.5307 85.8242 15.354 86.0586 15.193C86.3714 14.9781 86.7076 14.7907 87.0625 14.6334C87.2397 14.5549 87.4213 14.4833 87.6074 14.4205C87.7938 14.3576 87.9844 14.3026 88.1787 14.2565C88.5672 14.1643 88.9707 14.1069 89.3848 14.0875C89.4883 14.0827 89.5925 14.0807 89.6973 14.0807L89.9355 14.0846C91.0448 14.124 92.1266 14.4499 93.0811 15.0328L93.2832 15.1617L93.2969 11.3297L96.6348 10.4078V25.1295ZM57.0498 11.3297C57.0651 11.3297 57.0654 11.3305 57.0654 11.3463V25.1451C57.0654 25.1531 57.0654 25.1578 57.0635 25.1598C57.0616 25.1618 57.0574 25.1617 57.0498 25.1617H53.8516L53.8379 25.1598C53.8359 25.1578 53.8359 25.1532 53.8359 25.1451V11.3463C53.8359 11.3304 53.8361 11.3297 53.8516 11.3297H57.0498ZM117.912 17.1334C116.103 17.0534 114.884 17.3709 114.158 18.8502V25.0983C114.158 25.1297 114.126 25.1295 114.064 25.1295H111.005L110.935 25.1256C110.919 25.1215 110.912 25.1134 110.912 25.0973V14.9225C110.912 14.9145 110.914 14.9084 110.918 14.9039C110.922 14.8996 110.928 14.8971 110.936 14.8951L111.005 14.8912H114.065C114.127 14.8912 114.158 14.8908 114.158 14.9225V15.6852C114.723 15.0505 115.166 14.7125 115.821 14.524C115.967 14.4821 116.123 14.4473 116.294 14.4186C116.464 14.3899 116.649 14.367 116.852 14.3483C117.155 14.3201 117.5 14.3016 117.896 14.2867L117.912 17.1334ZM79.0674 13.9537C79.7789 13.9855 82.2193 14.2722 82.7734 16.815C83.061 18.0756 83.0399 20.6165 82.9824 22.5797C82.9587 23.39 82.9292 24.1018 82.9121 24.5846C82.9037 24.8205 82.8984 25.0017 82.8984 25.1129H79.6846V19.1676C79.6846 18.8098 79.661 18.4617 79.6016 18.1432C79.5867 18.0637 79.5693 17.9862 79.5498 17.9108C79.4324 17.457 79.2267 17.0801 78.8877 16.8453C78.7745 16.7669 78.6465 16.704 78.502 16.6598C78.2858 16.5936 78.0327 16.5685 77.7373 16.5924C75.5127 16.5924 74.6479 17.9282 74.5244 18.818C74.5244 20.9166 74.5242 23.143 74.5088 25.1139C74.4951 25.114 73.372 25.1229 72.2988 25.1207C71.9391 25.12 71.5851 25.1178 71.2803 25.1139V14.9234C71.5158 14.9155 71.7745 14.9113 72.0439 14.9098C72.852 14.9053 73.7558 14.9234 74.416 14.9234C74.4333 14.9234 74.4479 14.9346 74.46 14.9547C74.5444 15.0959 74.5098 15.6683 74.5098 15.7662C74.5098 15.7623 74.5103 15.7601 74.5117 15.7594C74.5152 15.7572 74.5222 15.7631 74.5244 15.7652C75.8576 14.6322 76.9192 14.0315 78.7002 13.9606C78.8191 13.9558 78.9417 13.9537 79.0674 13.9537ZM90.0342 16.6598C88.4076 16.7414 87.1028 18.0761 87.1025 19.7399C87.1025 21.3724 88.4074 22.7374 90.0342 22.8209L90.1924 22.8248C90.2464 22.8248 90.3002 22.8236 90.3535 22.8209C90.4602 22.8155 90.5654 22.8044 90.6689 22.7887C90.8245 22.765 90.9761 22.7297 91.123 22.6842C92.1507 22.3657 92.9465 21.5349 93.2148 20.5055C93.2532 20.3582 93.281 20.2069 93.2969 20.0524C93.3074 19.9496 93.3135 19.8451 93.3135 19.7399C93.3135 19.6326 93.3075 19.5267 93.2969 19.4225C93.281 19.2659 93.2532 19.1129 93.2148 18.9645C92.9465 17.9258 92.1507 17.1065 91.123 16.7936C90.9761 16.7488 90.8245 16.7142 90.6689 16.691C90.5654 16.6756 90.4602 16.665 90.3535 16.6598L90.1924 16.6559C90.1395 16.6559 90.0865 16.6572 90.0342 16.6598ZM46.542 16.6559C44.843 16.6561 43.4524 18.0227 43.4521 19.7399C43.4521 21.4255 44.8421 22.8236 46.542 22.8238C46.8663 22.8238 47.1791 22.7752 47.4727 22.6842C47.5705 22.6538 47.6664 22.6191 47.7598 22.5797C47.8533 22.5403 47.9446 22.4968 48.0332 22.4488C48.21 22.3532 48.3764 22.2412 48.5303 22.1149C48.6842 21.9885 48.8253 21.8476 48.9521 21.6949C49.0791 21.5422 49.1913 21.3774 49.2871 21.2027C49.4069 20.9844 49.5005 20.7506 49.5645 20.5055C49.6029 20.3582 49.6306 20.2069 49.6465 20.0524C49.6571 19.9496 49.6631 19.8451 49.6631 19.7399C49.6631 19.6326 49.6571 19.5267 49.6465 19.4225C49.6306 19.2659 49.6028 19.1129 49.5645 18.9645C49.5006 18.7173 49.4068 18.4827 49.2871 18.2643C49.1912 18.0892 49.0792 17.9242 48.9521 17.7721C48.8254 17.6203 48.684 17.4811 48.5303 17.3561C48.3763 17.2308 48.2101 17.1194 48.0332 17.025C47.591 16.789 47.0827 16.6559 46.542 16.6559ZM64.1709 15.9566C62.5201 16.0759 61.8748 16.922 61.6475 17.9703L61.6074 18.1822H66.7363C66.7363 18.1047 66.7332 18.0281 66.7256 17.9527C66.7103 17.802 66.6794 17.6561 66.6348 17.5162C66.5902 17.3765 66.5313 17.2429 66.459 17.1168C66.3866 16.9906 66.3007 16.872 66.2021 16.7623C66.005 16.543 65.7574 16.3594 65.4648 16.2233C65.0992 16.053 64.6636 15.9566 64.1709 15.9566ZM103.573 15.9566C101.811 16.0838 101.194 17.0378 101.008 18.1822H106.138C106.138 18.1047 106.134 18.0281 106.126 17.9527C106.118 17.8776 106.107 17.8037 106.092 17.7311C105.926 16.93 105.317 16.2927 104.395 16.0563C104.143 15.9919 103.868 15.9566 103.573 15.9566Z" fill="url(#paint0_linear_425_1087)"/>
<defs>
<linearGradient id="paint0_linear_425_1087" x1="0" y1="-0.00038147" x2="52.6263" y2="55.1258" gradientUnits="userSpaceOnUse">
<stop stop-color="white"/>
<stop offset="0.602787" stop-color="#989898"/>
<stop offset="1" stop-color="white"/>
</linearGradient>
</defs>
</svg>
