<svg width="119" height="33" viewBox="0 0 119 33" fill="none" xmlns="http://www.w3.org/2000/svg">
<g clip-path="url(#clip0_425_1093)">
<path d="M28.6875 0.0272217V24.8952L31.9244 24.9074V13.0707H39.745V9.93784H31.9244V3.1601H42.1047V0.0272217H28.6875ZM47.9485 5.07396C49.1222 5.07396 50.0611 4.13531 50.0611 2.98943C50.0611 1.84356 49.1098 0.904914 47.9485 0.904914C46.7748 0.904914 45.8358 1.84356 45.8358 2.98943C45.8358 4.13531 46.7871 5.07396 47.9485 5.07396ZM46.3053 8.20683V24.8952H49.5422V8.20683H46.3053Z" fill="url(#paint0_linear_425_1093)"/>
<path fill-rule="evenodd" clip-rule="evenodd" d="M61.5635 7.71877C57.2517 7.71877 54.2495 11.3149 54.2495 15.5814C54.2495 19.848 57.2517 23.4441 61.5635 23.4441C63.5402 23.4441 65.1587 22.6883 66.3448 21.4693V23.6757C66.3448 26.4429 64.1456 28.7468 61.267 28.7468C60.2292 28.7468 59.2037 28.3567 58.3883 27.796L56.7575 30.5753C58.0548 31.4043 59.5991 31.8797 61.2546 31.8797C65.8506 31.8797 69.5693 28.2105 69.5693 23.6757V8.20637H66.3448V9.69357C65.1587 8.47456 63.5402 7.71877 61.5635 7.71877ZM57.4988 15.5814C57.4988 12.9362 59.5497 10.8516 61.9218 10.8516C64.2939 10.8516 66.3448 12.9362 66.3448 15.5814C66.3448 18.2267 64.2939 20.3112 61.9218 20.3112C59.5497 20.3112 57.4988 18.2267 57.4988 15.5814Z" fill="url(#paint1_linear_425_1093)"/>
<path d="M81.2692 10.8516C79.3542 10.8516 77.7975 12.4607 77.7975 14.3502V24.8947H74.5605V8.20637H77.7975V9.73014C78.7488 8.52332 80.1449 7.71877 81.9734 7.71877C84.2466 7.71877 85.9887 8.82807 87.0017 10.5347C88.126 8.88902 89.9545 7.71877 92.166 7.71877C95.8601 7.71877 98.158 10.6566 98.1704 14.2893V24.8947H94.9335V14.338C94.9335 12.4486 93.3768 10.8395 91.4618 10.8395C89.5468 10.8395 87.9901 12.4486 87.9901 14.338V24.8947H84.7532V14.338C84.7408 12.4486 83.1841 10.8516 81.2692 10.8516Z" fill="url(#paint2_linear_425_1093)"/>
<path fill-rule="evenodd" clip-rule="evenodd" d="M115.442 10.0958C113.997 8.62084 112.02 7.71877 109.734 7.71877C104.916 7.71877 101.481 11.7537 101.481 16.5566C101.481 21.3596 104.904 25.3945 109.734 25.3945C112.02 25.3945 113.997 24.4803 115.442 23.0174V24.8947H118.679V8.20637H115.442V10.0958ZM104.731 16.5566C104.731 13.375 107.202 10.8516 110.093 10.8516C112.971 10.8516 115.455 13.3628 115.455 16.5566C115.455 19.7383 112.984 22.2616 110.093 22.2616C107.202 22.2495 104.731 19.7383 104.731 16.5566Z" fill="url(#paint3_linear_425_1093)"/>
<path d="M16.333 0.0146484C19.3475 0.014681 21.7811 2.42852 21.7812 5.39062C21.7812 8.36501 19.3352 10.7666 16.333 10.7666H10.8965V15.8008C11.0752 12.997 13.4353 10.7666 16.333 10.7666C19.3351 10.7666 21.7812 13.1682 21.7812 16.1426C21.7812 19.1048 19.3475 21.5185 16.333 21.5186C13.4458 21.5186 11.0741 19.2862 10.8965 16.4805V26.8818C10.8963 29.8439 8.46269 32.2578 5.44824 32.2578C2.43388 32.2577 0.000157879 29.856 0 26.8818C0 24.0056 2.29467 21.6462 5.1875 21.5117C2.29469 21.3772 0 19.0188 0 16.1426C4.00912e-05 13.2596 2.30556 10.8967 5.20801 10.7725C2.30554 10.6482 0 8.28538 0 5.40234C0.000174555 2.42815 2.43389 0.0264647 5.44824 0.0263672H10.8848V0.0146484H16.333Z" fill="url(#paint4_linear_425_1093)"/>
</g>
<defs>
<linearGradient id="paint0_linear_425_1093" x1="28.6875" y1="0.0272217" x2="47.55" y2="4.67294" gradientUnits="userSpaceOnUse">
<stop stop-color="white"/>
<stop offset="0.602787" stop-color="#989898"/>
<stop offset="1" stop-color="white"/>
</linearGradient>
<linearGradient id="paint1_linear_425_1093" x1="54.2495" y1="7.71877" x2="68.1309" y2="10.2422" gradientUnits="userSpaceOnUse">
<stop stop-color="white"/>
<stop offset="0.602787" stop-color="#989898"/>
<stop offset="1" stop-color="white"/>
</linearGradient>
<linearGradient id="paint2_linear_425_1093" x1="74.5605" y1="7.71877" x2="93.6895" y2="15.2574" gradientUnits="userSpaceOnUse">
<stop stop-color="white"/>
<stop offset="0.602787" stop-color="#989898"/>
<stop offset="1" stop-color="white"/>
</linearGradient>
<linearGradient id="paint3_linear_425_1093" x1="101.481" y1="7.71877" x2="116.417" y2="11.885" gradientUnits="userSpaceOnUse">
<stop stop-color="white"/>
<stop offset="0.602787" stop-color="#989898"/>
<stop offset="1" stop-color="white"/>
</linearGradient>
<linearGradient id="paint4_linear_425_1093" x1="-1.10924e-08" y1="10.7668" x2="9.40582" y2="13.4998" gradientUnits="userSpaceOnUse">
<stop stop-color="white"/>
<stop offset="0.602787" stop-color="#989898"/>
<stop offset="1" stop-color="white"/>
</linearGradient>
<clipPath id="clip0_425_1093">
<rect width="118.679" height="32.2724" fill="white"/>
</clipPath>
</defs>
</svg>
