<svg width="86" height="33" viewBox="0 0 86 33" fill="none" xmlns="http://www.w3.org/2000/svg">
<path d="M34.9272 0C37.833 0 40.0552 0.879039 41.4653 2.5498C42.8258 4.12457 43.4667 6.39555 43.4312 9.27637C43.4312 9.58414 43.1746 9.84863 42.8755 9.84863H36.979C36.5944 9.84863 36.2524 9.54024 36.2524 9.14453C36.2524 7.38606 35.6539 6.50684 34.4575 6.50684C33.2611 6.50684 32.4488 7.29821 32.4487 8.61719C32.4487 10.1121 33.2607 11.4754 35.6108 13.8057C38.6875 16.7955 39.927 19.4337 39.8843 22.9512C39.7987 28.6228 36.0382 32.2725 30.355 32.2725C27.4494 32.2724 25.2277 31.4802 23.7749 29.8975C22.2794 28.3147 21.595 25.9408 21.7231 22.9072C21.7231 22.5995 21.9798 22.3351 22.2788 22.335H28.3892C28.3892 22.335 28.7311 22.423 28.8169 22.5547C28.9024 22.6866 28.9448 22.8193 28.9448 22.9512C28.8594 24.0502 29.0732 24.8416 29.5005 25.3252C29.7569 25.633 30.1418 25.7646 30.6118 25.7646C31.7227 25.7646 32.4067 24.9293 32.4067 23.5225C32.4067 22.2914 32.0641 21.1925 29.9702 18.9941C27.2781 16.3121 24.8857 13.5413 24.9712 9.18848C25.014 6.63859 25.9965 4.35232 27.7056 2.68164C29.543 0.922988 32.0216 6.64855e-05 34.9272 0ZM14.4175 0.0878906C17.0666 0.0879486 19.16 0.923122 20.6128 2.59375C22.1511 4.39643 22.9204 7.07829 22.9204 10.5957C22.9204 10.9033 22.6646 11.1667 22.3657 11.167H15.9556C15.7419 11.167 15.5278 10.9474 15.5278 10.7275C15.4851 8.30964 14.7592 7.12233 13.3921 7.12207C10.9137 7.12207 9.50305 10.5518 8.73389 12.4424C7.66565 15.0803 7.11065 17.982 7.23877 20.8838C7.2815 22.2028 7.49467 24.0943 8.73389 24.8857C9.84489 25.5891 11.3837 25.1048 12.3237 24.3574C13.2635 23.61 14.0324 22.2474 14.3315 21.0605C14.3743 20.8847 14.3743 20.752 14.3315 20.708C14.2886 20.6642 14.161 20.6202 14.0757 20.6201H12.4087C12.3994 20.6177 12.0654 20.5305 11.939 20.4004C11.8535 20.3125 11.8103 20.1368 11.853 20.0049L12.9644 14.9922C13.0072 14.7286 13.2637 14.5527 13.52 14.5088H24.4165C24.7154 14.5089 24.8861 14.8164 24.8862 15.124L24.8433 15.0361L23.7329 20.0928C23.6902 20.3566 23.3904 20.5762 23.0913 20.5762H21.7241C21.7218 20.5774 21.5528 20.6647 21.5103 20.752C20.2711 25.1046 18.5623 28.1387 16.3403 29.9414C14.4175 31.4803 12.0671 32.1836 8.94775 32.1836C6.12755 32.1836 4.2473 31.2606 2.62354 29.4141C0.486958 26.9958 -0.367759 22.9947 0.14502 18.2021C1.08513 9.18874 5.65753 0.0878906 14.4175 0.0878906ZM74.7954 0.482422C81.9314 0.482422 85.5211 3.82407 85.3931 10.4189C85.2649 18.1133 80.6927 23.7854 73.813 25.1045C72.873 25.2803 71.8475 25.3242 70.8647 25.3242H67.5317C67.4037 25.3242 67.3181 25.4123 67.3179 25.5439C67.2756 25.6309 67.4 25.7187 67.4028 25.7207L67.7876 25.9404L68.813 26.5117L69.8813 27.083C70.0094 27.1269 70.0952 27.2148 70.2231 27.2588C70.4795 27.3907 70.5227 27.6112 70.48 27.875L69.7534 31.3037C69.7107 31.5675 69.4966 31.7441 69.1548 31.7441H63.0874C62.9166 31.7441 62.7458 31.6561 62.6177 31.5244C62.5322 31.3925 62.5317 31.1279 62.5317 31.1279L69.2837 0.966797C69.3264 0.659142 69.625 0.52647 69.8813 0.526367H74.7534L74.7954 0.482422ZM61.2515 0.526367C61.5506 0.526367 61.8069 0.790857 61.7642 1.09863V31.1719L61.8501 31.1279C61.8501 31.2598 61.8067 31.4365 61.7212 31.5244C61.594 31.6114 61.3003 31.6985 61.2944 31.7002H54.8413C54.5424 31.6999 54.2866 31.4355 54.2866 31.1279L54.4146 28.2266C54.4146 27.7869 54.4141 27.7871 53.9868 27.7871H47.8765C47.4065 27.7871 47.4068 27.8309 47.2358 28.2266L45.9536 31.3477C45.8254 31.6114 45.6118 31.7002 45.27 31.7002H38.8599C38.4754 31.7 38.219 31.3038 38.3472 30.9521L51.5942 0.96582C51.6797 0.789953 51.8081 0.526378 52.1069 0.526367H61.2515ZM55.1411 8.74902C55.0984 8.61712 55.0127 8.6171 54.9272 8.79297C54.8845 8.92491 54.7993 9.14453 54.7993 9.14453L50.2271 20.7959C50.1843 20.8838 50.1841 20.9277 50.1841 20.9717C50.1841 21.0595 50.2267 21.1473 50.312 21.1475H50.4829V21.1914H54.1577C54.585 21.1914 54.5857 21.1476 54.6284 20.708C54.6284 20.708 55.1398 8.868 55.1411 8.74902ZM71.5913 7.25391C71.4631 7.25391 71.3774 7.34173 71.3774 7.47363C71.3348 7.56146 71.3771 7.6492 71.4624 7.64941C71.4624 7.64941 74.2383 9.18746 74.4536 9.27637C74.5818 9.36429 74.5823 9.49606 74.5396 9.75977L72.6167 18.4658H73.0864L73.1294 18.5098C76.3341 18.3778 78.0856 14.4646 78.1284 10.7275C78.1712 8.57311 77.4021 7.25391 76.0347 7.25391H71.5913Z" fill="url(#paint0_linear_425_1082)"/>
<defs>
<linearGradient id="paint0_linear_425_1082" x1="62.5318" y1="0.482669" x2="83.0326" y2="4.78153" gradientUnits="userSpaceOnUse">
<stop stop-color="white"/>
<stop offset="0.602787" stop-color="#989898"/>
<stop offset="1" stop-color="white"/>
</linearGradient>
</defs>
</svg>
