<svg width="125" height="33" viewBox="0 0 125 33" fill="none" xmlns="http://www.w3.org/2000/svg">
<g clip-path="url(#clip0_425_1106)">
<mask id="mask0_425_1106" style="mask-type:luminance" maskUnits="userSpaceOnUse" x="0" y="0" width="125" height="33">
<path d="M124.921 0H0V32.2724H124.921V0Z" fill="white"/>
</mask>
<g mask="url(#mask0_425_1106)">
<path d="M89.7578 27.0957C89.7578 28.9109 89.2871 30.2557 88.4131 31.0625C87.4718 31.8692 86.3288 32.2725 84.917 32.2725C83.2363 32.2724 81.8247 31.8015 80.749 30.8604L82.1602 27.9023C82.8324 28.7091 83.5722 29.1122 84.3789 29.1123C85.4546 29.1123 85.9931 28.4402 85.9932 27.0957V7.39551H89.7578V27.0957ZM59.8389 6.99219C62.3935 6.99223 64.5448 7.79891 66.2256 9.47949C67.9064 11.1603 68.7812 13.3123 68.7812 15.8672C68.714 18.5565 67.9064 20.6406 66.2256 22.3887C64.5448 24.0694 62.3936 24.8769 59.8389 24.877C57.284 24.877 55.132 24.0021 53.4512 22.3213C51.7705 20.6405 50.8965 18.4892 50.8965 15.8672C50.8965 13.2451 51.7703 11.0931 53.4512 9.47949C55.132 7.79869 57.284 6.99219 59.8389 6.99219ZM76.1094 7.39551H82.9004V10.623H76.1094V19.1621C76.1095 20.7082 76.7145 21.5146 77.8574 21.5146C78.9331 21.5146 79.874 20.5063 80.748 18.5566L83.707 20.0361C82.2279 23.2631 80.2107 24.8768 77.5215 24.877C74.0253 24.877 72.2773 22.9936 72.2773 19.2285V10.623H69.6553V7.39551H72.4111L73.2852 2.35352H76.1094V7.39551ZM100.717 6.99219C102.935 6.99219 104.751 7.59733 106.028 8.74023C107.306 9.95039 107.978 11.6312 107.979 13.917V24.4062H104.28V22.2539C103.07 24.0019 101.39 24.8769 99.1709 24.877C97.2211 24.877 95.6741 24.406 94.4639 23.3975C93.2538 22.4562 92.6495 21.1115 92.6494 19.498C92.6494 18.0189 93.2538 16.7408 94.5312 15.665C95.8087 14.5893 97.3557 14.1191 99.2383 14.1191C101.188 14.1192 102.801 14.7246 104.146 16.002V13.917C104.145 12.7071 103.81 11.766 103.205 11.0938C102.6 10.4215 101.726 10.085 100.583 10.085C98.2298 10.085 96.8172 11.2952 96.2793 13.6484L92.7832 12.9092C93.2538 11.0939 94.1954 9.61398 95.54 8.60547C96.8847 7.59708 98.6327 6.99223 100.717 6.99219ZM21.7842 8.60645C21.7841 14.9261 17.8843 17.0777 15.0605 18.624C12.4384 20.1032 10.7578 21.0448 10.7578 24.541H6.05078C6.05078 18.221 9.95057 16.0688 12.7744 14.5225C15.3964 13.0434 17.0771 12.1023 17.0771 8.60645H21.7842ZM36.4404 9.68164C37.6506 7.93364 39.3991 6.99227 41.8193 6.99219C43.8363 6.99219 45.4506 7.59742 46.5264 8.80762C47.6693 10.0178 48.207 11.6991 48.207 13.8506V24.4736H44.4414V14.3887C44.4414 11.6322 43.2316 10.2198 40.7441 10.2197C39.5339 10.2197 38.4583 10.6237 37.7188 11.3633C36.912 12.1028 36.5079 13.178 36.5078 14.5225V24.4736H32.6758V0.0673828H36.4404V9.68164ZM120.215 7.12695C121.559 7.12703 122.702 7.59689 123.576 8.4707C124.45 9.34467 124.921 10.5552 124.921 12.0342C124.921 12.9081 124.786 13.8495 124.45 14.6562L120.954 14.3203C121.021 13.8497 121.089 13.3788 121.089 12.9082C121.089 11.1606 120.349 10.2863 118.938 10.2861C117.929 10.2861 117.122 10.8245 116.449 11.833C115.777 12.9087 115.44 14.2538 115.44 15.9346V24.4053H111.676V7.39551H115.374V10.3535C116.315 8.20222 117.929 7.12695 120.215 7.12695ZM99.9102 16.876C98.9018 16.876 98.1625 17.1447 97.4902 17.6152C97.2213 17.8169 96.9519 18.0857 96.8174 18.4219C96.6829 18.758 96.549 19.0945 96.6162 19.4307C96.6162 19.7667 96.683 20.1698 96.8174 20.5059C96.9519 20.842 97.2213 21.1118 97.4902 21.3135C98.0953 21.851 98.9019 22.0527 99.9102 22.0527C101.591 22.0527 103.003 21.1787 104.213 19.498V18.96C103.07 17.5481 101.591 16.876 99.9102 16.876ZM59.8389 10.085C58.3597 10.085 57.1493 10.6233 56.208 11.6318C55.3341 12.7075 54.8633 14.1194 54.8633 15.9346C54.8633 17.7498 55.334 19.1616 56.208 20.2373C57.0821 21.3131 58.2925 21.8506 59.8389 21.8506C61.3179 21.8505 62.5285 21.313 63.4697 20.2373C64.3436 19.1616 64.8144 17.7497 64.8145 15.9346C64.8145 14.1865 64.3438 12.7068 63.4697 11.6982C62.5285 10.6225 61.3179 10.085 59.8389 10.085ZM15.7324 0C15.7324 6.3197 11.8336 8.47121 9.00977 10.0176C6.38763 11.4295 4.70605 12.4384 4.70605 15.9346H0C0 9.68179 3.89979 7.53061 6.72363 5.91699C9.34577 4.43784 11.0264 3.49618 11.0264 0H15.7324ZM87.875 0C88.4801 0 89.086 0.202212 89.5566 0.672852C89.7582 0.874497 89.9594 1.14338 90.0938 1.41211C90.2282 1.68105 90.2958 2.0172 90.2285 2.28613C90.2285 2.55501 90.1618 2.89128 90.0273 3.16016C89.8929 3.429 89.758 3.69773 89.4893 3.89941C89.2876 4.10112 89.018 4.30288 88.749 4.37012C88.4801 4.5045 88.1439 4.5721 87.875 4.50488C87.27 4.5048 86.6649 4.30274 86.1943 3.89941C85.9927 3.69773 85.7907 3.429 85.6562 3.16016C85.5218 2.89124 85.4552 2.55504 85.5225 2.28613C85.5225 1.95005 85.589 1.68098 85.6562 1.41211C85.7907 1.14328 85.9256 0.874527 86.1943 0.672852C86.6649 0.269527 87.27 0.000108317 87.875 0Z" fill="url(#paint0_linear_425_1106)"/>
</g>
</g>
<defs>
<linearGradient id="paint0_linear_425_1106" x1="0" y1="0" x2="52.3987" y2="58.1502" gradientUnits="userSpaceOnUse">
<stop stop-color="white"/>
<stop offset="0.602787" stop-color="#989898"/>
<stop offset="1" stop-color="white"/>
</linearGradient>
<clipPath id="clip0_425_1106">
<rect width="124.921" height="32.2724" fill="white"/>
</clipPath>
</defs>
</svg>
