<svg width="94" height="33" viewBox="0 0 94 33" fill="none" xmlns="http://www.w3.org/2000/svg">
<path fill-rule="evenodd" clip-rule="evenodd" d="M20.1652 0.0587282L1.99552 1.42408C0.525136 1.52911 0 2.52687 0 3.68216V23.6373C0 24.5301 0.315081 25.3178 1.10278 26.3155L5.35638 31.882C6.03906 32.7747 6.72174 32.9847 8.03458 32.8797L29.145 31.6194C30.9305 31.5144 31.4556 30.6741 31.4556 29.2563V6.78046C31.4556 6.04527 31.1931 5.83522 30.3003 5.20506C30.2478 5.15254 30.1953 5.15254 30.1428 5.10003L24.3663 1.05649C23.0009 0.00621466 22.4233 -0.0988125 20.1652 0.0587282ZM8.5072 6.41287C6.77425 6.5179 6.40666 6.57041 5.4089 5.73019L2.94076 3.78719C2.67819 3.52462 2.78322 3.20954 3.4659 3.15703L20.9529 1.8967C22.4233 1.79168 23.1585 2.2643 23.7361 2.73692L26.7294 4.88998C26.8869 4.94249 27.202 5.31009 26.7819 5.31009L8.71725 6.41287H8.5072ZM6.51168 29.0462V9.98379C6.51168 9.14358 6.77425 8.77598 7.50944 8.72347L28.2523 7.51566C28.935 7.46314 29.2501 7.88325 29.2501 8.72347V27.6284C29.2501 28.4686 29.0925 29.1512 27.9897 29.2038L8.1396 30.3591C7.03682 30.4641 6.51168 30.044 6.51168 29.0462ZM26.0992 11.0341C26.2043 11.6117 26.0992 12.1894 25.5216 12.2419L24.5763 12.4519V26.5256C23.7361 26.9982 23.0009 27.2082 22.3708 27.2082C21.373 27.2082 21.1105 26.8932 20.3228 25.9479L14.0211 16.0754V25.5803L16.0166 26.0529C16.0166 26.0529 16.0166 27.2082 14.4412 27.2082L10.0301 27.4708C9.92507 27.2082 10.0301 26.5781 10.4502 26.4731L11.6055 26.158V13.5547L10.0301 13.3972C9.92507 12.8195 10.2401 11.9793 11.1329 11.9268L15.8591 11.6117L22.3708 21.5893V12.767L20.6903 12.557C20.5853 11.8743 21.0579 11.3491 21.6881 11.2966L26.0992 11.0341Z" fill="url(#paint0_linear_425_1128)"/>
<path d="M43.9209 23.3748V14.7101H44.0784L50.3276 23.3748H52.3231V10.614H50.1175V19.2788H49.96L43.7108 10.614H41.7153V23.3748H43.9209ZM58.4672 23.5324C61.3554 23.5324 63.0884 21.6419 63.0884 18.4911C63.0884 15.3928 61.3029 13.4498 58.4672 13.4498C55.5789 13.4498 53.846 15.3403 53.846 18.4911C53.7935 21.6419 55.5789 23.5324 58.4672 23.5324ZM58.4672 21.6944C56.9443 21.6944 56.0515 20.5391 56.0515 18.4911C56.0515 16.4956 56.9443 15.2877 58.4672 15.2877C59.9901 15.2877 60.8828 16.443 60.8828 18.4911C60.8303 20.5391 59.9901 21.6944 58.4672 21.6944ZM65.0839 11.3492V13.7649H63.561V15.4978H65.0839V20.7492C65.0839 22.6396 65.9766 23.3748 68.1822 23.3748C68.6023 23.3748 69.0224 23.3223 69.3375 23.2698V21.5894C69.0749 21.6419 68.9174 21.6419 68.6023 21.6419C67.7095 21.6419 67.2894 21.2218 67.2894 20.2765V15.5503H69.3375V13.8174H67.2894V11.4017H65.0839V11.3492ZM70.6503 23.3748H72.8559V13.7123H70.6503V23.3748ZM71.7531 12.0844C72.4883 12.0844 73.0659 11.5068 73.0659 10.7716C73.0659 10.0364 72.4883 9.45874 71.7531 9.45874C71.0179 9.45874 70.4403 10.0364 70.4403 10.7716C70.4403 11.5068 71.0179 12.0844 71.7531 12.0844ZM78.8424 23.5324C81.7307 23.5324 83.4636 21.6419 83.4636 18.4911C83.4636 15.3928 81.6782 13.4498 78.8424 13.4498C75.9542 13.4498 74.2212 15.3403 74.2212 18.4911C74.1687 21.6419 75.9542 23.5324 78.8424 23.5324ZM78.8424 21.6944C77.3195 21.6944 76.4268 20.5391 76.4268 18.4911C76.4268 16.4956 77.3195 15.2877 78.8424 15.2877C80.3653 15.2877 81.2581 16.443 81.2581 18.4911C81.2055 20.5391 80.3653 21.6944 78.8424 21.6944ZM84.7765 23.3748H86.982V17.7034C86.982 16.2855 87.8222 15.3928 89.0826 15.3928C90.3954 15.3928 91.0256 16.128 91.0256 17.5983V23.3223H93.2311V17.0732C93.2311 14.7626 92.0758 13.4498 89.9228 13.4498C88.5049 13.4498 87.5072 14.1324 87.0345 15.1827H86.877V13.7123H84.7765V23.3748Z" fill="url(#paint1_linear_425_1128)"/>
<defs>
<linearGradient id="paint0_linear_425_1128" x1="0" y1="0" x2="27.3867" y2="7.50605" gradientUnits="userSpaceOnUse">
<stop stop-color="white"/>
<stop offset="0.602787" stop-color="#989898"/>
<stop offset="1" stop-color="white"/>
</linearGradient>
<linearGradient id="paint1_linear_425_1128" x1="41.7153" y1="9.45874" x2="64.6631" y2="33.5413" gradientUnits="userSpaceOnUse">
<stop stop-color="white"/>
<stop offset="0.602787" stop-color="#989898"/>
<stop offset="1" stop-color="white"/>
</linearGradient>
</defs>
</svg>
