<svg width="100" height="36" viewBox="0 0 100 36" fill="none" xmlns="http://www.w3.org/2000/svg">
<path d="M19.8111 21.0751C21.685 21.0751 23.2042 19.556 23.2042 17.682C23.2042 15.8081 21.685 14.2889 19.8111 14.2889C17.9371 14.2889 16.418 15.8081 16.418 17.682C16.418 19.556 17.9371 21.0751 19.8111 21.0751Z" fill="url(#paint0_linear_425_1074)"/>
<path fill-rule="evenodd" clip-rule="evenodd" d="M19.8111 10.7833C24.3668 10.7833 28.5989 11.437 31.7899 12.5356C35.6346 13.8592 37.9985 15.8655 37.9985 17.6822C37.9985 19.5753 35.4933 21.7068 31.3646 23.0747C28.2431 24.1089 24.1356 24.6487 19.8111 24.6487C15.3773 24.6487 11.1787 24.142 8.0221 23.0633C4.02846 21.6983 1.62305 19.5393 1.62305 17.6822C1.62305 15.8802 3.88007 13.8894 7.67073 12.5678C10.8736 11.4512 15.2103 10.7833 19.8105 10.7833H19.8111Z" stroke="white" stroke-width="3.24637"/>
<path fill-rule="evenodd" clip-rule="evenodd" d="M13.8054 14.2527C16.0814 10.3062 18.7618 6.96662 21.3076 4.75113C24.3749 2.0818 27.2939 1.03642 28.8676 1.94389C30.5076 2.88965 31.1024 6.12475 30.2249 10.3846C29.562 13.6053 27.977 17.4331 25.8166 21.1793C23.6015 25.0203 21.0652 28.4042 18.554 30.5992C15.3765 33.3768 12.3045 34.382 10.6957 33.4543C9.13469 32.5547 8.53774 29.6044 9.28661 25.6604C9.91934 22.3279 11.5072 18.2376 13.8047 14.2526L13.8054 14.2527Z" stroke="white" stroke-width="3.24637"/>
<path fill-rule="evenodd" clip-rule="evenodd" d="M13.8109 21.19C11.5285 17.248 9.97458 13.2571 9.32595 9.94514C8.54516 5.95461 9.0972 2.90354 10.6695 1.99343C12.3079 1.0449 15.4077 2.14521 18.66 5.033C21.119 7.21629 23.644 10.5005 25.8107 14.2432C28.0321 18.0804 29.6971 21.9679 30.3448 25.2396C31.1643 29.3798 30.501 32.5433 28.8938 33.4737C27.3343 34.3765 24.4805 33.4206 21.4376 30.802C18.8665 28.5897 16.1158 25.1711 13.8109 21.1899V21.19Z" stroke="white" stroke-width="3.24637"/>
<path fill-rule="evenodd" clip-rule="evenodd" d="M56.3263 25.2474L52.1763 18.9945C54.2737 18.8099 56.1636 17.2943 56.1636 14.5254C56.1636 11.7079 54.1587 9.90472 51.3463 9.90472H45.1699V25.2357H47.0832V19.1441H50.149L54.0672 25.2357L56.3263 25.2474ZM51.1173 17.4779H47.0842V11.6166H51.1173C52.9391 11.6166 54.1831 12.8116 54.1831 14.5361C54.1831 16.2606 52.9381 17.4799 51.1173 17.4799V17.4779ZM63.4486 25.5223C65.2703 25.5223 66.7676 24.9248 67.8743 23.8221L67.0443 22.6951C66.1675 23.5919 64.8777 24.0971 63.6103 24.0971C61.2138 24.0971 59.7379 22.3502 59.5996 20.2595H68.6108V19.8223C68.6108 16.4899 66.6283 13.8686 63.2625 13.8686C60.0818 13.8686 57.7778 16.4665 57.7778 19.6843C57.7778 23.1556 60.1519 25.5136 63.4476 25.5136L63.4486 25.5223ZM66.9069 18.9935H59.6005C59.6931 17.2933 60.867 15.2919 63.242 15.2919C65.7779 15.2919 66.8836 17.338 66.9069 18.9935ZM80.0916 25.2464V17.6149C80.0916 14.9257 78.1335 13.8677 75.7818 13.8677C73.96 13.8677 72.5319 14.4652 71.3336 15.7068L72.1403 16.9018C73.131 15.8448 74.2153 15.3619 75.5519 15.3619C77.1651 15.3619 78.3643 16.212 78.3643 17.7062V19.7057C77.4652 18.671 76.1977 18.1881 74.6761 18.1881C72.7861 18.1881 70.7793 19.3608 70.7793 21.8431C70.7793 24.2564 72.7842 25.5214 74.6761 25.5214C76.1744 25.5214 77.4428 24.9928 78.3643 23.9815V25.2445L80.0916 25.2464ZM75.2986 24.2807C73.6853 24.2807 72.5553 23.2703 72.5553 21.8674C72.5553 20.4421 73.6853 19.4307 75.2986 19.4307C76.5202 19.4307 77.6951 19.8903 78.3643 20.8103V22.9021C77.696 23.8211 76.5202 24.2807 75.2986 24.2807ZM88.4501 25.5223C90.4783 25.5223 91.6766 24.6946 92.53 23.5919L91.3775 22.5348C90.6401 23.5229 89.6951 23.9824 88.5524 23.9824C86.1783 23.9824 84.7043 22.1433 84.7043 19.6843C84.7043 17.2253 86.1793 15.4095 88.5524 15.4095C89.7048 15.4095 90.6498 15.8467 91.3775 16.8571L92.53 15.8001C91.6776 14.6964 90.4783 13.8696 88.4501 13.8696C85.131 13.8696 82.8953 16.3985 82.8953 19.6853C82.8953 22.9953 85.131 25.5146 88.4501 25.5146V25.5223ZM97.7633 25.5223C98.7765 25.5223 99.3999 25.2231 99.8383 24.8102L99.3317 23.5229C99.1009 23.7755 98.6498 23.9824 98.1559 23.9824C97.396 23.9824 97.0258 23.3849 97.0258 22.5572V15.6611H99.286V14.1446H97.0258V11.1104H95.2967V14.1446H93.4525V15.6621H95.2967V22.9264C95.2967 24.5819 96.1267 25.5243 97.7633 25.5243V25.5223Z" fill="url(#paint1_linear_425_1074)"/>
<defs>
<linearGradient id="paint0_linear_425_1074" x1="16.418" y1="14.2889" x2="22.2877" y2="15.9718" gradientUnits="userSpaceOnUse">
<stop stop-color="white"/>
<stop offset="0.602787" stop-color="#989898"/>
<stop offset="1" stop-color="white"/>
</linearGradient>
<linearGradient id="paint1_linear_425_1074" x1="45.1699" y1="9.90472" x2="70.6679" y2="35.4907" gradientUnits="userSpaceOnUse">
<stop stop-color="white"/>
<stop offset="0.602787" stop-color="#989898"/>
<stop offset="1" stop-color="white"/>
</linearGradient>
</defs>
</svg>
