<svg width="22" height="25" viewBox="0 0 22 25" fill="none" xmlns="http://www.w3.org/2000/svg">
<path d="M21.999 8.76758C21.9989 15.2055 18.0607 17.3974 15.209 18.9727C12.5611 20.4793 10.8633 21.4386 10.8633 25H6.11035C6.11035 18.5618 10.0486 16.3693 12.9004 14.7939C15.5484 13.2872 17.246 12.3288 17.2461 8.76758H21.999ZM15.8887 0C15.8887 6.43817 11.9504 8.62977 9.09863 10.2051C6.45055 11.6434 4.75297 12.6709 4.75293 16.2324H0C4.86283e-05 9.8628 3.93824 7.67113 6.79004 6.02734C9.43815 4.52053 11.1357 3.56157 11.1357 0H15.8887Z" fill="url(#paint0_linear_23_80)"/>
<defs>
<linearGradient id="paint0_linear_23_80" x1="0" y1="0" x2="19.3599" y2="4.88421" gradientUnits="userSpaceOnUse">
<stop stop-color="white"/>
<stop offset="0.602787" stop-color="#989898"/>
<stop offset="1" stop-color="white"/>
</linearGradient>
</defs>
</svg>
