<svg width="187" height="142" viewBox="0 0 187 142" fill="none" xmlns="http://www.w3.org/2000/svg">
<path d="M120.293 45.2227L98.5857 23.5158L77.331 45.2227H65.1208L110.344 0H62.8597L17.1847 45.2227H0V48.3883H186.318V45.2227H120.293Z" fill="url(#paint0_linear_25_21)"/>
<path d="M0 96.7769H65.5731L86.8278 118.032L108.535 96.7769H120.293L75.0699 142H122.554L146.522 118.484L167.777 96.7769H186.318V93.6113H0V96.7769Z" fill="url(#paint1_linear_25_21)"/>
<path d="M28.086 86.504C25.146 86.504 22.612 85.874 20.484 84.614C18.384 83.326 16.76 81.548 15.612 79.28C14.492 76.984 13.932 74.338 13.932 71.342C13.932 68.346 14.492 65.7 15.612 63.404C16.76 61.108 18.384 59.316 20.484 58.028C22.612 56.74 25.146 56.096 28.086 56.096C31.642 56.096 34.554 56.978 36.822 58.742C39.09 60.506 40.504 62.998 41.064 66.218H34.89C34.526 64.65 33.756 63.432 32.58 62.564C31.432 61.668 29.92 61.22 28.044 61.22C26.308 61.22 24.81 61.64 23.55 62.48C22.318 63.292 21.366 64.454 20.694 65.966C20.022 67.45 19.686 69.242 19.686 71.342C19.686 73.414 20.022 75.206 20.694 76.718C21.366 78.23 22.318 79.392 23.55 80.204C24.81 81.016 26.308 81.422 28.044 81.422C29.92 81.422 31.432 81.016 32.58 80.204C33.728 79.364 34.484 78.202 34.848 76.718H41.064C40.504 79.77 39.09 82.164 36.822 83.9C34.554 85.636 31.642 86.504 28.086 86.504ZM61.9078 86.504C59.7798 86.504 57.8758 86.14 56.1958 85.412C54.5438 84.684 53.2278 83.62 52.2478 82.22C51.2958 80.82 50.8058 79.126 50.7778 77.138H56.7838C56.8118 78.006 57.0358 78.79 57.4558 79.49C57.8758 80.19 58.4498 80.75 59.1778 81.17C59.9338 81.562 60.8298 81.758 61.8658 81.758C62.7618 81.758 63.5318 81.618 64.1758 81.338C64.8478 81.03 65.3658 80.61 65.7298 80.078C66.0938 79.546 66.2758 78.916 66.2758 78.188C66.2758 77.348 66.0658 76.648 65.6458 76.088C65.2538 75.528 64.6938 75.052 63.9658 74.66C63.2658 74.268 62.4398 73.918 61.4878 73.61C60.5638 73.274 59.5838 72.924 58.5478 72.56C56.2238 71.804 54.4458 70.796 53.2138 69.536C52.0098 68.276 51.4078 66.61 51.4078 64.538C51.4078 62.774 51.8278 61.262 52.6678 60.002C53.5358 58.742 54.7258 57.776 56.2378 57.104C57.7498 56.432 59.4718 56.096 61.4038 56.096C63.3918 56.096 65.1278 56.446 66.6118 57.146C68.1238 57.818 69.3138 58.798 70.1818 60.086C71.0778 61.374 71.5398 62.886 71.5678 64.622H65.5198C65.4918 63.978 65.2958 63.376 64.9318 62.816C64.5958 62.228 64.1198 61.766 63.5038 61.43C62.8878 61.066 62.1598 60.884 61.3198 60.884C60.5918 60.856 59.9198 60.968 59.3038 61.22C58.7158 61.472 58.2398 61.85 57.8758 62.354C57.5398 62.83 57.3718 63.432 57.3718 64.16C57.3718 64.86 57.5398 65.448 57.8758 65.924C58.2398 66.4 58.7298 66.82 59.3458 67.184C59.9618 67.52 60.6898 67.842 61.5298 68.15C62.3698 68.43 63.2798 68.724 64.2598 69.032C65.7158 69.536 67.0598 70.138 68.2918 70.838C69.5238 71.51 70.5038 72.392 71.2318 73.484C71.9598 74.576 72.3238 76.018 72.3238 77.81C72.3238 79.35 71.9178 80.778 71.1058 82.094C70.2938 83.41 69.1178 84.474 67.5778 85.286C66.0658 86.098 64.1758 86.504 61.9078 86.504ZM93.1355 86.504C91.0075 86.504 89.1035 86.14 87.4235 85.412C85.7715 84.684 84.4555 83.62 83.4755 82.22C82.5235 80.82 82.0335 79.126 82.0055 77.138H88.0115C88.0395 78.006 88.2635 78.79 88.6835 79.49C89.1035 80.19 89.6775 80.75 90.4055 81.17C91.1615 81.562 92.0575 81.758 93.0935 81.758C93.9895 81.758 94.7595 81.618 95.4035 81.338C96.0755 81.03 96.5935 80.61 96.9575 80.078C97.3215 79.546 97.5035 78.916 97.5035 78.188C97.5035 77.348 97.2935 76.648 96.8735 76.088C96.4815 75.528 95.9215 75.052 95.1935 74.66C94.4935 74.268 93.6675 73.918 92.7155 73.61C91.7915 73.274 90.8115 72.924 89.7755 72.56C87.4515 71.804 85.6735 70.796 84.4415 69.536C83.2375 68.276 82.6355 66.61 82.6355 64.538C82.6355 62.774 83.0555 61.262 83.8955 60.002C84.7635 58.742 85.9535 57.776 87.4655 57.104C88.9775 56.432 90.6995 56.096 92.6315 56.096C94.6195 56.096 96.3555 56.446 97.8395 57.146C99.3515 57.818 100.541 58.798 101.409 60.086C102.305 61.374 102.767 62.886 102.795 64.622H96.7475C96.7195 63.978 96.5235 63.376 96.1595 62.816C95.8235 62.228 95.3475 61.766 94.7315 61.43C94.1155 61.066 93.3875 60.884 92.5475 60.884C91.8195 60.856 91.1475 60.968 90.5315 61.22C89.9435 61.472 89.4675 61.85 89.1035 62.354C88.7675 62.83 88.5995 63.432 88.5995 64.16C88.5995 64.86 88.7675 65.448 89.1035 65.924C89.4675 66.4 89.9575 66.82 90.5735 67.184C91.1895 67.52 91.9175 67.842 92.7575 68.15C93.5975 68.43 94.5075 68.724 95.4875 69.032C96.9435 69.536 98.2875 70.138 99.5195 70.838C100.751 71.51 101.731 72.392 102.459 73.484C103.187 74.576 103.551 76.018 103.551 77.81C103.551 79.35 103.145 80.778 102.333 82.094C101.521 83.41 100.345 84.474 98.8055 85.286C97.2935 86.098 95.4035 86.504 93.1355 86.504ZM114.241 86V56.6H124.069C127.485 56.6 130.299 57.216 132.511 58.448C134.751 59.652 136.403 61.36 137.467 63.572C138.559 65.756 139.105 68.332 139.105 71.3C139.105 74.268 138.559 76.858 137.467 79.07C136.403 81.254 134.765 82.962 132.553 84.194C130.341 85.398 127.513 86 124.069 86H114.241ZM119.911 81.128H123.775C126.183 81.128 128.073 80.736 129.445 79.952C130.845 79.168 131.839 78.048 132.427 76.592C133.015 75.108 133.309 73.344 133.309 71.3C133.309 69.228 133.015 67.464 132.427 66.008C131.839 64.524 130.845 63.39 129.445 62.606C128.073 61.822 126.183 61.43 123.775 61.43H119.911V81.128ZM145.997 86L156.749 56.6H163.175L173.885 86H167.879L159.941 63.068L151.961 86H145.997ZM150.743 79.322L152.255 74.912H167.207L168.677 79.322H150.743Z" fill="white"/>
<defs>
<linearGradient id="paint0_linear_25_21" x1="93.159" y1="0" x2="93.159" y2="48.3883" gradientUnits="userSpaceOnUse">
<stop stop-color="white"/>
<stop offset="0.451923" stop-color="#CFCFCF"/>
<stop offset="1" stop-color="white"/>
</linearGradient>
<linearGradient id="paint1_linear_25_21" x1="93.159" y1="93.6113" x2="93.159" y2="142" gradientUnits="userSpaceOnUse">
<stop stop-color="white"/>
<stop offset="0.451923" stop-color="#CFCFCF"/>
<stop offset="1" stop-color="white"/>
</linearGradient>
</defs>
</svg>
