<svg width="611" height="611" viewBox="0 0 611 611" fill="none" xmlns="http://www.w3.org/2000/svg">
<rect width="611" height="611" fill="black"/>
<rect width="611" height="611" fill="url(#paint0_radial_2114_30)" fill-opacity="0.19"/>
<path d="M224.302 296.652L302.625 297.972C314.902 297.972 332.565 298.7 341.773 296.841C375.967 289.918 382.779 270.037 382.779 253.524C382.779 234.102 364.497 202.557 336.119 202.449L301.844 202.315L255.023 202.153L150.287 101H335.957C396.376 100.973 453.428 135.885 472.464 188.63C502 270.549 487.595 348.967 389.51 390.532L502 511H374.217L255.776 391.61V511H150.098V353.007C150.098 329.706 144.175 296.652 224.302 296.652Z" fill="white"/>
<defs>
<radialGradient id="paint0_radial_2114_30" cx="0" cy="0" r="1" gradientUnits="userSpaceOnUse" gradientTransform="translate(305.5 305.5) rotate(90) scale(648.506)">
<stop stop-color="#0E111B"/>
<stop offset="1" stop-color="white"/>
</radialGradient>
</defs>
</svg>
