<svg width="1655" height="209" viewBox="0 0 1655 209" fill="none" xmlns="http://www.w3.org/2000/svg">
<g filter="url(#filter0_dii_22_56)">
<mask id="path-1-outside-1_22_56" maskUnits="userSpaceOnUse" x="6" y="2" width="1643" height="197" fill="black">
<rect fill="white" x="6" y="2" width="1643" height="197"/>
<path d="M853.887 3C864.442 3 874.256 4.48161 883.329 7.44434C892.403 10.4071 900.489 14.7587 907.587 20.499C914.685 26.1776 920.518 33.152 925.086 41.4229C929.715 49.6321 932.74 59.0146 934.159 69.5693H899.532C898.545 63.8908 896.723 58.8599 894.069 54.4775C891.415 50.0337 888.113 46.2687 884.163 43.1826C880.213 40.0964 875.706 37.7814 870.645 36.2383C865.645 34.6336 860.244 33.8311 854.442 33.8311C844.135 33.8311 834.999 36.4237 827.037 41.6084C819.075 46.7315 812.84 54.2617 808.334 64.1992C803.828 74.075 801.575 86.1423 801.575 100.4C801.575 114.905 803.828 127.127 808.334 137.064C812.902 146.94 819.136 154.409 827.037 159.471C834.999 164.47 844.104 166.971 854.35 166.971C860.028 166.971 865.337 166.229 870.274 164.748C875.274 163.205 879.749 160.952 883.699 157.989C887.711 155.027 891.076 151.385 893.792 147.064C896.57 142.744 898.483 137.805 899.532 132.25L934.159 132.436C932.863 141.447 930.054 149.903 925.733 157.804C921.474 165.704 915.889 172.68 908.976 178.729C902.062 184.716 893.976 189.407 884.718 192.802C875.459 196.135 865.182 197.802 853.887 197.802C837.221 197.802 822.346 193.944 809.261 186.229C796.175 178.513 785.867 167.371 778.337 152.805C770.807 138.238 767.041 120.769 767.041 100.4C767.041 79.97 770.837 62.5021 778.429 47.9971C786.021 33.4302 796.36 22.2888 809.445 14.5732C822.531 6.85776 837.345 3.00003 853.887 3ZM78.1064 5.59277C92.6732 5.5928 104.895 8.12322 114.771 13.1846C124.708 18.2459 132.207 25.3444 137.269 34.4795C142.392 43.5528 144.953 54.1386 144.953 66.2363C144.953 78.396 142.361 88.9514 137.176 97.9014C132.053 106.79 124.491 113.672 114.492 118.548C113.321 119.112 112.118 119.641 110.884 120.139L151.897 195.209H113.566L76.3027 125.77H41.3496V195.209H7V5.59277H78.1064ZM286.86 34.3867H197.885V85.8652H280.472V114.659H197.885V166.415H287.601V195.209H163.535V5.59277H286.86V34.3867ZM430.341 34.3867H343.217V85.8652H422.008V114.659H343.217V195.209H308.867V5.59277H430.341V34.3867ZM519.706 5.59277C534.273 5.5928 546.494 8.12323 556.37 13.1846C566.308 18.2459 573.807 25.3444 578.868 34.4795C583.991 43.5528 586.553 54.1386 586.553 66.2363C586.553 78.396 583.96 88.9514 578.775 97.9014C573.652 106.79 566.091 113.672 556.092 118.548C554.921 119.112 553.717 119.641 552.483 120.139L593.086 194.456L659.576 5.59277H701.98L768.828 195.209H732.164L716.454 148.453H645.166L629.485 195.209H555.166L517.902 125.77H482.949V195.209H448.6V5.59277H519.706ZM1095.53 34.3867H1036.92V195.209H1002.85V34.3867H944.246V5.59277H1095.53V34.3867ZM1169.16 144.936H1170.92L1207.39 5.59277H1241L1277.57 145.027H1279.24L1313.41 5.59277H1350.35L1296.83 195.209H1262.95L1224.99 62.1631H1223.5L1185.45 195.209H1151.56L1098.05 5.59277H1134.99L1169.16 144.936ZM1484.45 34.3867H1395.48V85.8652H1478.07V114.659H1395.48V166.415H1485.19V195.209H1361.13V5.59277H1484.45V34.3867ZM1579.05 5.59277C1592.75 5.5928 1604.14 7.75356 1613.21 12.0742C1622.35 16.3332 1629.17 22.1655 1633.68 29.5723C1638.24 36.9791 1640.53 45.3739 1640.53 54.7559C1640.53 62.4712 1639.05 69.076 1636.08 74.5693C1633.12 80.0011 1629.14 84.4147 1624.14 87.8096C1619.14 91.2043 1613.55 93.6427 1607.38 95.124V96.9756C1614.11 97.3459 1620.56 99.4135 1626.73 103.179C1632.97 106.882 1638.06 112.129 1642.01 118.918C1645.96 125.708 1647.93 133.917 1647.93 143.546C1647.93 153.36 1645.56 162.187 1640.8 170.026C1636.05 177.803 1628.89 183.944 1619.32 188.45C1609.76 192.956 1597.72 195.209 1583.22 195.209H1506.46V5.59277H1579.05ZM1540.81 166.508H1577.75C1590.22 166.508 1599.2 164.132 1604.7 159.379C1610.25 154.564 1613.03 148.392 1613.03 140.861C1613.03 135.244 1611.64 130.183 1608.86 125.677C1606.08 121.109 1602.13 117.53 1597.01 114.938C1591.89 112.283 1585.78 110.956 1578.68 110.956H1540.81V166.508ZM654.42 120.862H707.184L681.519 44.4795H680.037L654.42 120.862ZM41.3496 97.2529H73.0137C81.5315 97.2529 88.5068 96.0808 93.9385 93.7354C99.3702 91.3281 103.382 87.84 105.975 83.2725C108.629 78.6432 109.956 72.9642 109.956 66.2363C109.956 59.5086 108.629 53.7683 105.975 49.0156C103.32 44.2012 99.2774 40.5598 93.8457 38.0908C88.414 35.5602 81.4086 34.295 72.8291 34.2949H41.3496V97.2529ZM482.949 97.2529H514.613C523.131 97.2529 530.106 96.0808 535.538 93.7354C540.97 91.3281 544.982 87.84 547.574 83.2725C550.228 78.6432 551.556 72.9642 551.556 66.2363C551.556 59.5086 550.228 53.7683 547.574 49.0156C544.92 44.2012 540.877 40.5598 535.445 38.0908C530.014 35.5602 523.008 34.295 514.429 34.2949H482.949V97.2529ZM1540.81 86.2354H1574.79C1580.72 86.2353 1586.06 85.1553 1590.81 82.9951C1595.56 80.773 1599.29 77.6556 1602.01 73.6436C1604.79 69.5698 1606.18 64.7554 1606.18 59.2002C1606.18 51.8552 1603.58 45.8064 1598.4 41.0537C1593.28 36.301 1585.65 33.9238 1575.53 33.9238H1540.81V86.2354Z"/>
</mask>
<path d="M853.887 3C864.442 3 874.256 4.48161 883.329 7.44434C892.403 10.4071 900.489 14.7587 907.587 20.499C914.685 26.1776 920.518 33.152 925.086 41.4229C929.715 49.6321 932.74 59.0146 934.159 69.5693H899.532C898.545 63.8908 896.723 58.8599 894.069 54.4775C891.415 50.0337 888.113 46.2687 884.163 43.1826C880.213 40.0964 875.706 37.7814 870.645 36.2383C865.645 34.6336 860.244 33.8311 854.442 33.8311C844.135 33.8311 834.999 36.4237 827.037 41.6084C819.075 46.7315 812.84 54.2617 808.334 64.1992C803.828 74.075 801.575 86.1423 801.575 100.4C801.575 114.905 803.828 127.127 808.334 137.064C812.902 146.94 819.136 154.409 827.037 159.471C834.999 164.47 844.104 166.971 854.35 166.971C860.028 166.971 865.337 166.229 870.274 164.748C875.274 163.205 879.749 160.952 883.699 157.989C887.711 155.027 891.076 151.385 893.792 147.064C896.57 142.744 898.483 137.805 899.532 132.25L934.159 132.436C932.863 141.447 930.054 149.903 925.733 157.804C921.474 165.704 915.889 172.68 908.976 178.729C902.062 184.716 893.976 189.407 884.718 192.802C875.459 196.135 865.182 197.802 853.887 197.802C837.221 197.802 822.346 193.944 809.261 186.229C796.175 178.513 785.867 167.371 778.337 152.805C770.807 138.238 767.041 120.769 767.041 100.4C767.041 79.97 770.837 62.5021 778.429 47.9971C786.021 33.4302 796.36 22.2888 809.445 14.5732C822.531 6.85776 837.345 3.00003 853.887 3ZM78.1064 5.59277C92.6732 5.5928 104.895 8.12322 114.771 13.1846C124.708 18.2459 132.207 25.3444 137.269 34.4795C142.392 43.5528 144.953 54.1386 144.953 66.2363C144.953 78.396 142.361 88.9514 137.176 97.9014C132.053 106.79 124.491 113.672 114.492 118.548C113.321 119.112 112.118 119.641 110.884 120.139L151.897 195.209H113.566L76.3027 125.77H41.3496V195.209H7V5.59277H78.1064ZM286.86 34.3867H197.885V85.8652H280.472V114.659H197.885V166.415H287.601V195.209H163.535V5.59277H286.86V34.3867ZM430.341 34.3867H343.217V85.8652H422.008V114.659H343.217V195.209H308.867V5.59277H430.341V34.3867ZM519.706 5.59277C534.273 5.5928 546.494 8.12323 556.37 13.1846C566.308 18.2459 573.807 25.3444 578.868 34.4795C583.991 43.5528 586.553 54.1386 586.553 66.2363C586.553 78.396 583.96 88.9514 578.775 97.9014C573.652 106.79 566.091 113.672 556.092 118.548C554.921 119.112 553.717 119.641 552.483 120.139L593.086 194.456L659.576 5.59277H701.98L768.828 195.209H732.164L716.454 148.453H645.166L629.485 195.209H555.166L517.902 125.77H482.949V195.209H448.6V5.59277H519.706ZM1095.53 34.3867H1036.92V195.209H1002.85V34.3867H944.246V5.59277H1095.53V34.3867ZM1169.16 144.936H1170.92L1207.39 5.59277H1241L1277.57 145.027H1279.24L1313.41 5.59277H1350.35L1296.83 195.209H1262.95L1224.99 62.1631H1223.5L1185.45 195.209H1151.56L1098.05 5.59277H1134.99L1169.16 144.936ZM1484.45 34.3867H1395.48V85.8652H1478.07V114.659H1395.48V166.415H1485.19V195.209H1361.13V5.59277H1484.45V34.3867ZM1579.05 5.59277C1592.75 5.5928 1604.14 7.75356 1613.21 12.0742C1622.35 16.3332 1629.17 22.1655 1633.68 29.5723C1638.24 36.9791 1640.53 45.3739 1640.53 54.7559C1640.53 62.4712 1639.05 69.076 1636.08 74.5693C1633.12 80.0011 1629.14 84.4147 1624.14 87.8096C1619.14 91.2043 1613.55 93.6427 1607.38 95.124V96.9756C1614.11 97.3459 1620.56 99.4135 1626.73 103.179C1632.97 106.882 1638.06 112.129 1642.01 118.918C1645.96 125.708 1647.93 133.917 1647.93 143.546C1647.93 153.36 1645.56 162.187 1640.8 170.026C1636.05 177.803 1628.89 183.944 1619.32 188.45C1609.76 192.956 1597.72 195.209 1583.22 195.209H1506.46V5.59277H1579.05ZM1540.81 166.508H1577.75C1590.22 166.508 1599.2 164.132 1604.7 159.379C1610.25 154.564 1613.03 148.392 1613.03 140.861C1613.03 135.244 1611.64 130.183 1608.86 125.677C1606.08 121.109 1602.13 117.53 1597.01 114.938C1591.89 112.283 1585.78 110.956 1578.68 110.956H1540.81V166.508ZM654.42 120.862H707.184L681.519 44.4795H680.037L654.42 120.862ZM41.3496 97.2529H73.0137C81.5315 97.2529 88.5068 96.0808 93.9385 93.7354C99.3702 91.3281 103.382 87.84 105.975 83.2725C108.629 78.6432 109.956 72.9642 109.956 66.2363C109.956 59.5086 108.629 53.7683 105.975 49.0156C103.32 44.2012 99.2774 40.5598 93.8457 38.0908C88.414 35.5602 81.4086 34.295 72.8291 34.2949H41.3496V97.2529ZM482.949 97.2529H514.613C523.131 97.2529 530.106 96.0808 535.538 93.7354C540.97 91.3281 544.982 87.84 547.574 83.2725C550.228 78.6432 551.556 72.9642 551.556 66.2363C551.556 59.5086 550.228 53.7683 547.574 49.0156C544.92 44.2012 540.877 40.5598 535.445 38.0908C530.014 35.5602 523.008 34.295 514.429 34.2949H482.949V97.2529ZM1540.81 86.2354H1574.79C1580.72 86.2353 1586.06 85.1553 1590.81 82.9951C1595.56 80.773 1599.29 77.6556 1602.01 73.6436C1604.79 69.5698 1606.18 64.7554 1606.18 59.2002C1606.18 51.8552 1603.58 45.8064 1598.4 41.0537C1593.28 36.301 1585.65 33.9238 1575.53 33.9238H1540.81V86.2354Z" fill="url(#paint0_radial_22_56)"/>
<path d="M853.887 3V2V2V3ZM883.329 7.44434L883.64 6.49373V6.49373L883.329 7.44434ZM907.587 20.499L906.958 21.2766L906.962 21.2799L907.587 20.499ZM925.086 41.4229L924.211 41.9063L924.215 41.914L925.086 41.4229ZM934.159 69.5693V70.5693H935.303L935.15 69.436L934.159 69.5693ZM899.532 69.5693L898.547 69.7407L898.691 70.5693H899.532V69.5693ZM894.069 54.4775L893.211 54.9903L893.214 54.9956L894.069 54.4775ZM884.163 43.1826L884.779 42.3946V42.3946L884.163 43.1826ZM870.645 36.2383L870.339 37.1904L870.346 37.1927L870.353 37.1948L870.645 36.2383ZM854.442 33.8311V32.8311V32.8311V33.8311ZM827.037 41.6084L827.578 42.4494L827.583 42.4464L827.037 41.6084ZM808.334 64.1992L809.244 64.6143L809.245 64.6122L808.334 64.1992ZM801.575 100.4H800.575V100.4H801.575ZM808.334 137.064L807.423 137.477L807.426 137.484L808.334 137.064ZM827.037 159.471L826.498 160.313L826.505 160.318L827.037 159.471ZM854.35 166.971V167.971V167.971V166.971ZM870.274 164.748L870.562 165.706L870.569 165.704L870.274 164.748ZM883.699 157.989L883.105 157.185L883.099 157.189L883.699 157.989ZM893.792 147.064L892.951 146.524L892.945 146.532L893.792 147.064ZM899.532 132.25L899.538 131.25L898.704 131.246L898.55 132.064L899.532 132.25ZM934.159 132.436L935.149 132.578L935.312 131.442L934.165 131.436L934.159 132.436ZM925.733 157.804L924.856 157.324L924.853 157.329L925.733 157.804ZM908.976 178.729L909.63 179.484L909.634 179.481L908.976 178.729ZM884.718 192.802L885.057 193.743L885.062 193.741L884.718 192.802ZM853.887 197.802V198.802V198.802V197.802ZM809.261 186.229L808.753 187.09L808.753 187.09L809.261 186.229ZM778.337 152.805L777.449 153.264V153.264L778.337 152.805ZM767.041 100.4H766.041V100.4H767.041ZM778.429 47.9971L779.315 48.4608L779.315 48.4593L778.429 47.9971ZM809.445 14.5732L808.937 13.7118V13.7118L809.445 14.5732ZM78.1064 5.59277V4.59277V4.59277V5.59277ZM114.771 13.1846L114.314 14.0745L114.317 14.0757L114.771 13.1846ZM137.269 34.4795L136.394 34.9642L136.398 34.9712L137.269 34.4795ZM144.953 66.2363H145.953V66.2363L144.953 66.2363ZM137.176 97.9014L136.31 97.4001L136.309 97.402L137.176 97.9014ZM114.492 118.548L114.926 119.449L114.931 119.447L114.492 118.548ZM110.884 120.139L110.51 119.211L109.467 119.632L110.006 120.618L110.884 120.139ZM151.897 195.209V196.209H153.583L152.775 194.73L151.897 195.209ZM113.566 195.209L112.685 195.682L112.968 196.209H113.566V195.209ZM76.3027 125.77L77.1839 125.297L76.901 124.77H76.3027V125.77ZM41.3496 125.77V124.77H40.3496V125.77H41.3496ZM41.3496 195.209V196.209H42.3496V195.209H41.3496ZM7 195.209H6V196.209H7V195.209ZM7 5.59277V4.59277H6V5.59277H7ZM286.86 34.3867V35.3867H287.86V34.3867H286.86ZM197.885 34.3867V33.3867H196.885V34.3867H197.885ZM197.885 85.8652H196.885V86.8652H197.885V85.8652ZM280.472 85.8652H281.472V84.8652H280.472V85.8652ZM280.472 114.659V115.659H281.472V114.659H280.472ZM197.885 114.659V113.659H196.885V114.659H197.885ZM197.885 166.415H196.885V167.415H197.885V166.415ZM287.601 166.415H288.601V165.415H287.601V166.415ZM287.601 195.209V196.209H288.601V195.209H287.601ZM163.535 195.209H162.535V196.209H163.535V195.209ZM163.535 5.59277V4.59277H162.535V5.59277H163.535ZM286.86 5.59277H287.86V4.59277H286.86V5.59277ZM430.341 34.3867V35.3867H431.341V34.3867H430.341ZM343.217 34.3867V33.3867H342.217V34.3867H343.217ZM343.217 85.8652H342.217V86.8652H343.217V85.8652ZM422.008 85.8652H423.008V84.8652H422.008V85.8652ZM422.008 114.659V115.659H423.008V114.659H422.008ZM343.217 114.659V113.659H342.217V114.659H343.217ZM343.217 195.209V196.209H344.217V195.209H343.217ZM308.867 195.209H307.867V196.209H308.867V195.209ZM308.867 5.59277V4.59277H307.867V5.59277H308.867ZM430.341 5.59277H431.341V4.59277H430.341V5.59277ZM519.706 5.59277V4.59277V4.59277V5.59277ZM556.37 13.1846L555.914 14.0745L555.916 14.0757L556.37 13.1846ZM578.868 34.4795L577.993 34.9642L577.997 34.9712L578.868 34.4795ZM586.553 66.2363H587.553V66.2363L586.553 66.2363ZM578.775 97.9014L577.91 97.4001L577.909 97.402L578.775 97.9014ZM556.092 118.548L556.526 119.449L556.53 119.447L556.092 118.548ZM552.483 120.139L552.109 119.211L551.067 119.632L551.606 120.618L552.483 120.139ZM593.086 194.456L592.208 194.936L593.284 196.905L594.029 194.788L593.086 194.456ZM659.576 5.59277V4.59277H658.868L658.633 5.2607L659.576 5.59277ZM701.98 5.59277L702.924 5.26029L702.688 4.59277H701.98V5.59277ZM768.828 195.209V196.209H770.241L769.771 194.876L768.828 195.209ZM732.164 195.209L731.216 195.527L731.445 196.209H732.164V195.209ZM716.454 148.453L717.402 148.135L717.173 147.453H716.454V148.453ZM645.166 148.453V147.453H644.447L644.218 148.135L645.166 148.453ZM629.485 195.209V196.209H630.205L630.433 195.527L629.485 195.209ZM555.166 195.209L554.285 195.682L554.568 196.209H555.166V195.209ZM517.902 125.77L518.783 125.297L518.501 124.77H517.902V125.77ZM482.949 125.77V124.77H481.949V125.77H482.949ZM482.949 195.209V196.209H483.949V195.209H482.949ZM448.6 195.209H447.6V196.209H448.6V195.209ZM448.6 5.59277V4.59277H447.6V5.59277H448.6ZM1095.53 34.3867V35.3867H1096.53V34.3867H1095.53ZM1036.92 34.3867V33.3867H1035.92V34.3867H1036.92ZM1036.92 195.209V196.209H1037.92V195.209H1036.92ZM1002.85 195.209H1001.85V196.209H1002.85V195.209ZM1002.85 34.3867H1003.85V33.3867H1002.85V34.3867ZM944.246 34.3867H943.246V35.3867H944.246V34.3867ZM944.246 5.59277V4.59277H943.246V5.59277H944.246ZM1095.53 5.59277H1096.53V4.59277H1095.53V5.59277ZM1169.16 144.936L1168.19 145.174L1168.37 145.936H1169.16V144.936ZM1170.92 144.936V145.936H1171.69L1171.88 145.189L1170.92 144.936ZM1207.39 5.59277V4.59277H1206.62L1206.43 5.33951L1207.39 5.59277ZM1241 5.59277L1241.97 5.33907L1241.77 4.59277H1241V5.59277ZM1277.57 145.027L1276.61 145.281L1276.8 146.027H1277.57V145.027ZM1279.24 145.027V146.027H1280.03L1280.21 145.265L1279.24 145.027ZM1313.41 5.59277V4.59277H1312.62L1312.43 5.35479L1313.41 5.59277ZM1350.35 5.59277L1351.31 5.86439L1351.67 4.59277H1350.35V5.59277ZM1296.83 195.209V196.209H1297.59L1297.79 195.481L1296.83 195.209ZM1262.95 195.209L1261.98 195.483L1262.19 196.209H1262.95V195.209ZM1224.99 62.1631L1225.95 61.8887L1225.74 61.1631H1224.99V62.1631ZM1223.5 62.1631V61.1631H1222.75L1222.54 61.8881L1223.5 62.1631ZM1185.45 195.209V196.209H1186.21L1186.41 195.484L1185.45 195.209ZM1151.56 195.209L1150.6 195.481L1150.81 196.209H1151.56V195.209ZM1098.05 5.59277V4.59277H1096.73L1097.09 5.86439L1098.05 5.59277ZM1134.99 5.59277L1135.96 5.35465L1135.78 4.59277H1134.99V5.59277ZM1484.45 34.3867V35.3867H1485.45V34.3867H1484.45ZM1395.48 34.3867V33.3867H1394.48V34.3867H1395.48ZM1395.48 85.8652H1394.48V86.8652H1395.48V85.8652ZM1478.07 85.8652H1479.07V84.8652H1478.07V85.8652ZM1478.07 114.659V115.659H1479.07V114.659H1478.07ZM1395.48 114.659V113.659H1394.48V114.659H1395.48ZM1395.48 166.415H1394.48V167.415H1395.48V166.415ZM1485.19 166.415H1486.19V165.415H1485.19V166.415ZM1485.19 195.209V196.209H1486.19V195.209H1485.19ZM1361.13 195.209H1360.13V196.209H1361.13V195.209ZM1361.13 5.59277V4.59277H1360.13V5.59277H1361.13ZM1484.45 5.59277H1485.45V4.59277H1484.45V5.59277ZM1579.05 5.59277V4.59277V4.59277V5.59277ZM1613.21 12.0742L1612.78 12.9771L1612.79 12.9806L1613.21 12.0742ZM1633.68 29.5723L1632.82 30.092L1632.82 30.0972L1633.68 29.5723ZM1640.53 54.7559H1641.53V54.7559L1640.53 54.7559ZM1636.08 74.5693L1636.96 75.0482L1636.96 75.044L1636.08 74.5693ZM1624.14 87.8096L1624.7 88.6369V88.6369L1624.14 87.8096ZM1607.38 95.124L1607.15 94.1516L1606.38 94.3356V95.124H1607.38ZM1607.38 96.9756H1606.38V97.9221L1607.33 97.9741L1607.38 96.9756ZM1626.73 103.179L1626.21 104.032L1626.22 104.038L1626.73 103.179ZM1642.01 118.918L1642.87 118.415V118.415L1642.01 118.918ZM1647.93 143.546H1648.93V143.546H1647.93ZM1640.8 170.026L1641.66 170.548L1641.66 170.545L1640.8 170.026ZM1619.32 188.45L1619.75 189.355V189.355L1619.32 188.45ZM1506.46 195.209H1505.46V196.209H1506.46V195.209ZM1506.46 5.59277V4.59277H1505.46V5.59277H1506.46ZM1540.81 166.508H1539.81V167.508H1540.81V166.508ZM1604.7 159.379L1605.35 160.135L1605.35 160.135L1604.7 159.379ZM1613.03 140.861H1614.03V140.861H1613.03ZM1608.86 125.677L1608.01 126.196L1608.01 126.202L1608.86 125.677ZM1597.01 114.938L1596.55 115.825L1596.56 115.83L1597.01 114.938ZM1540.81 110.956V109.956H1539.81V110.956H1540.81ZM654.42 120.862L653.472 120.544L653.03 121.862H654.42V120.862ZM707.184 120.862V121.862H708.575L708.132 120.544L707.184 120.862ZM681.519 44.4795L682.466 44.161L682.237 43.4795H681.519V44.4795ZM680.037 44.4795V43.4795H679.318L679.089 44.1615L680.037 44.4795ZM41.3496 97.2529H40.3496V98.2529H41.3496V97.2529ZM93.9385 93.7354L94.3349 94.6535L94.3437 94.6496L93.9385 93.7354ZM105.975 83.2725L105.107 82.7751L105.105 82.7789L105.975 83.2725ZM109.956 66.2363H110.956V66.2363L109.956 66.2363ZM105.975 49.0156L105.099 49.4984L105.102 49.5032L105.975 49.0156ZM93.8457 38.0908L93.4234 38.9973L93.4319 39.0012L93.8457 38.0908ZM72.8291 34.2949V33.2949V33.2949V34.2949ZM41.3496 34.2949V33.2949H40.3496V34.2949H41.3496ZM482.949 97.2529H481.949V98.2529H482.949V97.2529ZM535.538 93.7354L535.935 94.6535L535.943 94.6496L535.538 93.7354ZM547.574 83.2725L546.707 82.7751L546.705 82.7789L547.574 83.2725ZM551.556 66.2363H552.556V66.2363L551.556 66.2363ZM547.574 49.0156L546.698 49.4984L546.701 49.5032L547.574 49.0156ZM535.445 38.0908L535.023 38.9973L535.031 39.0012L535.445 38.0908ZM514.429 34.2949V33.2949V33.2949V34.2949ZM482.949 34.2949V33.2949H481.949V34.2949H482.949ZM1540.81 86.2354H1539.81V87.2354H1540.81V86.2354ZM1574.79 86.2354V87.2354V87.2354V86.2354ZM1590.81 82.9951L1591.22 83.9055L1591.23 83.901L1590.81 82.9951ZM1602.01 73.6436L1601.18 73.0802L1601.18 73.083L1602.01 73.6436ZM1606.18 59.2002H1607.18V59.2002H1606.18ZM1598.4 41.0537L1597.72 41.7868L1597.72 41.7909L1598.4 41.0537ZM1575.53 33.9238V32.9238V32.9238V33.9238ZM1540.81 33.9238V32.9238H1539.81V33.9238H1540.81ZM853.887 3V4C864.347 4 874.055 5.4682 883.019 8.39494L883.329 7.44434L883.64 6.49373C874.456 3.49502 864.536 2 853.887 2V3ZM883.329 7.44434L883.019 8.39494C891.982 11.3216 899.959 15.6163 906.958 21.2766L907.587 20.499L908.216 19.7215C901.018 13.9011 892.823 9.49256 883.64 6.49373L883.329 7.44434ZM907.587 20.499L906.962 21.2799C913.954 26.8735 919.704 33.7454 924.211 41.9063L925.086 41.4229L925.961 40.9394C921.333 32.5585 915.416 25.4817 908.212 19.7182L907.587 20.499ZM925.086 41.4229L924.215 41.914C928.774 49.9993 931.763 59.2574 933.168 69.7026L934.159 69.5693L935.15 69.436C933.716 58.7717 930.656 49.265 925.957 40.9317L925.086 41.4229ZM934.159 69.5693V68.5693H899.532V69.5693V70.5693H934.159V69.5693ZM899.532 69.5693L900.517 69.398C899.511 63.612 897.651 58.4608 894.925 53.9595L894.069 54.4775L893.214 54.9956C895.796 59.259 897.578 64.1695 898.547 69.7407L899.532 69.5693ZM894.069 54.4775L894.928 53.9648C892.213 49.4185 888.829 45.5591 884.779 42.3946L884.163 43.1826L883.547 43.9706C887.397 46.9783 890.618 50.6489 893.211 54.9903L894.069 54.4775ZM884.163 43.1826L884.779 42.3946C880.726 39.2287 876.108 36.8586 870.936 35.2817L870.645 36.2383L870.353 37.1948C875.303 38.7041 879.699 40.9642 883.547 43.9706L884.163 43.1826ZM870.645 36.2383L870.95 35.2861C865.842 33.6466 860.337 32.8311 854.442 32.8311V33.8311V34.8311C860.151 34.8311 865.448 35.6205 870.339 37.1904L870.645 36.2383ZM854.442 33.8311V32.8311C843.958 32.8311 834.63 35.471 826.491 40.7704L827.037 41.6084L827.583 42.4464C835.369 37.3764 844.311 34.8311 854.442 34.8311V33.8311ZM827.037 41.6084L826.496 40.7674C818.348 46.0098 811.996 53.7007 807.423 63.7863L808.334 64.1992L809.245 64.6122C813.684 54.8226 819.801 47.4532 827.578 42.4494L827.037 41.6084ZM808.334 64.1992L807.424 63.7841C802.843 73.8243 800.575 86.0419 800.575 100.4H801.575H802.575C802.575 86.2426 804.813 74.3257 809.244 64.6143L808.334 64.1992ZM801.575 100.4H800.575C800.575 115.003 802.843 127.375 807.423 137.477L808.334 137.064L809.245 136.652C804.814 126.879 802.575 114.807 802.575 100.4H801.575ZM808.334 137.064L807.426 137.484C812.061 147.505 818.412 155.133 826.498 160.313L827.037 159.471L827.577 158.629C819.861 153.686 813.742 146.376 809.242 136.645L808.334 137.064ZM827.037 159.471L826.505 160.318C834.641 165.426 843.933 167.971 854.35 167.971V166.971V165.971C844.274 165.971 835.358 163.514 827.569 158.624L827.037 159.471ZM854.35 166.971V167.971C860.116 167.971 865.522 167.218 870.562 165.706L870.274 164.748L869.987 163.79C865.151 165.241 859.941 165.971 854.35 165.971V166.971ZM870.274 164.748L870.569 165.704C875.672 164.129 880.252 161.825 884.299 158.789L883.699 157.989L883.099 157.189C879.246 160.079 874.876 162.281 869.979 163.793L870.274 164.748ZM883.699 157.989L884.293 158.794C888.408 155.755 891.858 152.021 894.639 147.597L893.792 147.064L892.945 146.532C890.294 150.75 887.015 154.298 883.105 157.185L883.699 157.989ZM893.792 147.064L894.633 147.605C897.487 143.166 899.444 138.104 900.515 132.436L899.532 132.25L898.55 132.064C897.522 137.506 895.652 142.322 892.951 146.524L893.792 147.064ZM899.532 132.25L899.527 133.25L934.154 133.436L934.159 132.436L934.165 131.436L899.538 131.25L899.532 132.25ZM934.159 132.436L933.169 132.293C931.89 141.188 929.119 149.529 924.856 157.324L925.733 157.804L926.611 158.284C930.989 150.277 933.836 141.707 935.149 132.578L934.159 132.436ZM925.733 157.804L924.853 157.329C920.652 165.122 915.142 172.004 908.317 177.976L908.976 178.729L909.634 179.481C916.635 173.355 922.297 166.287 926.614 158.278L925.733 157.804ZM908.976 178.729L908.321 177.973C901.506 183.875 893.527 188.506 884.374 191.863L884.718 192.802L885.062 193.741C894.425 190.307 902.619 185.557 909.63 179.484L908.976 178.729ZM884.718 192.802L884.379 191.861C875.244 195.149 865.083 196.802 853.887 196.802V197.802V198.802C865.281 198.802 875.675 197.12 885.057 193.743L884.718 192.802ZM853.887 197.802V196.802C837.382 196.802 822.685 192.983 809.769 185.367L809.261 186.229L808.753 187.09C822.007 194.905 837.061 198.802 853.887 198.802V197.802ZM809.261 186.229L809.769 185.367C796.858 177.755 786.676 166.759 779.225 152.345L778.337 152.805L777.449 153.264C785.058 167.984 795.492 179.271 808.753 187.09L809.261 186.229ZM778.337 152.805L779.225 152.345C771.784 137.951 768.041 120.648 768.041 100.4H767.041H766.041C766.041 120.891 769.829 138.525 777.449 153.264L778.337 152.805ZM767.041 100.4H768.041C768.041 80.0922 771.814 62.7916 779.315 48.4608L778.429 47.9971L777.543 47.5333C769.86 62.2127 766.041 79.8477 766.041 100.4H767.041ZM778.429 47.9971L779.315 48.4593C786.828 34.0443 797.042 23.0474 809.953 15.4347L809.445 14.5732L808.937 13.7118C795.678 21.5301 785.213 32.8162 777.542 47.5349L778.429 47.9971ZM809.445 14.5732L809.953 15.4347C822.871 7.81788 837.507 4.00003 853.887 4V3V2C837.182 2.00003 822.19 5.89763 808.937 13.7118L809.445 14.5732ZM78.1064 5.59277V6.59277C92.5624 6.5928 104.617 9.10452 114.314 14.0745L114.771 13.1846L115.227 12.2946C105.173 7.14192 92.7841 4.5928 78.1064 4.59277V5.59277ZM114.771 13.1846L114.317 14.0757C124.089 19.0529 131.436 26.0155 136.394 34.9641L137.269 34.4795L138.143 33.9948C132.979 24.6734 125.327 17.4389 115.224 12.2935L114.771 13.1846ZM137.269 34.4795L136.398 34.9712C141.423 43.8719 143.953 54.2829 143.953 66.2363L144.953 66.2363L145.953 66.2363C145.953 53.9943 143.36 43.2338 138.139 33.9878L137.269 34.4795ZM144.953 66.2363H143.953C143.953 78.2511 141.393 88.6273 136.31 97.4001L137.176 97.9014L138.041 98.4026C143.329 89.2754 145.953 78.5409 145.953 66.2363H144.953ZM137.176 97.9014L136.309 97.402C131.294 106.103 123.89 112.853 114.054 117.649L114.492 118.548L114.931 119.447C125.093 114.491 132.811 107.476 138.042 98.4007L137.176 97.9014ZM114.492 118.548L114.058 117.647C112.908 118.201 111.725 118.721 110.51 119.211L110.884 120.139L111.258 121.066C112.511 120.561 113.734 120.023 114.926 119.449L114.492 118.548ZM110.884 120.139L110.006 120.618L151.02 195.688L151.897 195.209L152.775 194.73L111.761 119.659L110.884 120.139ZM151.897 195.209V194.209H113.566V195.209V196.209H151.897V195.209ZM113.566 195.209L114.448 194.736L77.1839 125.297L76.3027 125.77L75.4216 126.242L112.685 195.682L113.566 195.209ZM76.3027 125.77V124.77H41.3496V125.77V126.77H76.3027V125.77ZM41.3496 125.77H40.3496V195.209H41.3496H42.3496V125.77H41.3496ZM41.3496 195.209V194.209H7V195.209V196.209H41.3496V195.209ZM7 195.209H8V5.59277H7H6V195.209H7ZM7 5.59277V6.59277H78.1064V5.59277V4.59277H7V5.59277ZM286.86 34.3867V33.3867H197.885V34.3867V35.3867H286.86V34.3867ZM197.885 34.3867H196.885V85.8652H197.885H198.885V34.3867H197.885ZM197.885 85.8652V86.8652H280.472V85.8652V84.8652H197.885V85.8652ZM280.472 85.8652H279.472V114.659H280.472H281.472V85.8652H280.472ZM280.472 114.659V113.659H197.885V114.659V115.659H280.472V114.659ZM197.885 114.659H196.885V166.415H197.885H198.885V114.659H197.885ZM197.885 166.415V167.415H287.601V166.415V165.415H197.885V166.415ZM287.601 166.415H286.601V195.209H287.601H288.601V166.415H287.601ZM287.601 195.209V194.209H163.535V195.209V196.209H287.601V195.209ZM163.535 195.209H164.535V5.59277H163.535H162.535V195.209H163.535ZM163.535 5.59277V6.59277H286.86V5.59277V4.59277H163.535V5.59277ZM286.86 5.59277H285.86V34.3867H286.86H287.86V5.59277H286.86ZM430.341 34.3867V33.3867H343.217V34.3867V35.3867H430.341V34.3867ZM343.217 34.3867H342.217V85.8652H343.217H344.217V34.3867H343.217ZM343.217 85.8652V86.8652H422.008V85.8652V84.8652H343.217V85.8652ZM422.008 85.8652H421.008V114.659H422.008H423.008V85.8652H422.008ZM422.008 114.659V113.659H343.217V114.659V115.659H422.008V114.659ZM343.217 114.659H342.217V195.209H343.217H344.217V114.659H343.217ZM343.217 195.209V194.209H308.867V195.209V196.209H343.217V195.209ZM308.867 195.209H309.867V5.59277H308.867H307.867V195.209H308.867ZM308.867 5.59277V6.59277H430.341V5.59277V4.59277H308.867V5.59277ZM430.341 5.59277H429.341V34.3867H430.341H431.341V5.59277H430.341ZM519.706 5.59277V6.59277C534.162 6.5928 546.216 9.10453 555.914 14.0745L556.37 13.1846L556.826 12.2946C546.772 7.14193 534.384 4.5928 519.706 4.59277V5.59277ZM556.37 13.1846L555.916 14.0757C565.689 19.0529 573.035 26.0155 577.993 34.9641L578.868 34.4795L579.743 33.9948C574.578 24.6734 566.926 17.4389 556.824 12.2935L556.37 13.1846ZM578.868 34.4795L577.997 34.9712C583.023 43.8719 585.553 54.2829 585.553 66.2363L586.553 66.2363L587.553 66.2363C587.553 53.9943 584.959 43.2338 579.739 33.9878L578.868 34.4795ZM586.553 66.2363H585.553C585.553 78.2511 582.992 88.6273 577.91 97.4001L578.775 97.9014L579.641 98.4026C584.928 89.2754 587.553 78.5409 587.553 66.2363H586.553ZM578.775 97.9014L577.909 97.402C572.894 106.103 565.489 112.853 555.654 117.649L556.092 118.548L556.53 119.447C566.693 114.491 574.411 107.476 579.642 98.4007L578.775 97.9014ZM556.092 118.548L555.658 117.647C554.508 118.201 553.324 118.721 552.109 119.211L552.483 120.139L552.858 121.066C554.11 120.561 555.333 120.023 556.526 119.449L556.092 118.548ZM552.483 120.139L551.606 120.618L592.208 194.936L593.086 194.456L593.964 193.977L553.361 119.659L552.483 120.139ZM593.086 194.456L594.029 194.788L660.519 5.92485L659.576 5.59277L658.633 5.2607L592.143 194.124L593.086 194.456ZM659.576 5.59277V6.59277H701.98V5.59277V4.59277H659.576V5.59277ZM701.98 5.59277L701.037 5.92526L767.885 195.541L768.828 195.209L769.771 194.876L702.924 5.26029L701.98 5.59277ZM768.828 195.209V194.209H732.164V195.209V196.209H768.828V195.209ZM732.164 195.209L733.112 194.89L717.402 148.135L716.454 148.453L715.506 148.772L731.216 195.527L732.164 195.209ZM716.454 148.453V147.453H645.166V148.453V149.453H716.454V148.453ZM645.166 148.453L644.218 148.135L628.537 194.891L629.485 195.209L630.433 195.527L646.114 148.771L645.166 148.453ZM629.485 195.209V194.209H555.166V195.209V196.209H629.485V195.209ZM555.166 195.209L556.047 194.736L518.783 125.297L517.902 125.77L517.021 126.242L554.285 195.682L555.166 195.209ZM517.902 125.77V124.77H482.949V125.77V126.77H517.902V125.77ZM482.949 125.77H481.949V195.209H482.949H483.949V125.77H482.949ZM482.949 195.209V194.209H448.6V195.209V196.209H482.949V195.209ZM448.6 195.209H449.6V5.59277H448.6H447.6V195.209H448.6ZM448.6 5.59277V6.59277H519.706V5.59277V4.59277H448.6V5.59277ZM1095.53 34.3867V33.3867H1036.92V34.3867V35.3867H1095.53V34.3867ZM1036.92 34.3867H1035.92V195.209H1036.92H1037.92V34.3867H1036.92ZM1036.92 195.209V194.209H1002.85V195.209V196.209H1036.92V195.209ZM1002.85 195.209H1003.85V34.3867H1002.85H1001.85V195.209H1002.85ZM1002.85 34.3867V33.3867H944.246V34.3867V35.3867H1002.85V34.3867ZM944.246 34.3867H945.246V5.59277H944.246H943.246V34.3867H944.246ZM944.246 5.59277V6.59277H1095.53V5.59277V4.59277H944.246V5.59277ZM1095.53 5.59277H1094.53V34.3867H1095.53H1096.53V5.59277H1095.53ZM1169.16 144.936V145.936H1170.92V144.936V143.936H1169.16V144.936ZM1170.92 144.936L1171.88 145.189L1208.36 5.84604L1207.39 5.59277L1206.43 5.33951L1169.95 144.682L1170.92 144.936ZM1207.39 5.59277V6.59277H1241V5.59277V4.59277H1207.39V5.59277ZM1241 5.59277L1240.04 5.84648L1276.61 145.281L1277.57 145.027L1278.54 144.774L1241.97 5.33907L1241 5.59277ZM1277.57 145.027V146.027H1279.24V145.027V144.027H1277.57V145.027ZM1279.24 145.027L1280.21 145.265L1314.38 5.83075L1313.41 5.59277L1312.43 5.35479L1278.27 144.789L1279.24 145.027ZM1313.41 5.59277V6.59277H1350.35V5.59277V4.59277H1313.41V5.59277ZM1350.35 5.59277L1349.39 5.32115L1295.87 194.937L1296.83 195.209L1297.79 195.481L1351.31 5.86439L1350.35 5.59277ZM1296.83 195.209V194.209H1262.95V195.209V196.209H1296.83V195.209ZM1262.95 195.209L1263.91 194.935L1225.95 61.8887L1224.99 62.1631L1224.02 62.4375L1261.98 195.483L1262.95 195.209ZM1224.99 62.1631V61.1631H1223.5V62.1631V63.1631H1224.99V62.1631ZM1223.5 62.1631L1222.54 61.8881L1184.49 194.934L1185.45 195.209L1186.41 195.484L1224.47 62.4381L1223.5 62.1631ZM1185.45 195.209V194.209H1151.56V195.209V196.209H1185.45V195.209ZM1151.56 195.209L1152.53 194.937L1099.01 5.32116L1098.05 5.59277L1097.09 5.86439L1150.6 195.481L1151.56 195.209ZM1098.05 5.59277V6.59277H1134.99V5.59277V4.59277H1098.05V5.59277ZM1134.99 5.59277L1134.02 5.8309L1168.19 145.174L1169.16 144.936L1170.13 144.697L1135.96 5.35465L1134.99 5.59277ZM1484.45 34.3867V33.3867H1395.48V34.3867V35.3867H1484.45V34.3867ZM1395.48 34.3867H1394.48V85.8652H1395.48H1396.48V34.3867H1395.48ZM1395.48 85.8652V86.8652H1478.07V85.8652V84.8652H1395.48V85.8652ZM1478.07 85.8652H1477.07V114.659H1478.07H1479.07V85.8652H1478.07ZM1478.07 114.659V113.659H1395.48V114.659V115.659H1478.07V114.659ZM1395.48 114.659H1394.48V166.415H1395.48H1396.48V114.659H1395.48ZM1395.48 166.415V167.415H1485.19V166.415V165.415H1395.48V166.415ZM1485.19 166.415H1484.19V195.209H1485.19H1486.19V166.415H1485.19ZM1485.19 195.209V194.209H1361.13V195.209V196.209H1485.19V195.209ZM1361.13 195.209H1362.13V5.59277H1361.13H1360.13V195.209H1361.13ZM1361.13 5.59277V6.59277H1484.45V5.59277V4.59277H1361.13V5.59277ZM1484.45 5.59277H1483.45V34.3867H1484.45H1485.45V5.59277H1484.45ZM1579.05 5.59277V6.59277C1592.65 6.5928 1603.88 8.73921 1612.78 12.9771L1613.21 12.0742L1613.64 11.1714C1604.4 6.76792 1592.85 4.59281 1579.05 4.59277V5.59277ZM1613.21 12.0742L1612.79 12.9806C1621.78 17.17 1628.43 22.88 1632.82 30.092L1633.68 29.5723L1634.53 29.0525C1629.91 21.451 1622.92 15.4963 1613.64 11.1679L1613.21 12.0742ZM1633.68 29.5723L1632.82 30.0972C1637.29 37.3338 1639.53 45.5441 1639.53 54.7559L1640.53 54.7559L1641.53 54.7559C1641.53 45.2036 1639.2 36.6244 1634.53 29.0474L1633.68 29.5723ZM1640.53 54.7559H1639.53C1639.53 62.3442 1638.07 68.7777 1635.2 74.0947L1636.08 74.5693L1636.96 75.044C1640.02 69.3742 1641.53 62.5983 1641.53 54.7559H1640.53ZM1636.08 74.5693L1635.21 74.0905C1632.32 79.386 1628.44 83.679 1623.58 86.9823L1624.14 87.8096L1624.7 88.6369C1629.83 85.1505 1633.92 80.6161 1636.96 75.0482L1636.08 74.5693ZM1624.14 87.8096L1623.58 86.9823C1618.68 90.3059 1613.21 92.697 1607.15 94.1516L1607.38 95.124L1607.61 96.0964C1613.9 94.5883 1619.6 92.1027 1624.7 88.6369L1624.14 87.8096ZM1607.38 95.124H1606.38V96.9756H1607.38H1608.38V95.124H1607.38ZM1607.38 96.9756L1607.33 97.9741C1613.88 98.3347 1620.17 100.347 1626.21 104.032L1626.73 103.179L1627.25 102.325C1620.95 98.4803 1614.34 96.3572 1607.44 95.9771L1607.38 96.9756ZM1626.73 103.179L1626.22 104.038C1632.3 107.648 1637.27 112.766 1641.14 119.421L1642.01 118.918L1642.87 118.415C1638.84 111.491 1633.63 106.116 1627.24 102.319L1626.73 103.179ZM1642.01 118.918L1641.14 119.421C1644.99 126.027 1646.93 134.054 1646.93 143.546H1647.93H1648.93C1648.93 133.78 1646.93 125.388 1642.87 118.415L1642.01 118.918ZM1647.93 143.546H1646.93C1646.93 153.191 1644.6 161.836 1639.95 169.508L1640.8 170.026L1641.66 170.545C1646.51 162.538 1648.93 153.529 1648.93 143.546H1647.93ZM1640.8 170.026L1639.95 169.505C1635.32 177.09 1628.32 183.109 1618.9 187.546L1619.32 188.45L1619.75 189.355C1629.47 184.779 1636.79 178.517 1641.66 170.548L1640.8 170.026ZM1619.32 188.45L1618.9 187.546C1609.5 191.97 1597.63 194.209 1583.22 194.209V195.209V196.209C1597.82 196.209 1610.01 193.942 1619.75 189.355L1619.32 188.45ZM1583.22 195.209V194.209H1506.46V195.209V196.209H1583.22V195.209ZM1506.46 195.209H1507.46V5.59277H1506.46H1505.46V195.209H1506.46ZM1506.46 5.59277V6.59277H1579.05V5.59277V4.59277H1506.46V5.59277ZM1540.81 166.508V167.508H1577.75V166.508V165.508H1540.81V166.508ZM1577.75 166.508V167.508C1590.3 167.508 1599.58 165.124 1605.35 160.135L1604.7 159.379L1604.04 158.623C1598.82 163.139 1590.14 165.508 1577.75 165.508V166.508ZM1604.7 159.379L1605.35 160.135C1611.13 155.125 1614.03 148.673 1614.03 140.861H1613.03H1612.03C1612.03 148.11 1609.37 154.004 1604.04 158.623L1604.7 159.379ZM1613.03 140.861H1614.03C1614.03 135.071 1612.59 129.825 1609.71 125.152L1608.86 125.677L1608.01 126.202C1610.69 130.54 1612.03 135.418 1612.03 140.861H1613.03ZM1608.86 125.677L1609.72 125.157C1606.84 120.419 1602.74 116.715 1597.46 114.045L1597.01 114.938L1596.56 115.83C1601.53 118.344 1605.33 121.8 1608.01 126.196L1608.86 125.677ZM1597.01 114.938L1597.47 114.05C1592.18 111.307 1585.9 109.956 1578.68 109.956V110.956V111.956C1585.65 111.956 1591.6 113.26 1596.55 115.825L1597.01 114.938ZM1578.68 110.956V109.956H1540.81V110.956V111.956H1578.68V110.956ZM1540.81 110.956H1539.81V166.508H1540.81H1541.81V110.956H1540.81ZM654.42 120.862V121.862H707.184V120.862V119.862H654.42V120.862ZM707.184 120.862L708.132 120.544L682.466 44.161L681.519 44.4795L680.571 44.798L706.236 121.181L707.184 120.862ZM681.519 44.4795V43.4795H680.037V44.4795V45.4795H681.519V44.4795ZM680.037 44.4795L679.089 44.1615L653.472 120.544L654.42 120.862L655.368 121.18L680.985 44.7975L680.037 44.4795ZM41.3496 97.2529V98.2529H73.0137V97.2529V96.2529H41.3496V97.2529ZM73.0137 97.2529V98.2529C81.6125 98.2529 88.7356 97.0712 94.3349 94.6534L93.9385 93.7354L93.542 92.8173C88.2779 95.0904 81.4505 96.2529 73.0137 96.2529V97.2529ZM93.9385 93.7354L94.3437 94.6496C99.9445 92.1674 104.132 88.544 106.844 83.7661L105.975 83.2725L105.105 82.7789C102.632 87.1361 98.7959 90.4888 93.5333 92.8211L93.9385 93.7354ZM105.975 83.2725L106.842 83.7698C109.603 78.9545 110.956 73.0939 110.956 66.2363H109.956H108.956C108.956 72.8345 107.655 78.3318 105.107 82.7751L105.975 83.2725ZM109.956 66.2363L110.956 66.2363C110.956 59.3777 109.602 53.461 106.848 48.5281L105.975 49.0156L105.102 49.5032C107.655 54.0756 108.956 59.6395 108.956 66.2363L109.956 66.2363ZM105.975 49.0156L106.85 48.5328C104.083 43.5135 99.8694 39.7304 94.2595 37.1805L93.8457 38.0908L93.4319 39.0012C98.6853 41.3891 102.558 44.8889 105.099 49.4984L105.975 49.0156ZM93.8457 38.0908L94.268 37.1844C88.6598 34.5715 81.4961 33.295 72.8291 33.2949V34.2949V35.2949C81.3211 35.2949 88.1683 36.5489 93.4234 38.9973L93.8457 38.0908ZM72.8291 34.2949V33.2949H41.3496V34.2949V35.2949H72.8291V34.2949ZM41.3496 34.2949H40.3496V97.2529H41.3496H42.3496V34.2949H41.3496ZM482.949 97.2529V98.2529H514.613V97.2529V96.2529H482.949V97.2529ZM514.613 97.2529V98.2529C523.212 98.2529 530.335 97.0712 535.935 94.6534L535.538 93.7354L535.142 92.8173C529.878 95.0904 523.05 96.2529 514.613 96.2529V97.2529ZM535.538 93.7354L535.943 94.6496C541.544 92.1674 545.732 88.544 548.444 83.7661L547.574 83.2725L546.705 82.7789C544.232 87.1361 540.396 90.4888 535.133 92.8211L535.538 93.7354ZM547.574 83.2725L548.442 83.7698C551.203 78.9545 552.556 73.0939 552.556 66.2363H551.556H550.556C550.556 72.8345 549.254 78.3318 546.707 82.7751L547.574 83.2725ZM551.556 66.2363L552.556 66.2363C552.556 59.3777 551.202 53.461 548.447 48.5281L547.574 49.0156L546.701 49.5032C549.255 54.0756 550.556 59.6395 550.556 66.2363L551.556 66.2363ZM547.574 49.0156L548.45 48.5328C545.683 43.5135 541.469 39.7304 535.859 37.1805L535.445 38.0908L535.031 39.0012C540.285 41.3891 544.157 44.8889 546.698 49.4984L547.574 49.0156ZM535.445 38.0908L535.868 37.1844C530.259 34.5715 523.096 33.295 514.429 33.2949V34.2949V35.2949C522.921 35.2949 529.768 36.5489 535.023 38.9973L535.445 38.0908ZM514.429 34.2949V33.2949H482.949V34.2949V35.2949H514.429V34.2949ZM482.949 34.2949H481.949V97.2529H482.949H483.949V34.2949H482.949ZM1540.81 86.2354V87.2354H1574.79V86.2354V85.2354H1540.81V86.2354ZM1574.79 86.2354V87.2354C1580.84 87.2353 1586.32 86.1322 1591.22 83.9055L1590.81 82.9951L1590.39 82.0847C1585.79 84.1784 1580.59 85.2353 1574.79 85.2354V86.2354ZM1590.81 82.9951L1591.23 83.901C1596.13 81.609 1600.01 78.378 1602.84 74.2041L1602.01 73.6436L1601.18 73.083C1598.58 76.9332 1594.99 79.9371 1590.38 82.0892L1590.81 82.9951ZM1602.01 73.6436L1602.84 74.2069C1605.74 69.9466 1607.18 64.93 1607.18 59.2002H1606.18H1605.18C1605.18 64.5807 1603.83 69.193 1601.18 73.0802L1602.01 73.6436ZM1606.18 59.2002H1607.18C1607.18 51.5889 1604.48 45.2679 1599.08 40.3166L1598.4 41.0537L1597.72 41.7909C1602.69 46.3449 1605.18 52.1215 1605.18 59.2002H1606.18ZM1598.4 41.0537L1599.08 40.3206C1593.7 35.3329 1585.79 32.9238 1575.53 32.9238V33.9238V34.9238C1585.51 34.9238 1592.85 37.2691 1597.72 41.7868L1598.4 41.0537ZM1575.53 33.9238V32.9238H1540.81V33.9238V34.9238H1575.53V33.9238ZM1540.81 33.9238H1539.81V86.2354H1540.81H1541.81V33.9238H1540.81Z" fill="white" mask="url(#path-1-outside-1_22_56)"/>
</g>
<defs>
<filter id="filter0_dii_22_56" x="0" y="-2" width="1654.93" height="210.802" filterUnits="userSpaceOnUse" color-interpolation-filters="sRGB">
<feFlood flood-opacity="0" result="BackgroundImageFix"/>
<feColorMatrix in="SourceAlpha" type="matrix" values="0 0 0 0 0 0 0 0 0 0 0 0 0 0 0 0 0 0 127 0" result="hardAlpha"/>
<feOffset dy="4"/>
<feGaussianBlur stdDeviation="3"/>
<feComposite in2="hardAlpha" operator="out"/>
<feColorMatrix type="matrix" values="0 0 0 0 0 0 0 0 0 0 0 0 0 0 0 0 0 0 0.4 0"/>
<feBlend mode="normal" in2="BackgroundImageFix" result="effect1_dropShadow_22_56"/>
<feBlend mode="normal" in="SourceGraphic" in2="effect1_dropShadow_22_56" result="shape"/>
<feColorMatrix in="SourceAlpha" type="matrix" values="0 0 0 0 0 0 0 0 0 0 0 0 0 0 0 0 0 0 127 0" result="hardAlpha"/>
<feOffset dy="1"/>
<feComposite in2="hardAlpha" operator="arithmetic" k2="-1" k3="1"/>
<feColorMatrix type="matrix" values="0 0 0 0 1 0 0 0 0 1 0 0 0 0 1 0 0 0 0.4 0"/>
<feBlend mode="normal" in2="shape" result="effect2_innerShadow_22_56"/>
<feColorMatrix in="SourceAlpha" type="matrix" values="0 0 0 0 0 0 0 0 0 0 0 0 0 0 0 0 0 0 127 0" result="hardAlpha"/>
<feOffset dy="-6"/>
<feGaussianBlur stdDeviation="2"/>
<feComposite in2="hardAlpha" operator="arithmetic" k2="-1" k3="1"/>
<feColorMatrix type="matrix" values="0 0 0 0 0 0 0 0 0 0 0 0 0 0 0 0 0 0 0.2 0"/>
<feBlend mode="normal" in2="effect2_innerShadow_22_56" result="effect3_innerShadow_22_56"/>
</filter>
<radialGradient id="paint0_radial_22_56" cx="0" cy="0" r="1" gradientUnits="userSpaceOnUse" gradientTransform="translate(827.467 207.54) rotate(-90) scale(168.437 936.049)">
<stop stop-color="#F59768"/>
<stop offset="1" stop-color="#B05D41"/>
</radialGradient>
</defs>
</svg>
