<svg width="1643" height="197" viewBox="0 0 1643 197" fill="none" xmlns="http://www.w3.org/2000/svg">
<mask id="path-1-outside-1_22_56" maskUnits="userSpaceOnUse" x="0" y="0" width="1643" height="197" fill="black">
<rect fill="white" width="1643" height="197"/>
<path d="M847.887 1C858.442 1 868.256 2.48161 877.329 5.44434C886.403 8.4071 894.489 12.7587 901.587 18.499C908.685 24.1776 914.518 31.152 919.086 39.4229C923.715 47.6321 926.74 57.0146 928.159 67.5693H893.532C892.545 61.8908 890.723 56.8599 888.069 52.4775C885.415 48.0337 882.113 44.2687 878.163 41.1826C874.213 38.0964 869.706 35.7814 864.645 34.2383C859.645 32.6336 854.244 31.8311 848.442 31.8311C838.135 31.8311 828.999 34.4237 821.037 39.6084C813.075 44.7315 806.84 52.2617 802.334 62.1992C797.828 72.075 795.575 84.1423 795.575 98.4004C795.575 112.905 797.828 125.127 802.334 135.064C806.902 144.94 813.136 152.409 821.037 157.471C828.999 162.47 838.104 164.971 848.35 164.971C854.028 164.971 859.337 164.229 864.274 162.748C869.274 161.205 873.749 158.952 877.699 155.989C881.711 153.027 885.076 149.385 887.792 145.064C890.57 140.744 892.483 135.805 893.532 130.25L928.159 130.436C926.863 139.447 924.054 147.903 919.733 155.804C915.474 163.704 909.889 170.68 902.976 176.729C896.062 182.716 887.976 187.407 878.718 190.802C869.459 194.135 859.182 195.802 847.887 195.802C831.221 195.802 816.346 191.944 803.261 184.229C790.175 176.513 779.867 165.371 772.337 150.805C764.807 136.238 761.041 118.769 761.041 98.4004C761.041 77.97 764.837 60.5021 772.429 45.9971C780.021 31.4302 790.36 20.2888 803.445 12.5732C816.531 4.85776 831.345 1.00003 847.887 1ZM72.1064 3.59277C86.6732 3.5928 98.8947 6.12322 108.771 11.1846C118.708 16.2459 126.207 23.3444 131.269 32.4795C136.392 41.5528 138.953 52.1386 138.953 64.2363C138.953 76.396 136.361 86.9514 131.176 95.9014C126.053 104.79 118.491 111.672 108.492 116.548C107.321 117.112 106.118 117.641 104.884 118.139L145.897 193.209H107.566L70.3027 123.77H35.3496V193.209H1V3.59277H72.1064ZM280.86 32.3867H191.885V83.8652H274.472V112.659H191.885V164.415H281.601V193.209H157.535V3.59277H280.86V32.3867ZM424.341 32.3867H337.217V83.8652H416.008V112.659H337.217V193.209H302.867V3.59277H424.341V32.3867ZM513.706 3.59277C528.273 3.5928 540.494 6.12323 550.37 11.1846C560.308 16.2459 567.807 23.3444 572.868 32.4795C577.991 41.5528 580.553 52.1386 580.553 64.2363C580.553 76.396 577.96 86.9514 572.775 95.9014C567.652 104.79 560.091 111.672 550.092 116.548C548.921 117.112 547.717 117.641 546.483 118.139L587.086 192.456L653.576 3.59277H695.98L762.828 193.209H726.164L710.454 146.453H639.166L623.485 193.209H549.166L511.902 123.77H476.949V193.209H442.6V3.59277H513.706ZM1089.53 32.3867H1030.92V193.209H996.854V32.3867H938.246V3.59277H1089.53V32.3867ZM1163.16 142.936H1164.92L1201.39 3.59277H1235L1271.57 143.027H1273.24L1307.41 3.59277H1344.35L1290.83 193.209H1256.95L1218.99 60.1631H1217.5L1179.45 193.209H1145.56L1092.05 3.59277H1128.99L1163.16 142.936ZM1478.45 32.3867H1389.48V83.8652H1472.07V112.659H1389.48V164.415H1479.19V193.209H1355.13V3.59277H1478.45V32.3867ZM1573.05 3.59277C1586.75 3.5928 1598.14 5.75356 1607.21 10.0742C1616.35 14.3332 1623.17 20.1655 1627.68 27.5723C1632.24 34.9791 1634.53 43.3739 1634.53 52.7559C1634.53 60.4712 1633.05 67.076 1630.08 72.5693C1627.12 78.0011 1623.14 82.4147 1618.14 85.8096C1613.14 89.2043 1607.55 91.6427 1601.38 93.124V94.9756C1608.11 95.3459 1614.56 97.4135 1620.73 101.179C1626.97 104.882 1632.06 110.129 1636.01 116.918C1639.96 123.708 1641.93 131.917 1641.93 141.546C1641.93 151.36 1639.56 160.187 1634.8 168.026C1630.05 175.803 1622.89 181.944 1613.32 186.45C1603.76 190.956 1591.72 193.209 1577.22 193.209H1500.46V3.59277H1573.05ZM1534.81 164.508H1571.75C1584.22 164.508 1593.2 162.132 1598.7 157.379C1604.25 152.564 1607.03 146.392 1607.03 138.861C1607.03 133.244 1605.64 128.183 1602.86 123.677C1600.08 119.109 1596.13 115.53 1591.01 112.938C1585.89 110.283 1579.78 108.956 1572.68 108.956H1534.81V164.508ZM648.42 118.862H701.184L675.519 42.4795H674.037L648.42 118.862ZM35.3496 95.2529H67.0137C75.5315 95.2529 82.5068 94.0808 87.9385 91.7354C93.3702 89.3281 97.3822 85.84 99.9746 81.2725C102.629 76.6432 103.956 70.9642 103.956 64.2363C103.956 57.5086 102.629 51.7683 99.9746 47.0156C97.3205 42.2012 93.2774 38.5598 87.8457 36.0908C82.414 33.5602 75.4086 32.295 66.8291 32.2949H35.3496V95.2529ZM476.949 95.2529H508.613C517.131 95.2529 524.106 94.0808 529.538 91.7354C534.97 89.3281 538.982 85.84 541.574 81.2725C544.228 76.6432 545.556 70.9642 545.556 64.2363C545.556 57.5086 544.228 51.7683 541.574 47.0156C538.92 42.2012 534.877 38.5598 529.445 36.0908C524.014 33.5602 517.008 32.295 508.429 32.2949H476.949V95.2529ZM1534.81 84.2354H1568.79C1574.72 84.2353 1580.06 83.1553 1584.81 80.9951C1589.56 78.773 1593.29 75.6556 1596.01 71.6436C1598.79 67.5698 1600.18 62.7554 1600.18 57.2002C1600.18 49.8552 1597.58 43.8064 1592.4 39.0537C1587.28 34.301 1579.65 31.9238 1569.53 31.9238H1534.81V84.2354Z"/>
</mask>
<g filter="url(#filter0_ii_22_56)">
<path d="M847.887 1C858.442 1 868.256 2.48161 877.329 5.44434C886.403 8.4071 894.489 12.7587 901.587 18.499C908.685 24.1776 914.518 31.152 919.086 39.4229C923.715 47.6321 926.74 57.0146 928.159 67.5693H893.532C892.545 61.8908 890.723 56.8599 888.069 52.4775C885.415 48.0337 882.113 44.2687 878.163 41.1826C874.213 38.0964 869.706 35.7814 864.645 34.2383C859.645 32.6336 854.244 31.8311 848.442 31.8311C838.135 31.8311 828.999 34.4237 821.037 39.6084C813.075 44.7315 806.84 52.2617 802.334 62.1992C797.828 72.075 795.575 84.1423 795.575 98.4004C795.575 112.905 797.828 125.127 802.334 135.064C806.902 144.94 813.136 152.409 821.037 157.471C828.999 162.47 838.104 164.971 848.35 164.971C854.028 164.971 859.337 164.229 864.274 162.748C869.274 161.205 873.749 158.952 877.699 155.989C881.711 153.027 885.076 149.385 887.792 145.064C890.57 140.744 892.483 135.805 893.532 130.25L928.159 130.436C926.863 139.447 924.054 147.903 919.733 155.804C915.474 163.704 909.889 170.68 902.976 176.729C896.062 182.716 887.976 187.407 878.718 190.802C869.459 194.135 859.182 195.802 847.887 195.802C831.221 195.802 816.346 191.944 803.261 184.229C790.175 176.513 779.867 165.371 772.337 150.805C764.807 136.238 761.041 118.769 761.041 98.4004C761.041 77.97 764.837 60.5021 772.429 45.9971C780.021 31.4302 790.36 20.2888 803.445 12.5732C816.531 4.85776 831.345 1.00003 847.887 1ZM72.1064 3.59277C86.6732 3.5928 98.8947 6.12322 108.771 11.1846C118.708 16.2459 126.207 23.3444 131.269 32.4795C136.392 41.5528 138.953 52.1386 138.953 64.2363C138.953 76.396 136.361 86.9514 131.176 95.9014C126.053 104.79 118.491 111.672 108.492 116.548C107.321 117.112 106.118 117.641 104.884 118.139L145.897 193.209H107.566L70.3027 123.77H35.3496V193.209H1V3.59277H72.1064ZM280.86 32.3867H191.885V83.8652H274.472V112.659H191.885V164.415H281.601V193.209H157.535V3.59277H280.86V32.3867ZM424.341 32.3867H337.217V83.8652H416.008V112.659H337.217V193.209H302.867V3.59277H424.341V32.3867ZM513.706 3.59277C528.273 3.5928 540.494 6.12323 550.37 11.1846C560.308 16.2459 567.807 23.3444 572.868 32.4795C577.991 41.5528 580.553 52.1386 580.553 64.2363C580.553 76.396 577.96 86.9514 572.775 95.9014C567.652 104.79 560.091 111.672 550.092 116.548C548.921 117.112 547.717 117.641 546.483 118.139L587.086 192.456L653.576 3.59277H695.98L762.828 193.209H726.164L710.454 146.453H639.166L623.485 193.209H549.166L511.902 123.77H476.949V193.209H442.6V3.59277H513.706ZM1089.53 32.3867H1030.92V193.209H996.854V32.3867H938.246V3.59277H1089.53V32.3867ZM1163.16 142.936H1164.92L1201.39 3.59277H1235L1271.57 143.027H1273.24L1307.41 3.59277H1344.35L1290.83 193.209H1256.95L1218.99 60.1631H1217.5L1179.45 193.209H1145.56L1092.05 3.59277H1128.99L1163.16 142.936ZM1478.45 32.3867H1389.48V83.8652H1472.07V112.659H1389.48V164.415H1479.19V193.209H1355.13V3.59277H1478.45V32.3867ZM1573.05 3.59277C1586.75 3.5928 1598.14 5.75356 1607.21 10.0742C1616.35 14.3332 1623.17 20.1655 1627.68 27.5723C1632.24 34.9791 1634.53 43.3739 1634.53 52.7559C1634.53 60.4712 1633.05 67.076 1630.08 72.5693C1627.12 78.0011 1623.14 82.4147 1618.14 85.8096C1613.14 89.2043 1607.55 91.6427 1601.38 93.124V94.9756C1608.11 95.3459 1614.56 97.4135 1620.73 101.179C1626.97 104.882 1632.06 110.129 1636.01 116.918C1639.96 123.708 1641.93 131.917 1641.93 141.546C1641.93 151.36 1639.56 160.187 1634.8 168.026C1630.05 175.803 1622.89 181.944 1613.32 186.45C1603.76 190.956 1591.72 193.209 1577.22 193.209H1500.46V3.59277H1573.05ZM1534.81 164.508H1571.75C1584.22 164.508 1593.2 162.132 1598.7 157.379C1604.25 152.564 1607.03 146.392 1607.03 138.861C1607.03 133.244 1605.64 128.183 1602.86 123.677C1600.08 119.109 1596.13 115.53 1591.01 112.938C1585.89 110.283 1579.78 108.956 1572.68 108.956H1534.81V164.508ZM648.42 118.862H701.184L675.519 42.4795H674.037L648.42 118.862ZM35.3496 95.2529H67.0137C75.5315 95.2529 82.5068 94.0808 87.9385 91.7354C93.3702 89.3281 97.3822 85.84 99.9746 81.2725C102.629 76.6432 103.956 70.9642 103.956 64.2363C103.956 57.5086 102.629 51.7683 99.9746 47.0156C97.3205 42.2012 93.2774 38.5598 87.8457 36.0908C82.414 33.5602 75.4086 32.295 66.8291 32.2949H35.3496V95.2529ZM476.949 95.2529H508.613C517.131 95.2529 524.106 94.0808 529.538 91.7354C534.97 89.3281 538.982 85.84 541.574 81.2725C544.228 76.6432 545.556 70.9642 545.556 64.2363C545.556 57.5086 544.228 51.7683 541.574 47.0156C538.92 42.2012 534.877 38.5598 529.445 36.0908C524.014 33.5602 517.008 32.295 508.429 32.2949H476.949V95.2529ZM1534.81 84.2354H1568.79C1574.72 84.2353 1580.06 83.1553 1584.81 80.9951C1589.56 78.773 1593.29 75.6556 1596.01 71.6436C1598.79 67.5698 1600.18 62.7554 1600.18 57.2002C1600.18 49.8552 1597.58 43.8064 1592.4 39.0537C1587.28 34.301 1579.65 31.9238 1569.53 31.9238H1534.81V84.2354Z" fill="url(#paint0_radial_22_56)"/>
</g>
<path d="M847.887 1V0V0V1ZM877.329 5.44434L877.64 4.49373V4.49373L877.329 5.44434ZM901.587 18.499L900.958 19.2766L900.962 19.2799L901.587 18.499ZM919.086 39.4229L918.211 39.9063L918.215 39.914L919.086 39.4229ZM928.159 67.5693V68.5693H929.303L929.15 67.436L928.159 67.5693ZM893.532 67.5693L892.547 67.7407L892.691 68.5693H893.532V67.5693ZM888.069 52.4775L887.211 52.9903L887.214 52.9956L888.069 52.4775ZM878.163 41.1826L878.779 40.3946V40.3946L878.163 41.1826ZM864.645 34.2383L864.339 35.1904L864.346 35.1927L864.353 35.1948L864.645 34.2383ZM848.442 31.8311V30.8311V30.8311V31.8311ZM821.037 39.6084L821.578 40.4494L821.583 40.4464L821.037 39.6084ZM802.334 62.1992L803.244 62.6143L803.245 62.6122L802.334 62.1992ZM795.575 98.4004H794.575V98.4004H795.575ZM802.334 135.064L801.423 135.477L801.426 135.484L802.334 135.064ZM821.037 157.471L820.498 158.313L820.505 158.318L821.037 157.471ZM848.35 164.971V165.971V165.971V164.971ZM864.274 162.748L864.562 163.706L864.569 163.704L864.274 162.748ZM877.699 155.989L877.105 155.185L877.099 155.189L877.699 155.989ZM887.792 145.064L886.951 144.524L886.945 144.532L887.792 145.064ZM893.532 130.25L893.538 129.25L892.704 129.246L892.55 130.064L893.532 130.25ZM928.159 130.436L929.149 130.578L929.312 129.442L928.165 129.436L928.159 130.436ZM919.733 155.804L918.856 155.324L918.853 155.329L919.733 155.804ZM902.976 176.729L903.63 177.484L903.634 177.481L902.976 176.729ZM878.718 190.802L879.057 191.743L879.062 191.741L878.718 190.802ZM847.887 195.802V196.802V196.802V195.802ZM803.261 184.229L802.753 185.09L802.753 185.09L803.261 184.229ZM772.337 150.805L771.449 151.264V151.264L772.337 150.805ZM761.041 98.4004H760.041V98.4004H761.041ZM772.429 45.9971L773.315 46.4608L773.315 46.4593L772.429 45.9971ZM803.445 12.5732L802.937 11.7118V11.7118L803.445 12.5732ZM72.1064 3.59277V2.59277V2.59277V3.59277ZM108.771 11.1846L108.314 12.0745L108.317 12.0757L108.771 11.1846ZM131.269 32.4795L130.394 32.9642L130.398 32.9712L131.269 32.4795ZM138.953 64.2363H139.953V64.2363L138.953 64.2363ZM131.176 95.9014L130.31 95.4001L130.309 95.402L131.176 95.9014ZM108.492 116.548L108.926 117.449L108.931 117.447L108.492 116.548ZM104.884 118.139L104.51 117.211L103.467 117.632L104.006 118.618L104.884 118.139ZM145.897 193.209V194.209H147.583L146.775 192.73L145.897 193.209ZM107.566 193.209L106.685 193.682L106.968 194.209H107.566V193.209ZM70.3027 123.77L71.1839 123.297L70.901 122.77H70.3027V123.77ZM35.3496 123.77V122.77H34.3496V123.77H35.3496ZM35.3496 193.209V194.209H36.3496V193.209H35.3496ZM1 193.209H0V194.209H1V193.209ZM1 3.59277V2.59277H0V3.59277H1ZM280.86 32.3867V33.3867H281.86V32.3867H280.86ZM191.885 32.3867V31.3867H190.885V32.3867H191.885ZM191.885 83.8652H190.885V84.8652H191.885V83.8652ZM274.472 83.8652H275.472V82.8652H274.472V83.8652ZM274.472 112.659V113.659H275.472V112.659H274.472ZM191.885 112.659V111.659H190.885V112.659H191.885ZM191.885 164.415H190.885V165.415H191.885V164.415ZM281.601 164.415H282.601V163.415H281.601V164.415ZM281.601 193.209V194.209H282.601V193.209H281.601ZM157.535 193.209H156.535V194.209H157.535V193.209ZM157.535 3.59277V2.59277H156.535V3.59277H157.535ZM280.86 3.59277H281.86V2.59277H280.86V3.59277ZM424.341 32.3867V33.3867H425.341V32.3867H424.341ZM337.217 32.3867V31.3867H336.217V32.3867H337.217ZM337.217 83.8652H336.217V84.8652H337.217V83.8652ZM416.008 83.8652H417.008V82.8652H416.008V83.8652ZM416.008 112.659V113.659H417.008V112.659H416.008ZM337.217 112.659V111.659H336.217V112.659H337.217ZM337.217 193.209V194.209H338.217V193.209H337.217ZM302.867 193.209H301.867V194.209H302.867V193.209ZM302.867 3.59277V2.59277H301.867V3.59277H302.867ZM424.341 3.59277H425.341V2.59277H424.341V3.59277ZM513.706 3.59277V2.59277V2.59277V3.59277ZM550.37 11.1846L549.914 12.0745L549.916 12.0757L550.37 11.1846ZM572.868 32.4795L571.993 32.9642L571.997 32.9712L572.868 32.4795ZM580.553 64.2363H581.553V64.2363L580.553 64.2363ZM572.775 95.9014L571.91 95.4001L571.909 95.402L572.775 95.9014ZM550.092 116.548L550.526 117.449L550.53 117.447L550.092 116.548ZM546.483 118.139L546.109 117.211L545.067 117.632L545.606 118.618L546.483 118.139ZM587.086 192.456L586.208 192.936L587.284 194.905L588.029 192.788L587.086 192.456ZM653.576 3.59277V2.59277H652.868L652.633 3.2607L653.576 3.59277ZM695.98 3.59277L696.924 3.26029L696.688 2.59277H695.98V3.59277ZM762.828 193.209V194.209H764.241L763.771 192.876L762.828 193.209ZM726.164 193.209L725.216 193.527L725.445 194.209H726.164V193.209ZM710.454 146.453L711.402 146.135L711.173 145.453H710.454V146.453ZM639.166 146.453V145.453H638.447L638.218 146.135L639.166 146.453ZM623.485 193.209V194.209H624.205L624.433 193.527L623.485 193.209ZM549.166 193.209L548.285 193.682L548.568 194.209H549.166V193.209ZM511.902 123.77L512.783 123.297L512.501 122.77H511.902V123.77ZM476.949 123.77V122.77H475.949V123.77H476.949ZM476.949 193.209V194.209H477.949V193.209H476.949ZM442.6 193.209H441.6V194.209H442.6V193.209ZM442.6 3.59277V2.59277H441.6V3.59277H442.6ZM1089.53 32.3867V33.3867H1090.53V32.3867H1089.53ZM1030.92 32.3867V31.3867H1029.92V32.3867H1030.92ZM1030.92 193.209V194.209H1031.92V193.209H1030.92ZM996.854 193.209H995.854V194.209H996.854V193.209ZM996.854 32.3867H997.854V31.3867H996.854V32.3867ZM938.246 32.3867H937.246V33.3867H938.246V32.3867ZM938.246 3.59277V2.59277H937.246V3.59277H938.246ZM1089.53 3.59277H1090.53V2.59277H1089.53V3.59277ZM1163.16 142.936L1162.19 143.174L1162.37 143.936H1163.16V142.936ZM1164.92 142.936V143.936H1165.69L1165.88 143.189L1164.92 142.936ZM1201.39 3.59277V2.59277H1200.62L1200.43 3.33951L1201.39 3.59277ZM1235 3.59277L1235.97 3.33907L1235.77 2.59277H1235V3.59277ZM1271.57 143.027L1270.61 143.281L1270.8 144.027H1271.57V143.027ZM1273.24 143.027V144.027H1274.03L1274.21 143.265L1273.24 143.027ZM1307.41 3.59277V2.59277H1306.62L1306.43 3.35479L1307.41 3.59277ZM1344.35 3.59277L1345.31 3.86439L1345.67 2.59277H1344.35V3.59277ZM1290.83 193.209V194.209H1291.59L1291.79 193.481L1290.83 193.209ZM1256.95 193.209L1255.98 193.483L1256.19 194.209H1256.95V193.209ZM1218.99 60.1631L1219.95 59.8887L1219.74 59.1631H1218.99V60.1631ZM1217.5 60.1631V59.1631H1216.75L1216.54 59.8881L1217.5 60.1631ZM1179.45 193.209V194.209H1180.21L1180.41 193.484L1179.45 193.209ZM1145.56 193.209L1144.6 193.481L1144.81 194.209H1145.56V193.209ZM1092.05 3.59277V2.59277H1090.73L1091.09 3.86439L1092.05 3.59277ZM1128.99 3.59277L1129.96 3.35465L1129.78 2.59277H1128.99V3.59277ZM1478.45 32.3867V33.3867H1479.45V32.3867H1478.45ZM1389.48 32.3867V31.3867H1388.48V32.3867H1389.48ZM1389.48 83.8652H1388.48V84.8652H1389.48V83.8652ZM1472.07 83.8652H1473.07V82.8652H1472.07V83.8652ZM1472.07 112.659V113.659H1473.07V112.659H1472.07ZM1389.48 112.659V111.659H1388.48V112.659H1389.48ZM1389.48 164.415H1388.48V165.415H1389.48V164.415ZM1479.19 164.415H1480.19V163.415H1479.19V164.415ZM1479.19 193.209V194.209H1480.19V193.209H1479.19ZM1355.13 193.209H1354.13V194.209H1355.13V193.209ZM1355.13 3.59277V2.59277H1354.13V3.59277H1355.13ZM1478.45 3.59277H1479.45V2.59277H1478.45V3.59277ZM1573.05 3.59277V2.59277V2.59277V3.59277ZM1607.21 10.0742L1606.78 10.9771L1606.79 10.9806L1607.21 10.0742ZM1627.68 27.5723L1626.82 28.092L1626.82 28.0972L1627.68 27.5723ZM1634.53 52.7559H1635.53V52.7559L1634.53 52.7559ZM1630.08 72.5693L1630.96 73.0482L1630.96 73.044L1630.08 72.5693ZM1618.14 85.8096L1618.7 86.6369V86.6369L1618.14 85.8096ZM1601.38 93.124L1601.15 92.1516L1600.38 92.3356V93.124H1601.38ZM1601.38 94.9756H1600.38V95.9221L1601.33 95.9741L1601.38 94.9756ZM1620.73 101.179L1620.21 102.032L1620.22 102.038L1620.73 101.179ZM1636.01 116.918L1636.87 116.415V116.415L1636.01 116.918ZM1641.93 141.546H1642.93V141.546H1641.93ZM1634.8 168.026L1635.66 168.548L1635.66 168.545L1634.8 168.026ZM1613.32 186.45L1613.75 187.355V187.355L1613.32 186.45ZM1500.46 193.209H1499.46V194.209H1500.46V193.209ZM1500.46 3.59277V2.59277H1499.46V3.59277H1500.46ZM1534.81 164.508H1533.81V165.508H1534.81V164.508ZM1598.7 157.379L1599.35 158.135L1599.35 158.135L1598.7 157.379ZM1607.03 138.861H1608.03V138.861H1607.03ZM1602.86 123.677L1602.01 124.196L1602.01 124.202L1602.86 123.677ZM1591.01 112.938L1590.55 113.825L1590.56 113.83L1591.01 112.938ZM1534.81 108.956V107.956H1533.81V108.956H1534.81ZM648.42 118.862L647.472 118.544L647.03 119.862H648.42V118.862ZM701.184 118.862V119.862H702.575L702.132 118.544L701.184 118.862ZM675.519 42.4795L676.466 42.161L676.237 41.4795H675.519V42.4795ZM674.037 42.4795V41.4795H673.318L673.089 42.1615L674.037 42.4795ZM35.3496 95.2529H34.3496V96.2529H35.3496V95.2529ZM87.9385 91.7354L88.3349 92.6535L88.3437 92.6496L87.9385 91.7354ZM99.9746 81.2725L99.1071 80.7751L99.1049 80.7789L99.9746 81.2725ZM103.956 64.2363H104.956V64.2363L103.956 64.2363ZM99.9746 47.0156L99.0989 47.4984L99.1015 47.5032L99.9746 47.0156ZM87.8457 36.0908L87.4234 36.9973L87.4319 37.0012L87.8457 36.0908ZM66.8291 32.2949V31.2949V31.2949V32.2949ZM35.3496 32.2949V31.2949H34.3496V32.2949H35.3496ZM476.949 95.2529H475.949V96.2529H476.949V95.2529ZM529.538 91.7354L529.935 92.6535L529.943 92.6496L529.538 91.7354ZM541.574 81.2725L540.707 80.7751L540.705 80.7789L541.574 81.2725ZM545.556 64.2363H546.556V64.2363L545.556 64.2363ZM541.574 47.0156L540.698 47.4984L540.701 47.5032L541.574 47.0156ZM529.445 36.0908L529.023 36.9973L529.031 37.0012L529.445 36.0908ZM508.429 32.2949V31.2949V31.2949V32.2949ZM476.949 32.2949V31.2949H475.949V32.2949H476.949ZM1534.81 84.2354H1533.81V85.2354H1534.81V84.2354ZM1568.79 84.2354V85.2354V85.2354V84.2354ZM1584.81 80.9951L1585.22 81.9055L1585.23 81.901L1584.81 80.9951ZM1596.01 71.6436L1595.18 71.0802L1595.18 71.083L1596.01 71.6436ZM1600.18 57.2002H1601.18V57.2002H1600.18ZM1592.4 39.0537L1591.72 39.7868L1591.72 39.7909L1592.4 39.0537ZM1569.53 31.9238V30.9238V30.9238V31.9238ZM1534.81 31.9238V30.9238H1533.81V31.9238H1534.81ZM847.887 1V2C858.347 2 868.055 3.4682 877.019 6.39494L877.329 5.44434L877.64 4.49373C868.456 1.49502 858.536 0 847.887 0V1ZM877.329 5.44434L877.019 6.39494C885.982 9.32165 893.959 13.6163 900.958 19.2766L901.587 18.499L902.216 17.7215C895.018 11.9011 886.823 7.49256 877.64 4.49373L877.329 5.44434ZM901.587 18.499L900.962 19.2799C907.954 24.8735 913.704 31.7454 918.211 39.9063L919.086 39.4229L919.961 38.9394C915.333 30.5585 909.416 23.4817 902.212 17.7182L901.587 18.499ZM919.086 39.4229L918.215 39.914C922.774 47.9993 925.763 57.2574 927.168 67.7026L928.159 67.5693L929.15 67.436C927.716 56.7717 924.656 47.265 919.957 38.9317L919.086 39.4229ZM928.159 67.5693V66.5693H893.532V67.5693V68.5693H928.159V67.5693ZM893.532 67.5693L894.517 67.398C893.511 61.612 891.651 56.4608 888.925 51.9595L888.069 52.4775L887.214 52.9956C889.796 57.259 891.578 62.1695 892.547 67.7407L893.532 67.5693ZM888.069 52.4775L888.928 51.9648C886.213 47.4185 882.829 43.5591 878.779 40.3946L878.163 41.1826L877.547 41.9706C881.397 44.9783 884.618 48.6489 887.211 52.9903L888.069 52.4775ZM878.163 41.1826L878.779 40.3946C874.726 37.2287 870.108 34.8586 864.936 33.2817L864.645 34.2383L864.353 35.1948C869.303 36.7041 873.699 38.9642 877.547 41.9706L878.163 41.1826ZM864.645 34.2383L864.95 33.2861C859.842 31.6466 854.337 30.8311 848.442 30.8311V31.8311V32.8311C854.151 32.8311 859.448 33.6205 864.339 35.1904L864.645 34.2383ZM848.442 31.8311V30.8311C837.958 30.8311 828.63 33.471 820.491 38.7704L821.037 39.6084L821.583 40.4464C829.369 35.3764 838.311 32.8311 848.442 32.8311V31.8311ZM821.037 39.6084L820.496 38.7674C812.348 44.0098 805.996 51.7007 801.423 61.7863L802.334 62.1992L803.245 62.6122C807.684 52.8226 813.801 45.4532 821.578 40.4494L821.037 39.6084ZM802.334 62.1992L801.424 61.7841C796.843 71.8243 794.575 84.0419 794.575 98.4004H795.575H796.575C796.575 84.2426 798.813 72.3257 803.244 62.6143L802.334 62.1992ZM795.575 98.4004H794.575C794.575 113.003 796.843 125.375 801.423 135.477L802.334 135.064L803.245 134.652C798.814 124.879 796.575 112.807 796.575 98.4004H795.575ZM802.334 135.064L801.426 135.484C806.061 145.505 812.412 153.133 820.498 158.313L821.037 157.471L821.577 156.629C813.861 151.686 807.742 144.376 803.242 134.645L802.334 135.064ZM821.037 157.471L820.505 158.318C828.641 163.426 837.933 165.971 848.35 165.971V164.971V163.971C838.274 163.971 829.358 161.514 821.569 156.624L821.037 157.471ZM848.35 164.971V165.971C854.116 165.971 859.522 165.218 864.562 163.706L864.274 162.748L863.987 161.79C859.151 163.241 853.941 163.971 848.35 163.971V164.971ZM864.274 162.748L864.569 163.704C869.672 162.129 874.252 159.825 878.299 156.789L877.699 155.989L877.099 155.189C873.246 158.079 868.876 160.281 863.979 161.793L864.274 162.748ZM877.699 155.989L878.293 156.794C882.408 153.755 885.858 150.021 888.639 145.597L887.792 145.064L886.945 144.532C884.294 148.75 881.015 152.298 877.105 155.185L877.699 155.989ZM887.792 145.064L888.633 145.605C891.487 141.166 893.444 136.104 894.515 130.436L893.532 130.25L892.55 130.064C891.522 135.506 889.652 140.322 886.951 144.524L887.792 145.064ZM893.532 130.25L893.527 131.25L928.154 131.436L928.159 130.436L928.165 129.436L893.538 129.25L893.532 130.25ZM928.159 130.436L927.169 130.293C925.89 139.188 923.119 147.529 918.856 155.324L919.733 155.804L920.611 156.284C924.989 148.277 927.836 139.707 929.149 130.578L928.159 130.436ZM919.733 155.804L918.853 155.329C914.652 163.122 909.142 170.004 902.317 175.976L902.976 176.729L903.634 177.481C910.635 171.355 916.297 164.287 920.614 156.278L919.733 155.804ZM902.976 176.729L902.321 175.973C895.506 181.875 887.527 186.506 878.374 189.863L878.718 190.802L879.062 191.741C888.425 188.307 896.619 183.557 903.63 177.484L902.976 176.729ZM878.718 190.802L878.379 189.861C869.244 193.149 859.083 194.802 847.887 194.802V195.802V196.802C859.281 196.802 869.675 195.12 879.057 191.743L878.718 190.802ZM847.887 195.802V194.802C831.382 194.802 816.685 190.983 803.769 183.367L803.261 184.229L802.753 185.09C816.007 192.905 831.061 196.802 847.887 196.802V195.802ZM803.261 184.229L803.769 183.367C790.858 175.755 780.676 164.759 773.225 150.345L772.337 150.805L771.449 151.264C779.058 165.984 789.492 177.271 802.753 185.09L803.261 184.229ZM772.337 150.805L773.225 150.345C765.784 135.951 762.041 118.648 762.041 98.4004H761.041H760.041C760.041 118.891 763.829 136.525 771.449 151.264L772.337 150.805ZM761.041 98.4004H762.041C762.041 78.0922 765.814 60.7916 773.315 46.4608L772.429 45.9971L771.543 45.5333C763.86 60.2127 760.041 77.8477 760.041 98.4004H761.041ZM772.429 45.9971L773.315 46.4593C780.828 32.0443 791.042 21.0474 803.953 13.4347L803.445 12.5732L802.937 11.7118C789.678 19.5301 779.213 30.8162 771.542 45.5349L772.429 45.9971ZM803.445 12.5732L803.953 13.4347C816.871 5.81788 831.507 2.00003 847.887 2V1V0C831.182 3.03984e-05 816.19 3.89763 802.937 11.7118L803.445 12.5732ZM72.1064 3.59277V4.59277C86.5624 4.5928 98.6169 7.10452 108.314 12.0745L108.771 11.1846L109.227 10.2946C99.1725 5.14192 86.7841 2.5928 72.1064 2.59277V3.59277ZM108.771 11.1846L108.317 12.0757C118.089 17.0529 125.436 24.0155 130.394 32.9641L131.269 32.4795L132.143 31.9948C126.979 22.6734 119.327 15.4389 109.224 10.2935L108.771 11.1846ZM131.269 32.4795L130.398 32.9712C135.423 41.8719 137.953 52.2829 137.953 64.2363L138.953 64.2363L139.953 64.2363C139.953 51.9943 137.36 41.2338 132.139 31.9878L131.269 32.4795ZM138.953 64.2363H137.953C137.953 76.2511 135.393 86.6273 130.31 95.4001L131.176 95.9014L132.041 96.4026C137.329 87.2754 139.953 76.5409 139.953 64.2363H138.953ZM131.176 95.9014L130.309 95.402C125.294 104.103 117.89 110.853 108.054 115.649L108.492 116.548L108.931 117.447C119.093 112.491 126.811 105.476 132.042 96.4007L131.176 95.9014ZM108.492 116.548L108.058 115.647C106.908 116.201 105.725 116.721 104.51 117.211L104.884 118.139L105.258 119.066C106.511 118.561 107.734 118.023 108.926 117.449L108.492 116.548ZM104.884 118.139L104.006 118.618L145.02 193.688L145.897 193.209L146.775 192.73L105.761 117.659L104.884 118.139ZM145.897 193.209V192.209H107.566V193.209V194.209H145.897V193.209ZM107.566 193.209L108.448 192.736L71.1839 123.297L70.3027 123.77L69.4216 124.242L106.685 193.682L107.566 193.209ZM70.3027 123.77V122.77H35.3496V123.77V124.77H70.3027V123.77ZM35.3496 123.77H34.3496V193.209H35.3496H36.3496V123.77H35.3496ZM35.3496 193.209V192.209H1V193.209V194.209H35.3496V193.209ZM1 193.209H2V3.59277H1H0V193.209H1ZM1 3.59277V4.59277H72.1064V3.59277V2.59277H1V3.59277ZM280.86 32.3867V31.3867H191.885V32.3867V33.3867H280.86V32.3867ZM191.885 32.3867H190.885V83.8652H191.885H192.885V32.3867H191.885ZM191.885 83.8652V84.8652H274.472V83.8652V82.8652H191.885V83.8652ZM274.472 83.8652H273.472V112.659H274.472H275.472V83.8652H274.472ZM274.472 112.659V111.659H191.885V112.659V113.659H274.472V112.659ZM191.885 112.659H190.885V164.415H191.885H192.885V112.659H191.885ZM191.885 164.415V165.415H281.601V164.415V163.415H191.885V164.415ZM281.601 164.415H280.601V193.209H281.601H282.601V164.415H281.601ZM281.601 193.209V192.209H157.535V193.209V194.209H281.601V193.209ZM157.535 193.209H158.535V3.59277H157.535H156.535V193.209H157.535ZM157.535 3.59277V4.59277H280.86V3.59277V2.59277H157.535V3.59277ZM280.86 3.59277H279.86V32.3867H280.86H281.86V3.59277H280.86ZM424.341 32.3867V31.3867H337.217V32.3867V33.3867H424.341V32.3867ZM337.217 32.3867H336.217V83.8652H337.217H338.217V32.3867H337.217ZM337.217 83.8652V84.8652H416.008V83.8652V82.8652H337.217V83.8652ZM416.008 83.8652H415.008V112.659H416.008H417.008V83.8652H416.008ZM416.008 112.659V111.659H337.217V112.659V113.659H416.008V112.659ZM337.217 112.659H336.217V193.209H337.217H338.217V112.659H337.217ZM337.217 193.209V192.209H302.867V193.209V194.209H337.217V193.209ZM302.867 193.209H303.867V3.59277H302.867H301.867V193.209H302.867ZM302.867 3.59277V4.59277H424.341V3.59277V2.59277H302.867V3.59277ZM424.341 3.59277H423.341V32.3867H424.341H425.341V3.59277H424.341ZM513.706 3.59277V4.59277C528.162 4.5928 540.216 7.10453 549.914 12.0745L550.37 11.1846L550.826 10.2946C540.772 5.14193 528.384 2.5928 513.706 2.59277V3.59277ZM550.37 11.1846L549.916 12.0757C559.689 17.0529 567.035 24.0155 571.993 32.9641L572.868 32.4795L573.743 31.9948C568.578 22.6734 560.926 15.4389 550.824 10.2935L550.37 11.1846ZM572.868 32.4795L571.997 32.9712C577.023 41.8719 579.553 52.2829 579.553 64.2363L580.553 64.2363L581.553 64.2363C581.553 51.9943 578.959 41.2338 573.739 31.9878L572.868 32.4795ZM580.553 64.2363H579.553C579.553 76.2511 576.992 86.6273 571.91 95.4001L572.775 95.9014L573.641 96.4026C578.928 87.2754 581.553 76.5409 581.553 64.2363H580.553ZM572.775 95.9014L571.909 95.402C566.894 104.103 559.489 110.853 549.654 115.649L550.092 116.548L550.53 117.447C560.693 112.491 568.411 105.476 573.642 96.4007L572.775 95.9014ZM550.092 116.548L549.658 115.647C548.508 116.201 547.324 116.721 546.109 117.211L546.483 118.139L546.858 119.066C548.11 118.561 549.333 118.023 550.526 117.449L550.092 116.548ZM546.483 118.139L545.606 118.618L586.208 192.936L587.086 192.456L587.964 191.977L547.361 117.659L546.483 118.139ZM587.086 192.456L588.029 192.788L654.519 3.92485L653.576 3.59277L652.633 3.2607L586.143 192.124L587.086 192.456ZM653.576 3.59277V4.59277H695.98V3.59277V2.59277H653.576V3.59277ZM695.98 3.59277L695.037 3.92526L761.885 193.541L762.828 193.209L763.771 192.876L696.924 3.26029L695.98 3.59277ZM762.828 193.209V192.209H726.164V193.209V194.209H762.828V193.209ZM726.164 193.209L727.112 192.89L711.402 146.135L710.454 146.453L709.506 146.772L725.216 193.527L726.164 193.209ZM710.454 146.453V145.453H639.166V146.453V147.453H710.454V146.453ZM639.166 146.453L638.218 146.135L622.537 192.891L623.485 193.209L624.433 193.527L640.114 146.771L639.166 146.453ZM623.485 193.209V192.209H549.166V193.209V194.209H623.485V193.209ZM549.166 193.209L550.047 192.736L512.783 123.297L511.902 123.77L511.021 124.242L548.285 193.682L549.166 193.209ZM511.902 123.77V122.77H476.949V123.77V124.77H511.902V123.77ZM476.949 123.77H475.949V193.209H476.949H477.949V123.77H476.949ZM476.949 193.209V192.209H442.6V193.209V194.209H476.949V193.209ZM442.6 193.209H443.6V3.59277H442.6H441.6V193.209H442.6ZM442.6 3.59277V4.59277H513.706V3.59277V2.59277H442.6V3.59277ZM1089.53 32.3867V31.3867H1030.92V32.3867V33.3867H1089.53V32.3867ZM1030.92 32.3867H1029.92V193.209H1030.92H1031.92V32.3867H1030.92ZM1030.92 193.209V192.209H996.854V193.209V194.209H1030.92V193.209ZM996.854 193.209H997.854V32.3867H996.854H995.854V193.209H996.854ZM996.854 32.3867V31.3867H938.246V32.3867V33.3867H996.854V32.3867ZM938.246 32.3867H939.246V3.59277H938.246H937.246V32.3867H938.246ZM938.246 3.59277V4.59277H1089.53V3.59277V2.59277H938.246V3.59277ZM1089.53 3.59277H1088.53V32.3867H1089.53H1090.53V3.59277H1089.53ZM1163.16 142.936V143.936H1164.92V142.936V141.936H1163.16V142.936ZM1164.92 142.936L1165.88 143.189L1202.36 3.84604L1201.39 3.59277L1200.43 3.33951L1163.95 142.682L1164.92 142.936ZM1201.39 3.59277V4.59277H1235V3.59277V2.59277H1201.39V3.59277ZM1235 3.59277L1234.04 3.84648L1270.61 143.281L1271.57 143.027L1272.54 142.774L1235.97 3.33907L1235 3.59277ZM1271.57 143.027V144.027H1273.24V143.027V142.027H1271.57V143.027ZM1273.24 143.027L1274.21 143.265L1308.38 3.83075L1307.41 3.59277L1306.43 3.35479L1272.27 142.789L1273.24 143.027ZM1307.41 3.59277V4.59277H1344.35V3.59277V2.59277H1307.41V3.59277ZM1344.35 3.59277L1343.39 3.32115L1289.87 192.937L1290.83 193.209L1291.79 193.481L1345.31 3.86439L1344.35 3.59277ZM1290.83 193.209V192.209H1256.95V193.209V194.209H1290.83V193.209ZM1256.95 193.209L1257.91 192.935L1219.95 59.8887L1218.99 60.1631L1218.02 60.4375L1255.98 193.483L1256.95 193.209ZM1218.99 60.1631V59.1631H1217.5V60.1631V61.1631H1218.99V60.1631ZM1217.5 60.1631L1216.54 59.8881L1178.49 192.934L1179.45 193.209L1180.41 193.484L1218.47 60.4381L1217.5 60.1631ZM1179.45 193.209V192.209H1145.56V193.209V194.209H1179.45V193.209ZM1145.56 193.209L1146.53 192.937L1093.01 3.32116L1092.05 3.59277L1091.09 3.86439L1144.6 193.481L1145.56 193.209ZM1092.05 3.59277V4.59277H1128.99V3.59277V2.59277H1092.05V3.59277ZM1128.99 3.59277L1128.02 3.8309L1162.19 143.174L1163.16 142.936L1164.13 142.697L1129.96 3.35465L1128.99 3.59277ZM1478.45 32.3867V31.3867H1389.48V32.3867V33.3867H1478.45V32.3867ZM1389.48 32.3867H1388.48V83.8652H1389.48H1390.48V32.3867H1389.48ZM1389.48 83.8652V84.8652H1472.07V83.8652V82.8652H1389.48V83.8652ZM1472.07 83.8652H1471.07V112.659H1472.07H1473.07V83.8652H1472.07ZM1472.07 112.659V111.659H1389.48V112.659V113.659H1472.07V112.659ZM1389.48 112.659H1388.48V164.415H1389.48H1390.48V112.659H1389.48ZM1389.48 164.415V165.415H1479.19V164.415V163.415H1389.48V164.415ZM1479.19 164.415H1478.19V193.209H1479.19H1480.19V164.415H1479.19ZM1479.19 193.209V192.209H1355.13V193.209V194.209H1479.19V193.209ZM1355.13 193.209H1356.13V3.59277H1355.13H1354.13V193.209H1355.13ZM1355.13 3.59277V4.59277H1478.45V3.59277V2.59277H1355.13V3.59277ZM1478.45 3.59277H1477.45V32.3867H1478.45H1479.45V3.59277H1478.45ZM1573.05 3.59277V4.59277C1586.65 4.5928 1597.88 6.73921 1606.78 10.9771L1607.21 10.0742L1607.64 9.17136C1598.4 4.76792 1586.85 2.59281 1573.05 2.59277V3.59277ZM1607.21 10.0742L1606.79 10.9806C1615.78 15.17 1622.43 20.88 1626.82 28.092L1627.68 27.5723L1628.53 27.0525C1623.91 19.451 1616.92 13.4963 1607.64 9.16788L1607.21 10.0742ZM1627.68 27.5723L1626.82 28.0972C1631.29 35.3338 1633.53 43.5441 1633.53 52.7559L1634.53 52.7559L1635.53 52.7559C1635.53 43.2036 1633.2 34.6244 1628.53 27.0474L1627.68 27.5723ZM1634.53 52.7559H1633.53C1633.53 60.3442 1632.07 66.7777 1629.2 72.0947L1630.08 72.5693L1630.96 73.044C1634.02 67.3742 1635.53 60.5983 1635.53 52.7559H1634.53ZM1630.08 72.5693L1629.21 72.0905C1626.32 77.386 1622.44 81.679 1617.58 84.9823L1618.14 85.8096L1618.7 86.6369C1623.83 83.1505 1627.92 78.6161 1630.96 73.0482L1630.08 72.5693ZM1618.14 85.8096L1617.58 84.9823C1612.68 88.3059 1607.21 90.697 1601.15 92.1516L1601.38 93.124L1601.61 94.0964C1607.9 92.5883 1613.6 90.1027 1618.7 86.6369L1618.14 85.8096ZM1601.38 93.124H1600.38V94.9756H1601.38H1602.38V93.124H1601.38ZM1601.38 94.9756L1601.33 95.9741C1607.88 96.3347 1614.17 98.3468 1620.21 102.032L1620.73 101.179L1621.25 100.325C1614.95 96.4803 1608.34 94.3572 1601.44 93.9771L1601.38 94.9756ZM1620.73 101.179L1620.22 102.038C1626.3 105.648 1631.27 110.766 1635.14 117.421L1636.01 116.918L1636.87 116.415C1632.84 109.491 1627.63 104.116 1621.24 100.319L1620.73 101.179ZM1636.01 116.918L1635.14 117.421C1638.99 124.027 1640.93 132.054 1640.93 141.546H1641.93H1642.93C1642.93 131.78 1640.93 123.388 1636.87 116.415L1636.01 116.918ZM1641.93 141.546H1640.93C1640.93 151.191 1638.6 159.836 1633.95 167.508L1634.8 168.026L1635.66 168.545C1640.51 160.538 1642.93 151.529 1642.93 141.546H1641.93ZM1634.8 168.026L1633.95 167.505C1629.32 175.09 1622.32 181.109 1612.9 185.546L1613.32 186.45L1613.75 187.355C1623.47 182.779 1630.79 176.517 1635.66 168.548L1634.8 168.026ZM1613.32 186.45L1612.9 185.546C1603.5 189.97 1591.63 192.209 1577.22 192.209V193.209V194.209C1591.82 194.209 1604.01 191.942 1613.75 187.355L1613.32 186.45ZM1577.22 193.209V192.209H1500.46V193.209V194.209H1577.22V193.209ZM1500.46 193.209H1501.46V3.59277H1500.46H1499.46V193.209H1500.46ZM1500.46 3.59277V4.59277H1573.05V3.59277V2.59277H1500.46V3.59277ZM1534.81 164.508V165.508H1571.75V164.508V163.508H1534.81V164.508ZM1571.75 164.508V165.508C1584.3 165.508 1593.58 163.124 1599.35 158.135L1598.7 157.379L1598.04 156.623C1592.82 161.139 1584.14 163.508 1571.75 163.508V164.508ZM1598.7 157.379L1599.35 158.135C1605.13 153.125 1608.03 146.673 1608.03 138.861H1607.03H1606.03C1606.03 146.11 1603.37 152.004 1598.04 156.623L1598.7 157.379ZM1607.03 138.861H1608.03C1608.03 133.071 1606.59 127.825 1603.71 123.152L1602.86 123.677L1602.01 124.202C1604.69 128.54 1606.03 133.418 1606.03 138.861H1607.03ZM1602.86 123.677L1603.72 123.157C1600.84 118.419 1596.74 114.715 1591.46 112.045L1591.01 112.938L1590.56 113.83C1595.53 116.344 1599.33 119.8 1602.01 124.196L1602.86 123.677ZM1591.01 112.938L1591.47 112.05C1586.18 109.307 1579.9 107.956 1572.68 107.956V108.956V109.956C1579.65 109.956 1585.6 111.26 1590.55 113.825L1591.01 112.938ZM1572.68 108.956V107.956H1534.81V108.956V109.956H1572.68V108.956ZM1534.81 108.956H1533.81V164.508H1534.81H1535.81V108.956H1534.81ZM648.42 118.862V119.862H701.184V118.862V117.862H648.42V118.862ZM701.184 118.862L702.132 118.544L676.466 42.161L675.519 42.4795L674.571 42.798L700.236 119.181L701.184 118.862ZM675.519 42.4795V41.4795H674.037V42.4795V43.4795H675.519V42.4795ZM674.037 42.4795L673.089 42.1615L647.472 118.544L648.42 118.862L649.368 119.18L674.985 42.7975L674.037 42.4795ZM35.3496 95.2529V96.2529H67.0137V95.2529V94.2529H35.3496V95.2529ZM67.0137 95.2529V96.2529C75.6125 96.2529 82.7356 95.0712 88.3349 92.6534L87.9385 91.7354L87.542 90.8173C82.2779 93.0904 75.4505 94.2529 67.0137 94.2529V95.2529ZM87.9385 91.7354L88.3437 92.6496C93.9445 90.1674 98.1325 86.544 100.844 81.7661L99.9746 81.2725L99.1049 80.7789C96.6319 85.1361 92.7959 88.4888 87.5333 90.8211L87.9385 91.7354ZM99.9746 81.2725L100.842 81.7698C103.603 76.9545 104.956 71.0939 104.956 64.2363H103.956H102.956C102.956 70.8345 101.655 76.3318 99.1071 80.7751L99.9746 81.2725ZM103.956 64.2363L104.956 64.2363C104.956 57.3777 103.602 51.461 100.848 46.5281L99.9746 47.0156L99.1015 47.5032C101.655 52.0756 102.956 57.6395 102.956 64.2363L103.956 64.2363ZM99.9746 47.0156L100.85 46.5328C98.0832 41.5135 93.8694 37.7304 88.2595 35.1805L87.8457 36.0908L87.4319 37.0012C92.6853 39.3891 96.5577 42.8889 99.0989 47.4984L99.9746 47.0156ZM87.8457 36.0908L88.268 35.1844C82.6598 32.5715 75.4961 31.295 66.8291 31.2949V32.2949V33.2949C75.3211 33.2949 82.1683 34.5489 87.4234 36.9973L87.8457 36.0908ZM66.8291 32.2949V31.2949H35.3496V32.2949V33.2949H66.8291V32.2949ZM35.3496 32.2949H34.3496V95.2529H35.3496H36.3496V32.2949H35.3496ZM476.949 95.2529V96.2529H508.613V95.2529V94.2529H476.949V95.2529ZM508.613 95.2529V96.2529C517.212 96.2529 524.335 95.0712 529.935 92.6534L529.538 91.7354L529.142 90.8173C523.878 93.0904 517.05 94.2529 508.613 94.2529V95.2529ZM529.538 91.7354L529.943 92.6496C535.544 90.1674 539.732 86.544 542.444 81.7661L541.574 81.2725L540.705 80.7789C538.232 85.1361 534.396 88.4888 529.133 90.8211L529.538 91.7354ZM541.574 81.2725L542.442 81.7698C545.203 76.9545 546.556 71.0939 546.556 64.2363H545.556H544.556C544.556 70.8345 543.254 76.3318 540.707 80.7751L541.574 81.2725ZM545.556 64.2363L546.556 64.2363C546.556 57.3777 545.202 51.461 542.447 46.5281L541.574 47.0156L540.701 47.5032C543.255 52.0756 544.556 57.6395 544.556 64.2363L545.556 64.2363ZM541.574 47.0156L542.45 46.5328C539.683 41.5135 535.469 37.7304 529.859 35.1805L529.445 36.0908L529.031 37.0012C534.285 39.3891 538.157 42.8889 540.698 47.4984L541.574 47.0156ZM529.445 36.0908L529.868 35.1844C524.259 32.5715 517.096 31.295 508.429 31.2949V32.2949V33.2949C516.921 33.2949 523.768 34.5489 529.023 36.9973L529.445 36.0908ZM508.429 32.2949V31.2949H476.949V32.2949V33.2949H508.429V32.2949ZM476.949 32.2949H475.949V95.2529H476.949H477.949V32.2949H476.949ZM1534.81 84.2354V85.2354H1568.79V84.2354V83.2354H1534.81V84.2354ZM1568.79 84.2354V85.2354C1574.84 85.2353 1580.32 84.1322 1585.22 81.9055L1584.81 80.9951L1584.39 80.0847C1579.79 82.1784 1574.59 83.2353 1568.79 83.2354V84.2354ZM1584.81 80.9951L1585.23 81.901C1590.13 79.609 1594.01 76.378 1596.84 72.2041L1596.01 71.6436L1595.18 71.083C1592.58 74.9332 1588.99 77.9371 1584.38 80.0892L1584.81 80.9951ZM1596.01 71.6436L1596.84 72.2069C1599.74 67.9466 1601.18 62.93 1601.18 57.2002H1600.18H1599.18C1599.18 62.5807 1597.83 67.193 1595.18 71.0802L1596.01 71.6436ZM1600.18 57.2002H1601.18C1601.18 49.5889 1598.48 43.2679 1593.08 38.3166L1592.4 39.0537L1591.72 39.7909C1596.69 44.3449 1599.18 50.1215 1599.18 57.2002H1600.18ZM1592.4 39.0537L1593.08 38.3206C1587.7 33.3329 1579.79 30.9238 1569.53 30.9238V31.9238V32.9238C1579.51 32.9238 1586.85 35.2691 1591.72 39.7868L1592.4 39.0537ZM1569.53 31.9238V30.9238H1534.81V31.9238V32.9238H1569.53V31.9238ZM1534.81 31.9238H1533.81V84.2354H1534.81H1535.81V31.9238H1534.81Z" fill="white" mask="url(#path-1-outside-1_22_56)"/>
<defs>
<filter id="filter0_ii_22_56" x="0" y="-4" width="1642.93" height="200.802" filterUnits="userSpaceOnUse" color-interpolation-filters="sRGB">
<feFlood flood-opacity="0" result="BackgroundImageFix"/>
<feBlend mode="normal" in="SourceGraphic" in2="BackgroundImageFix" result="shape"/>
<feColorMatrix in="SourceAlpha" type="matrix" values="0 0 0 0 0 0 0 0 0 0 0 0 0 0 0 0 0 0 127 0" result="hardAlpha"/>
<feOffset dy="1"/>
<feComposite in2="hardAlpha" operator="arithmetic" k2="-1" k3="1"/>
<feColorMatrix type="matrix" values="0 0 0 0 1 0 0 0 0 1 0 0 0 0 1 0 0 0 0.4 0"/>
<feBlend mode="normal" in2="shape" result="effect1_innerShadow_22_56"/>
<feColorMatrix in="SourceAlpha" type="matrix" values="0 0 0 0 0 0 0 0 0 0 0 0 0 0 0 0 0 0 127 0" result="hardAlpha"/>
<feOffset dy="-6"/>
<feGaussianBlur stdDeviation="2"/>
<feComposite in2="hardAlpha" operator="arithmetic" k2="-1" k3="1"/>
<feColorMatrix type="matrix" values="0 0 0 0 0 0 0 0 0 0 0 0 0 0 0 0 0 0 0.2 0"/>
<feBlend mode="normal" in2="effect1_innerShadow_22_56" result="effect2_innerShadow_22_56"/>
</filter>
<radialGradient id="paint0_radial_22_56" cx="0" cy="0" r="1" gradientUnits="userSpaceOnUse" gradientTransform="translate(821.467 205.54) rotate(-90) scale(168.437 936.049)">
<stop stop-color="#F59768"/>
<stop offset="1" stop-color="#B05D41"/>
</radialGradient>
</defs>
</svg>
