<svg width="1811" height="365" viewBox="0 0 1811 365" fill="none" xmlns="http://www.w3.org/2000/svg">
<g filter="url(#filter0_ddii_1_2957)">
<mask id="path-1-outside-1_1_2957" maskUnits="userSpaceOnUse" x="83.9" y="79.9" width="1643" height="197" fill="black">
<rect fill="white" x="83.9" y="79.9" width="1643" height="197"/>
<path d="M931.787 80.9C942.342 80.9 952.156 82.3816 961.229 85.3444C970.303 88.3071 978.389 92.6587 985.487 98.399C992.585 104.078 998.418 111.052 1002.99 119.323C1007.62 127.532 1010.64 136.915 1012.06 147.469H977.432C976.445 141.791 974.623 136.76 971.969 132.378C969.315 127.934 966.013 124.169 962.063 121.083C958.113 117.996 953.606 115.681 948.545 114.138C943.545 112.534 938.144 111.731 932.342 111.731C922.035 111.731 912.899 114.324 904.937 119.508C896.975 124.632 890.74 132.162 886.234 142.099C881.728 151.975 879.475 164.042 879.475 178.3C879.475 192.805 881.728 205.027 886.234 214.964C890.802 224.84 897.036 232.309 904.937 237.371C912.899 242.37 922.004 244.871 932.25 244.871C937.928 244.871 943.237 244.129 948.174 242.648C953.174 241.105 957.649 238.852 961.599 235.889C965.611 232.927 968.976 229.285 971.692 224.964C974.47 220.644 976.383 215.705 977.432 210.15L1012.06 210.336C1010.76 219.347 1007.95 227.803 1003.63 235.704C999.374 243.604 993.789 250.58 986.876 256.629C979.963 262.616 971.876 267.307 962.618 270.702C953.359 274.035 943.082 275.702 931.787 275.702C915.122 275.702 900.246 271.844 887.161 264.129C874.075 256.413 863.767 245.271 856.237 230.705C848.707 216.138 844.941 198.669 844.941 178.3C844.941 157.87 848.737 140.402 856.329 125.897C863.921 111.33 874.26 100.189 887.345 92.4733C900.431 84.7578 915.245 80.9001 931.787 80.9ZM156.006 83.4928C170.573 83.4928 182.795 86.0232 192.671 91.0846C202.608 96.1459 210.107 103.244 215.169 112.38C220.292 121.453 222.853 132.039 222.853 144.136C222.853 156.296 220.261 166.851 215.076 175.801C209.953 184.69 202.391 191.572 192.392 196.448C191.221 197.012 190.018 197.541 188.784 198.039L229.797 273.109H191.466L154.203 203.67H119.25V273.109H84.9V83.4928H156.006ZM364.76 112.287H275.785V163.765H358.372V192.559H275.785V244.315H365.501V273.109H241.435V83.4928H364.76V112.287ZM508.241 112.287H421.117V163.765H499.908V192.559H421.117V273.109H386.767V83.4928H508.241V112.287ZM597.606 83.4928C612.173 83.4928 624.394 86.0233 634.27 91.0846C644.208 96.1459 651.707 103.244 656.768 112.38C661.891 121.453 664.453 132.039 664.453 144.136C664.453 156.296 661.86 166.851 656.675 175.801C651.552 184.69 643.991 191.572 633.992 196.448C632.821 197.012 631.617 197.541 630.383 198.039L670.986 272.356L737.476 83.4928H779.88L846.728 273.109H810.064L794.354 226.353H723.066L707.385 273.109H633.066L595.802 203.67H560.849V273.109H526.5V83.4928H597.606ZM1173.43 112.287H1114.82V273.109H1080.75V112.287H1022.15V83.4928H1173.43V112.287ZM1247.06 222.836H1248.82L1285.29 83.4928H1318.9L1355.47 222.927H1357.14L1391.31 83.4928H1428.25L1374.73 273.109H1340.85L1302.89 140.063H1301.4L1263.35 273.109H1229.46L1175.95 83.4928H1212.89L1247.06 222.836ZM1562.35 112.287H1473.38V163.765H1555.97V192.559H1473.38V244.315H1563.09V273.109H1439.03V83.4928H1562.35V112.287ZM1656.95 83.4928C1670.65 83.4928 1682.04 85.6536 1691.11 89.9742C1700.25 94.2332 1707.07 100.065 1711.58 107.472C1716.14 114.879 1718.43 123.274 1718.43 132.656C1718.43 140.371 1716.95 146.976 1713.98 152.469C1711.02 157.901 1707.04 162.315 1702.04 165.71C1697.04 169.104 1691.45 171.543 1685.28 173.024V174.876C1692.01 175.246 1698.46 177.314 1704.63 181.079C1710.87 184.782 1715.96 190.029 1719.91 196.818C1723.86 203.608 1725.83 211.817 1725.83 221.446C1725.83 231.26 1723.46 240.087 1718.7 247.926C1713.95 255.704 1706.79 261.844 1697.22 266.35C1687.66 270.856 1675.62 273.109 1661.12 273.109H1584.36V83.4928H1656.95ZM1618.71 244.408H1655.65C1668.12 244.408 1677.1 242.032 1682.6 237.279C1688.15 232.464 1690.93 226.292 1690.93 218.761C1690.93 213.144 1689.54 208.083 1686.76 203.577C1683.98 199.009 1680.03 195.43 1674.91 192.838C1669.79 190.183 1663.68 188.856 1656.58 188.856H1618.71V244.408ZM732.32 198.762H785.084L759.419 122.38H757.937L732.32 198.762ZM119.25 175.153H150.914C159.432 175.153 166.407 173.981 171.839 171.635C177.27 169.228 181.282 165.74 183.875 161.172C186.529 156.543 187.856 150.864 187.856 144.136C187.856 137.409 186.529 131.668 183.875 126.916C181.22 122.101 177.177 118.46 171.746 115.991C166.314 113.46 159.309 112.195 150.729 112.195H119.25V175.153ZM560.849 175.153H592.513C601.031 175.153 608.006 173.981 613.438 171.635C618.87 169.228 622.882 165.74 625.474 161.172C628.128 156.543 629.456 150.864 629.456 144.136C629.456 137.409 628.128 131.668 625.474 126.916C622.82 122.101 618.777 118.46 613.345 115.991C607.914 113.46 600.908 112.195 592.329 112.195H560.849V175.153ZM1618.71 164.135H1652.69C1658.62 164.135 1663.96 163.055 1668.71 160.895C1673.46 158.673 1677.19 155.556 1679.91 151.544C1682.69 147.47 1684.08 142.655 1684.08 137.1C1684.08 129.755 1681.48 123.706 1676.3 118.954C1671.18 114.201 1663.55 111.824 1653.43 111.824H1618.71V164.135Z"/>
</mask>
<path d="M931.787 80.9C942.342 80.9 952.156 82.3816 961.229 85.3444C970.303 88.3071 978.389 92.6587 985.487 98.399C992.585 104.078 998.418 111.052 1002.99 119.323C1007.62 127.532 1010.64 136.915 1012.06 147.469H977.432C976.445 141.791 974.623 136.76 971.969 132.378C969.315 127.934 966.013 124.169 962.063 121.083C958.113 117.996 953.606 115.681 948.545 114.138C943.545 112.534 938.144 111.731 932.342 111.731C922.035 111.731 912.899 114.324 904.937 119.508C896.975 124.632 890.74 132.162 886.234 142.099C881.728 151.975 879.475 164.042 879.475 178.3C879.475 192.805 881.728 205.027 886.234 214.964C890.802 224.84 897.036 232.309 904.937 237.371C912.899 242.37 922.004 244.871 932.25 244.871C937.928 244.871 943.237 244.129 948.174 242.648C953.174 241.105 957.649 238.852 961.599 235.889C965.611 232.927 968.976 229.285 971.692 224.964C974.47 220.644 976.383 215.705 977.432 210.15L1012.06 210.336C1010.76 219.347 1007.95 227.803 1003.63 235.704C999.374 243.604 993.789 250.58 986.876 256.629C979.963 262.616 971.876 267.307 962.618 270.702C953.359 274.035 943.082 275.702 931.787 275.702C915.122 275.702 900.246 271.844 887.161 264.129C874.075 256.413 863.767 245.271 856.237 230.705C848.707 216.138 844.941 198.669 844.941 178.3C844.941 157.87 848.737 140.402 856.329 125.897C863.921 111.33 874.26 100.189 887.345 92.4733C900.431 84.7578 915.245 80.9001 931.787 80.9ZM156.006 83.4928C170.573 83.4928 182.795 86.0232 192.671 91.0846C202.608 96.1459 210.107 103.244 215.169 112.38C220.292 121.453 222.853 132.039 222.853 144.136C222.853 156.296 220.261 166.851 215.076 175.801C209.953 184.69 202.391 191.572 192.392 196.448C191.221 197.012 190.018 197.541 188.784 198.039L229.797 273.109H191.466L154.203 203.67H119.25V273.109H84.9V83.4928H156.006ZM364.76 112.287H275.785V163.765H358.372V192.559H275.785V244.315H365.501V273.109H241.435V83.4928H364.76V112.287ZM508.241 112.287H421.117V163.765H499.908V192.559H421.117V273.109H386.767V83.4928H508.241V112.287ZM597.606 83.4928C612.173 83.4928 624.394 86.0233 634.27 91.0846C644.208 96.1459 651.707 103.244 656.768 112.38C661.891 121.453 664.453 132.039 664.453 144.136C664.453 156.296 661.86 166.851 656.675 175.801C651.552 184.69 643.991 191.572 633.992 196.448C632.821 197.012 631.617 197.541 630.383 198.039L670.986 272.356L737.476 83.4928H779.88L846.728 273.109H810.064L794.354 226.353H723.066L707.385 273.109H633.066L595.802 203.67H560.849V273.109H526.5V83.4928H597.606ZM1173.43 112.287H1114.82V273.109H1080.75V112.287H1022.15V83.4928H1173.43V112.287ZM1247.06 222.836H1248.82L1285.29 83.4928H1318.9L1355.47 222.927H1357.14L1391.31 83.4928H1428.25L1374.73 273.109H1340.85L1302.89 140.063H1301.4L1263.35 273.109H1229.46L1175.95 83.4928H1212.89L1247.06 222.836ZM1562.35 112.287H1473.38V163.765H1555.97V192.559H1473.38V244.315H1563.09V273.109H1439.03V83.4928H1562.35V112.287ZM1656.95 83.4928C1670.65 83.4928 1682.04 85.6536 1691.11 89.9742C1700.25 94.2332 1707.07 100.065 1711.58 107.472C1716.14 114.879 1718.43 123.274 1718.43 132.656C1718.43 140.371 1716.95 146.976 1713.98 152.469C1711.02 157.901 1707.04 162.315 1702.04 165.71C1697.04 169.104 1691.45 171.543 1685.28 173.024V174.876C1692.01 175.246 1698.46 177.314 1704.63 181.079C1710.87 184.782 1715.96 190.029 1719.91 196.818C1723.86 203.608 1725.83 211.817 1725.83 221.446C1725.83 231.26 1723.46 240.087 1718.7 247.926C1713.95 255.704 1706.79 261.844 1697.22 266.35C1687.66 270.856 1675.62 273.109 1661.12 273.109H1584.36V83.4928H1656.95ZM1618.71 244.408H1655.65C1668.12 244.408 1677.1 242.032 1682.6 237.279C1688.15 232.464 1690.93 226.292 1690.93 218.761C1690.93 213.144 1689.54 208.083 1686.76 203.577C1683.98 199.009 1680.03 195.43 1674.91 192.838C1669.79 190.183 1663.68 188.856 1656.58 188.856H1618.71V244.408ZM732.32 198.762H785.084L759.419 122.38H757.937L732.32 198.762ZM119.25 175.153H150.914C159.432 175.153 166.407 173.981 171.839 171.635C177.27 169.228 181.282 165.74 183.875 161.172C186.529 156.543 187.856 150.864 187.856 144.136C187.856 137.409 186.529 131.668 183.875 126.916C181.22 122.101 177.177 118.46 171.746 115.991C166.314 113.46 159.309 112.195 150.729 112.195H119.25V175.153ZM560.849 175.153H592.513C601.031 175.153 608.006 173.981 613.438 171.635C618.87 169.228 622.882 165.74 625.474 161.172C628.128 156.543 629.456 150.864 629.456 144.136C629.456 137.409 628.128 131.668 625.474 126.916C622.82 122.101 618.777 118.46 613.345 115.991C607.914 113.46 600.908 112.195 592.329 112.195H560.849V175.153ZM1618.71 164.135H1652.69C1658.62 164.135 1663.96 163.055 1668.71 160.895C1673.46 158.673 1677.19 155.556 1679.91 151.544C1682.69 147.47 1684.08 142.655 1684.08 137.1C1684.08 129.755 1681.48 123.706 1676.3 118.954C1671.18 114.201 1663.55 111.824 1653.43 111.824H1618.71V164.135Z" fill="url(#paint0_radial_1_2957)"/>
<path d="M931.787 80.9V79.9V79.9V80.9ZM961.229 85.3444L961.54 84.3938V84.3938L961.229 85.3444ZM985.487 98.399L984.858 99.1766L984.862 99.1799L985.487 98.399ZM1002.99 119.323L1002.11 119.806L1002.11 119.814L1002.99 119.323ZM1012.06 147.469V148.469H1013.2L1013.05 147.336L1012.06 147.469ZM977.432 147.469L976.447 147.641L976.591 148.469H977.432V147.469ZM971.969 132.378L971.111 132.89L971.114 132.896L971.969 132.378ZM962.063 121.083L962.679 120.295V120.295L962.063 121.083ZM948.545 114.138L948.239 115.09L948.246 115.093L948.253 115.095L948.545 114.138ZM932.342 111.731V110.731V110.731V111.731ZM904.937 119.508L905.478 120.349L905.483 120.346L904.937 119.508ZM886.234 142.099L887.144 142.514L887.145 142.512L886.234 142.099ZM879.475 178.3H878.475V178.3H879.475ZM886.234 214.964L885.323 215.377L885.326 215.384L886.234 214.964ZM904.937 237.371L904.398 238.213L904.405 238.218L904.937 237.371ZM932.25 244.871V245.871V245.871V244.871ZM948.174 242.648L948.462 243.606L948.469 243.604L948.174 242.648ZM961.599 235.889L961.005 235.085L960.999 235.089L961.599 235.889ZM971.692 224.964L970.851 224.424L970.845 224.432L971.692 224.964ZM977.432 210.15L977.438 209.15L976.604 209.146L976.45 209.964L977.432 210.15ZM1012.06 210.336L1013.05 210.478L1013.21 209.342L1012.06 209.336L1012.06 210.336ZM1003.63 235.704L1002.76 235.224L1002.75 235.229L1003.63 235.704ZM986.876 256.629L987.53 257.384L987.534 257.381L986.876 256.629ZM962.618 270.702L962.957 271.643L962.962 271.641L962.618 270.702ZM931.787 275.702V276.702V276.702V275.702ZM887.161 264.129L886.653 264.99L886.653 264.99L887.161 264.129ZM856.237 230.705L855.349 231.164V231.164L856.237 230.705ZM844.941 178.3H843.941V178.3H844.941ZM856.329 125.897L857.215 126.361L857.216 126.359L856.329 125.897ZM887.345 92.4733L886.837 91.6119V91.6119L887.345 92.4733ZM156.006 83.4928V82.4928V82.4928V83.4928ZM192.671 91.0846L192.214 91.9745L192.217 91.9757L192.671 91.0846ZM215.169 112.38L214.294 112.864L214.298 112.871L215.169 112.38ZM222.853 144.136H223.853V144.136L222.853 144.136ZM215.076 175.801L214.211 175.3L214.209 175.302L215.076 175.801ZM192.392 196.448L192.826 197.349L192.831 197.347L192.392 196.448ZM188.784 198.039L188.41 197.111L187.367 197.532L187.906 198.518L188.784 198.039ZM229.797 273.109V274.109H231.483L230.675 272.63L229.797 273.109ZM191.466 273.109L190.585 273.582L190.868 274.109H191.466V273.109ZM154.203 203.67L155.084 203.197L154.801 202.67H154.203V203.67ZM119.25 203.67V202.67H118.25V203.67H119.25ZM119.25 273.109V274.109H120.25V273.109H119.25ZM84.9 273.109H83.9V274.109H84.9V273.109ZM84.9 83.4928V82.4928H83.9V83.4928H84.9ZM364.76 112.287V113.287H365.76V112.287H364.76ZM275.785 112.287V111.287H274.785V112.287H275.785ZM275.785 163.765H274.785V164.765H275.785V163.765ZM358.372 163.765H359.372V162.765H358.372V163.765ZM358.372 192.559V193.559H359.372V192.559H358.372ZM275.785 192.559V191.559H274.785V192.559H275.785ZM275.785 244.315H274.785V245.315H275.785V244.315ZM365.501 244.315H366.501V243.315H365.501V244.315ZM365.501 273.109V274.109H366.501V273.109H365.501ZM241.435 273.109H240.435V274.109H241.435V273.109ZM241.435 83.4928V82.4928H240.435V83.4928H241.435ZM364.76 83.4928H365.76V82.4928H364.76V83.4928ZM508.241 112.287V113.287H509.241V112.287H508.241ZM421.117 112.287V111.287H420.117V112.287H421.117ZM421.117 163.765H420.117V164.765H421.117V163.765ZM499.908 163.765H500.908V162.765H499.908V163.765ZM499.908 192.559V193.559H500.908V192.559H499.908ZM421.117 192.559V191.559H420.117V192.559H421.117ZM421.117 273.109V274.109H422.117V273.109H421.117ZM386.767 273.109H385.767V274.109H386.767V273.109ZM386.767 83.4928V82.4928H385.767V83.4928H386.767ZM508.241 83.4928H509.241V82.4928H508.241V83.4928ZM597.606 83.4928V82.4928V82.4928V83.4928ZM634.27 91.0846L633.814 91.9745L633.816 91.9757L634.27 91.0846ZM656.768 112.38L655.893 112.864L655.897 112.871L656.768 112.38ZM664.453 144.136H665.453V144.136L664.453 144.136ZM656.675 175.801L655.81 175.3L655.809 175.302L656.675 175.801ZM633.992 196.448L634.426 197.349L634.43 197.347L633.992 196.448ZM630.383 198.039L630.009 197.111L628.967 197.532L629.506 198.518L630.383 198.039ZM670.986 272.356L670.108 272.836L671.184 274.805L671.929 272.688L670.986 272.356ZM737.476 83.4928V82.4928H736.768L736.533 83.1607L737.476 83.4928ZM779.88 83.4928L780.824 83.1603L780.588 82.4928H779.88V83.4928ZM846.728 273.109V274.109H848.141L847.671 272.777L846.728 273.109ZM810.064 273.109L809.116 273.428L809.345 274.109H810.064V273.109ZM794.354 226.353L795.302 226.035L795.073 225.353H794.354V226.353ZM723.066 226.353V225.353H722.347L722.118 226.035L723.066 226.353ZM707.385 273.109V274.109H708.105L708.333 273.427L707.385 273.109ZM633.066 273.109L632.185 273.582L632.468 274.109H633.066V273.109ZM595.802 203.67L596.684 203.197L596.401 202.67H595.802V203.67ZM560.849 203.67V202.67H559.849V203.67H560.849ZM560.849 273.109V274.109H561.849V273.109H560.849ZM526.5 273.109H525.5V274.109H526.5V273.109ZM526.5 83.4928V82.4928H525.5V83.4928H526.5ZM1173.43 112.287V113.287H1174.43V112.287H1173.43ZM1114.82 112.287V111.287H1113.82V112.287H1114.82ZM1114.82 273.109V274.109H1115.82V273.109H1114.82ZM1080.75 273.109H1079.75V274.109H1080.75V273.109ZM1080.75 112.287H1081.75V111.287H1080.75V112.287ZM1022.15 112.287H1021.15V113.287H1022.15V112.287ZM1022.15 83.4928V82.4928H1021.15V83.4928H1022.15ZM1173.43 83.4928H1174.43V82.4928H1173.43V83.4928ZM1247.06 222.836L1246.09 223.074L1246.27 223.836H1247.06V222.836ZM1248.82 222.836V223.836H1249.59L1249.78 223.089L1248.82 222.836ZM1285.29 83.4928V82.4928H1284.52L1284.33 83.2395L1285.29 83.4928ZM1318.9 83.4928L1319.87 83.2391L1319.67 82.4928H1318.9V83.4928ZM1355.47 222.927L1354.51 223.181L1354.7 223.927H1355.47V222.927ZM1357.14 222.927V223.927H1357.93L1358.11 223.165L1357.14 222.927ZM1391.31 83.4928V82.4928H1390.52L1390.33 83.2548L1391.31 83.4928ZM1428.25 83.4928L1429.21 83.7644L1429.57 82.4928H1428.25V83.4928ZM1374.73 273.109V274.109H1375.49L1375.69 273.381L1374.73 273.109ZM1340.85 273.109L1339.88 273.383L1340.09 274.109H1340.85V273.109ZM1302.89 140.063L1303.85 139.789L1303.64 139.063H1302.89V140.063ZM1301.4 140.063V139.063H1300.65L1300.44 139.788L1301.4 140.063ZM1263.35 273.109V274.109H1264.11L1264.31 273.384L1263.35 273.109ZM1229.46 273.109L1228.5 273.381L1228.71 274.109H1229.46V273.109ZM1175.95 83.4928V82.4928H1174.63L1174.99 83.7644L1175.95 83.4928ZM1212.89 83.4928L1213.86 83.2547L1213.68 82.4928H1212.89V83.4928ZM1562.35 112.287V113.287H1563.35V112.287H1562.35ZM1473.38 112.287V111.287H1472.38V112.287H1473.38ZM1473.38 163.765H1472.38V164.765H1473.38V163.765ZM1555.97 163.765H1556.97V162.765H1555.97V163.765ZM1555.97 192.559V193.559H1556.97V192.559H1555.97ZM1473.38 192.559V191.559H1472.38V192.559H1473.38ZM1473.38 244.315H1472.38V245.315H1473.38V244.315ZM1563.09 244.315H1564.09V243.315H1563.09V244.315ZM1563.09 273.109V274.109H1564.09V273.109H1563.09ZM1439.03 273.109H1438.03V274.109H1439.03V273.109ZM1439.03 83.4928V82.4928H1438.03V83.4928H1439.03ZM1562.35 83.4928H1563.35V82.4928H1562.35V83.4928ZM1656.95 83.4928V82.4928V82.4928V83.4928ZM1691.11 89.9742L1690.68 90.8771L1690.69 90.8806L1691.11 89.9742ZM1711.58 107.472L1710.72 107.992L1710.72 107.997L1711.58 107.472ZM1718.43 132.656H1719.43V132.656L1718.43 132.656ZM1713.98 152.469L1714.86 152.948L1714.86 152.944L1713.98 152.469ZM1702.04 165.71L1702.6 166.537V166.537L1702.04 165.71ZM1685.28 173.024L1685.05 172.052L1684.28 172.236V173.024H1685.28ZM1685.28 174.876H1684.28V175.822L1685.23 175.874L1685.28 174.876ZM1704.63 181.079L1704.11 181.932L1704.12 181.938L1704.63 181.079ZM1719.91 196.818L1720.77 196.315V196.315L1719.91 196.818ZM1725.83 221.446H1726.83V221.446H1725.83ZM1718.7 247.926L1719.56 248.448L1719.56 248.445L1718.7 247.926ZM1697.22 266.35L1697.65 267.255V267.255L1697.22 266.35ZM1584.36 273.109H1583.36V274.109H1584.36V273.109ZM1584.36 83.4928V82.4928H1583.36V83.4928H1584.36ZM1618.71 244.408H1617.71V245.408H1618.71V244.408ZM1682.6 237.279L1683.25 238.035L1683.25 238.035L1682.6 237.279ZM1690.93 218.761H1691.93V218.761H1690.93ZM1686.76 203.577L1685.91 204.096L1685.91 204.102L1686.76 203.577ZM1674.91 192.838L1674.45 193.725L1674.46 193.73L1674.91 192.838ZM1618.71 188.856V187.856H1617.71V188.856H1618.71ZM732.32 198.762L731.372 198.444L730.93 199.762H732.32V198.762ZM785.084 198.762V199.762H786.475L786.032 198.444L785.084 198.762ZM759.419 122.38L760.367 122.061L760.138 121.38H759.419V122.38ZM757.937 122.38V121.38H757.218L756.989 122.062L757.937 122.38ZM119.25 175.153H118.25V176.153H119.25V175.153ZM171.839 171.635L172.235 172.553L172.244 172.55L171.839 171.635ZM183.875 161.172L183.007 160.675L183.005 160.679L183.875 161.172ZM187.856 144.136H188.856V144.136L187.856 144.136ZM183.875 126.916L182.999 127.398L183.002 127.403L183.875 126.916ZM171.746 115.991L171.323 116.897L171.332 116.901L171.746 115.991ZM150.729 112.195V111.195V111.195V112.195ZM119.25 112.195V111.195H118.25V112.195H119.25ZM560.849 175.153H559.849V176.153H560.849V175.153ZM613.438 171.635L613.835 172.553L613.843 172.55L613.438 171.635ZM625.474 161.172L624.607 160.675L624.605 160.679L625.474 161.172ZM629.456 144.136H630.456V144.136L629.456 144.136ZM625.474 126.916L624.599 127.398L624.601 127.403L625.474 126.916ZM613.345 115.991L612.923 116.897L612.932 116.901L613.345 115.991ZM592.329 112.195V111.195V111.195V112.195ZM560.849 112.195V111.195H559.849V112.195H560.849ZM1618.71 164.135H1617.71V165.135H1618.71V164.135ZM1652.69 164.135V165.135V165.135V164.135ZM1668.71 160.895L1669.12 161.806L1669.13 161.801L1668.71 160.895ZM1679.91 151.544L1679.08 150.98L1679.08 150.983L1679.91 151.544ZM1684.08 137.1H1685.08V137.1H1684.08ZM1676.3 118.954L1675.62 119.687L1675.62 119.691L1676.3 118.954ZM1653.43 111.824V110.824V110.824V111.824ZM1618.71 111.824V110.824H1617.71V111.824H1618.71ZM931.787 80.9V81.9C942.247 81.9 951.956 83.3682 960.919 86.295L961.229 85.3444L961.54 84.3938C952.356 81.395 942.436 79.9 931.787 79.9V80.9ZM961.229 85.3444L960.919 86.295C969.882 89.2217 977.859 93.5163 984.858 99.1766L985.487 98.399L986.116 97.6215C978.918 91.8011 970.723 87.3926 961.54 84.3938L961.229 85.3444ZM985.487 98.399L984.862 99.1799C991.854 104.773 997.604 111.645 1002.11 119.806L1002.99 119.323L1003.86 118.839C999.233 110.459 993.316 103.382 986.112 97.6182L985.487 98.399ZM1002.99 119.323L1002.11 119.814C1006.67 127.899 1009.66 137.157 1011.07 147.603L1012.06 147.469L1013.05 147.336C1011.62 136.672 1008.56 127.165 1003.86 118.832L1002.99 119.323ZM1012.06 147.469V146.469H977.432V147.469V148.469H1012.06V147.469ZM977.432 147.469L978.417 147.298C977.411 141.512 975.551 136.361 972.825 131.86L971.969 132.378L971.114 132.896C973.696 137.159 975.478 142.07 976.447 147.641L977.432 147.469ZM971.969 132.378L972.828 131.865C970.113 127.319 966.729 123.459 962.679 120.295L962.063 121.083L961.447 121.871C965.297 124.878 968.518 128.549 971.111 132.89L971.969 132.378ZM962.063 121.083L962.679 120.295C958.626 117.129 954.008 114.759 948.836 113.182L948.545 114.138L948.253 115.095C953.203 116.604 957.599 118.864 961.447 121.871L962.063 121.083ZM948.545 114.138L948.85 113.186C943.742 111.547 938.237 110.731 932.342 110.731V111.731V112.731C938.051 112.731 943.348 113.521 948.239 115.09L948.545 114.138ZM932.342 111.731V110.731C921.858 110.731 912.53 113.371 904.391 118.67L904.937 119.508L905.483 120.346C913.269 115.276 922.211 112.731 932.342 112.731V111.731ZM904.937 119.508L904.396 118.667C896.248 123.91 889.896 131.601 885.323 141.686L886.234 142.099L887.145 142.512C891.584 132.723 897.701 125.353 905.478 120.349L904.937 119.508ZM886.234 142.099L885.324 141.684C880.743 151.724 878.475 163.942 878.475 178.3H879.475H880.475C880.475 164.143 882.713 152.226 887.144 142.514L886.234 142.099ZM879.475 178.3H878.475C878.475 192.903 880.743 205.275 885.323 215.377L886.234 214.964L887.145 214.552C882.714 204.779 880.475 192.708 880.475 178.3H879.475ZM886.234 214.964L885.326 215.384C889.961 225.405 896.312 233.033 904.398 238.213L904.937 237.371L905.477 236.529C897.761 231.586 891.642 224.276 887.142 214.545L886.234 214.964ZM904.937 237.371L904.405 238.218C912.541 243.326 921.833 245.871 932.25 245.871V244.871V243.871C922.174 243.871 913.258 241.414 905.469 236.524L904.937 237.371ZM932.25 244.871V245.871C938.016 245.871 943.422 245.118 948.462 243.606L948.174 242.648L947.887 241.69C943.051 243.141 937.841 243.871 932.25 243.871V244.871ZM948.174 242.648L948.469 243.604C953.572 242.029 958.152 239.725 962.199 236.689L961.599 235.889L960.999 235.089C957.146 237.979 952.776 240.181 947.88 241.693L948.174 242.648ZM961.599 235.889L962.193 236.694C966.308 233.655 969.758 229.921 972.539 225.497L971.692 224.964L970.845 224.432C968.194 228.65 964.915 232.198 961.005 235.085L961.599 235.889ZM971.692 224.964L972.533 225.505C975.387 221.066 977.344 216.004 978.415 210.336L977.432 210.15L976.45 209.964C975.422 215.406 973.552 220.222 970.851 224.424L971.692 224.964ZM977.432 210.15L977.427 211.15L1012.05 211.336L1012.06 210.336L1012.06 209.336L977.438 209.15L977.432 210.15ZM1012.06 210.336L1011.07 210.193C1009.79 219.088 1007.02 227.429 1002.76 235.224L1003.63 235.704L1004.51 236.184C1008.89 228.177 1011.74 219.607 1013.05 210.478L1012.06 210.336ZM1003.63 235.704L1002.75 235.229C998.552 243.022 993.042 249.904 986.217 255.876L986.876 256.629L987.534 257.381C994.535 251.255 1000.2 244.187 1004.51 236.178L1003.63 235.704ZM986.876 256.629L986.221 255.873C979.406 261.775 971.427 266.406 962.274 269.763L962.618 270.702L962.962 271.641C972.325 268.207 980.519 263.457 987.53 257.384L986.876 256.629ZM962.618 270.702L962.279 269.761C953.144 273.049 942.983 274.702 931.787 274.702V275.702V276.702C943.181 276.702 953.575 275.02 962.957 271.643L962.618 270.702ZM931.787 275.702V274.702C915.282 274.702 900.585 270.883 887.669 263.267L887.161 264.129L886.653 264.99C899.907 272.805 914.961 276.702 931.787 276.702V275.702ZM887.161 264.129L887.669 263.267C874.758 255.655 864.576 244.659 857.125 230.245L856.237 230.705L855.349 231.164C862.958 245.884 873.392 257.171 886.653 264.99L887.161 264.129ZM856.237 230.705L857.125 230.245C849.684 215.851 845.941 198.548 845.941 178.3H844.941H843.941C843.941 198.791 847.729 216.425 855.349 231.164L856.237 230.705ZM844.941 178.3H845.941C845.941 157.992 849.714 140.692 857.215 126.361L856.329 125.897L855.443 125.433C847.76 140.113 843.941 157.748 843.941 178.3H844.941ZM856.329 125.897L857.216 126.359C864.728 111.944 874.942 100.947 887.853 93.3347L887.345 92.4733L886.837 91.6119C873.578 99.4301 863.113 110.716 855.442 125.435L856.329 125.897ZM887.345 92.4733L887.853 93.3347C900.771 85.7179 915.407 81.9001 931.787 81.9V80.9V79.9C915.083 79.9001 900.09 83.7977 886.837 91.6119L887.345 92.4733ZM156.006 83.4928V84.4928C170.462 84.4928 182.517 87.0045 192.214 91.9745L192.671 91.0846L193.127 90.1947C183.073 85.0419 170.684 82.4928 156.006 82.4928V83.4928ZM192.671 91.0846L192.217 91.9757C201.989 96.953 209.336 103.916 214.294 112.864L215.169 112.38L216.043 111.895C210.879 102.573 203.227 95.3389 193.124 90.1935L192.671 91.0846ZM215.169 112.38L214.298 112.871C219.323 121.772 221.853 132.183 221.853 144.136L222.853 144.136L223.853 144.136C223.853 131.894 221.26 121.134 216.039 111.888L215.169 112.38ZM222.853 144.136H221.853C221.853 156.151 219.293 166.527 214.211 175.3L215.076 175.801L215.941 176.303C221.229 167.175 223.853 156.441 223.853 144.136H222.853ZM215.076 175.801L214.209 175.302C209.194 184.003 201.79 190.753 191.954 195.549L192.392 196.448L192.831 197.347C202.993 192.391 210.711 185.376 215.942 176.301L215.076 175.801ZM192.392 196.448L191.958 195.547C190.808 196.101 189.625 196.621 188.41 197.111L188.784 198.039L189.158 198.966C190.411 198.461 191.634 197.923 192.826 197.349L192.392 196.448ZM188.784 198.039L187.906 198.518L228.92 273.588L229.797 273.109L230.675 272.63L189.661 197.559L188.784 198.039ZM229.797 273.109V272.109H191.466V273.109V274.109H229.797V273.109ZM191.466 273.109L192.348 272.636L155.084 203.197L154.203 203.67L153.322 204.142L190.585 273.582L191.466 273.109ZM154.203 203.67V202.67H119.25V203.67V204.67H154.203V203.67ZM119.25 203.67H118.25V273.109H119.25H120.25V203.67H119.25ZM119.25 273.109V272.109H84.9V273.109V274.109H119.25V273.109ZM84.9 273.109H85.9V83.4928H84.9H83.9V273.109H84.9ZM84.9 83.4928V84.4928H156.006V83.4928V82.4928H84.9V83.4928ZM364.76 112.287V111.287H275.785V112.287V113.287H364.76V112.287ZM275.785 112.287H274.785V163.765H275.785H276.785V112.287H275.785ZM275.785 163.765V164.765H358.372V163.765V162.765H275.785V163.765ZM358.372 163.765H357.372V192.559H358.372H359.372V163.765H358.372ZM358.372 192.559V191.559H275.785V192.559V193.559H358.372V192.559ZM275.785 192.559H274.785V244.315H275.785H276.785V192.559H275.785ZM275.785 244.315V245.315H365.501V244.315V243.315H275.785V244.315ZM365.501 244.315H364.501V273.109H365.501H366.501V244.315H365.501ZM365.501 273.109V272.109H241.435V273.109V274.109H365.501V273.109ZM241.435 273.109H242.435V83.4928H241.435H240.435V273.109H241.435ZM241.435 83.4928V84.4928H364.76V83.4928V82.4928H241.435V83.4928ZM364.76 83.4928H363.76V112.287H364.76H365.76V83.4928H364.76ZM508.241 112.287V111.287H421.117V112.287V113.287H508.241V112.287ZM421.117 112.287H420.117V163.765H421.117H422.117V112.287H421.117ZM421.117 163.765V164.765H499.908V163.765V162.765H421.117V163.765ZM499.908 163.765H498.908V192.559H499.908H500.908V163.765H499.908ZM499.908 192.559V191.559H421.117V192.559V193.559H499.908V192.559ZM421.117 192.559H420.117V273.109H421.117H422.117V192.559H421.117ZM421.117 273.109V272.109H386.767V273.109V274.109H421.117V273.109ZM386.767 273.109H387.767V83.4928H386.767H385.767V273.109H386.767ZM386.767 83.4928V84.4928H508.241V83.4928V82.4928H386.767V83.4928ZM508.241 83.4928H507.241V112.287H508.241H509.241V83.4928H508.241ZM597.606 83.4928V84.4928C612.062 84.4928 624.117 87.0046 633.814 91.9745L634.27 91.0846L634.726 90.1947C624.672 85.042 612.284 82.4928 597.606 82.4928V83.4928ZM634.27 91.0846L633.816 91.9757C643.589 96.953 650.935 103.916 655.893 112.864L656.768 112.38L657.643 111.895C652.478 102.573 644.826 95.3389 634.724 90.1935L634.27 91.0846ZM656.768 112.38L655.897 112.871C660.923 121.772 663.453 132.183 663.453 144.136L664.453 144.136L665.453 144.136C665.453 131.894 662.859 121.134 657.639 111.888L656.768 112.38ZM664.453 144.136H663.453C663.453 156.151 660.892 166.527 655.81 175.3L656.675 175.801L657.541 176.303C662.828 167.175 665.453 156.441 665.453 144.136H664.453ZM656.675 175.801L655.809 175.302C650.794 184.003 643.389 190.753 633.554 195.549L633.992 196.448L634.43 197.347C644.593 192.391 652.311 185.376 657.542 176.301L656.675 175.801ZM633.992 196.448L633.558 195.547C632.408 196.101 631.224 196.621 630.009 197.111L630.383 198.039L630.758 198.966C632.01 198.461 633.233 197.923 634.426 197.349L633.992 196.448ZM630.383 198.039L629.506 198.518L670.108 272.836L670.986 272.356L671.864 271.877L631.261 197.559L630.383 198.039ZM670.986 272.356L671.929 272.688L738.419 83.8249L737.476 83.4928L736.533 83.1607L670.043 272.024L670.986 272.356ZM737.476 83.4928V84.4928H779.88V83.4928V82.4928H737.476V83.4928ZM779.88 83.4928L778.937 83.8253L845.785 273.441L846.728 273.109L847.671 272.777L780.824 83.1603L779.88 83.4928ZM846.728 273.109V272.109H810.064V273.109V274.109H846.728V273.109ZM810.064 273.109L811.012 272.791L795.302 226.035L794.354 226.353L793.406 226.672L809.116 273.428L810.064 273.109ZM794.354 226.353V225.353H723.066V226.353V227.353H794.354V226.353ZM723.066 226.353L722.118 226.035L706.437 272.791L707.385 273.109L708.333 273.427L724.014 226.671L723.066 226.353ZM707.385 273.109V272.109H633.066V273.109V274.109H707.385V273.109ZM633.066 273.109L633.947 272.636L596.684 203.197L595.802 203.67L594.921 204.142L632.185 273.582L633.066 273.109ZM595.802 203.67V202.67H560.849V203.67V204.67H595.802V203.67ZM560.849 203.67H559.849V273.109H560.849H561.849V203.67H560.849ZM560.849 273.109V272.109H526.5V273.109V274.109H560.849V273.109ZM526.5 273.109H527.5V83.4928H526.5H525.5V273.109H526.5ZM526.5 83.4928V84.4928H597.606V83.4928V82.4928H526.5V83.4928ZM1173.43 112.287V111.287H1114.82V112.287V113.287H1173.43V112.287ZM1114.82 112.287H1113.82V273.109H1114.82H1115.82V112.287H1114.82ZM1114.82 273.109V272.109H1080.75V273.109V274.109H1114.82V273.109ZM1080.75 273.109H1081.75V112.287H1080.75H1079.75V273.109H1080.75ZM1080.75 112.287V111.287H1022.15V112.287V113.287H1080.75V112.287ZM1022.15 112.287H1023.15V83.4928H1022.15H1021.15V112.287H1022.15ZM1022.15 83.4928V84.4928H1173.43V83.4928V82.4928H1022.15V83.4928ZM1173.43 83.4928H1172.43V112.287H1173.43H1174.43V83.4928H1173.43ZM1247.06 222.836V223.836H1248.82V222.836V221.836H1247.06V222.836ZM1248.82 222.836L1249.78 223.089L1286.26 83.7461L1285.29 83.4928L1284.33 83.2395L1247.85 222.582L1248.82 222.836ZM1285.29 83.4928V84.4928H1318.9V83.4928V82.4928H1285.29V83.4928ZM1318.9 83.4928L1317.94 83.7465L1354.51 223.181L1355.47 222.927L1356.44 222.674L1319.87 83.2391L1318.9 83.4928ZM1355.47 222.927V223.927H1357.14V222.927V221.927H1355.47V222.927ZM1357.14 222.927L1358.11 223.165L1392.28 83.7308L1391.31 83.4928L1390.33 83.2548L1356.17 222.689L1357.14 222.927ZM1391.31 83.4928V84.4928H1428.25V83.4928V82.4928H1391.31V83.4928ZM1428.25 83.4928L1427.29 83.2212L1373.77 272.837L1374.73 273.109L1375.69 273.381L1429.21 83.7644L1428.25 83.4928ZM1374.73 273.109V272.109H1340.85V273.109V274.109H1374.73V273.109ZM1340.85 273.109L1341.81 272.835L1303.85 139.789L1302.89 140.063L1301.92 140.337L1339.88 273.383L1340.85 273.109ZM1302.89 140.063V139.063H1301.4V140.063V141.063H1302.89V140.063ZM1301.4 140.063L1300.44 139.788L1262.39 272.834L1263.35 273.109L1264.31 273.384L1302.37 140.338L1301.4 140.063ZM1263.35 273.109V272.109H1229.46V273.109V274.109H1263.35V273.109ZM1229.46 273.109L1230.43 272.837L1176.91 83.2212L1175.95 83.4928L1174.99 83.7644L1228.5 273.381L1229.46 273.109ZM1175.95 83.4928V84.4928H1212.89V83.4928V82.4928H1175.95V83.4928ZM1212.89 83.4928L1211.92 83.7309L1246.09 223.074L1247.06 222.836L1248.03 222.597L1213.86 83.2547L1212.89 83.4928ZM1562.35 112.287V111.287H1473.38V112.287V113.287H1562.35V112.287ZM1473.38 112.287H1472.38V163.765H1473.38H1474.38V112.287H1473.38ZM1473.38 163.765V164.765H1555.97V163.765V162.765H1473.38V163.765ZM1555.97 163.765H1554.97V192.559H1555.97H1556.97V163.765H1555.97ZM1555.97 192.559V191.559H1473.38V192.559V193.559H1555.97V192.559ZM1473.38 192.559H1472.38V244.315H1473.38H1474.38V192.559H1473.38ZM1473.38 244.315V245.315H1563.09V244.315V243.315H1473.38V244.315ZM1563.09 244.315H1562.09V273.109H1563.09H1564.09V244.315H1563.09ZM1563.09 273.109V272.109H1439.03V273.109V274.109H1563.09V273.109ZM1439.03 273.109H1440.03V83.4928H1439.03H1438.03V273.109H1439.03ZM1439.03 83.4928V84.4928H1562.35V83.4928V82.4928H1439.03V83.4928ZM1562.35 83.4928H1561.35V112.287H1562.35H1563.35V83.4928H1562.35ZM1656.95 83.4928V84.4928C1670.55 84.4928 1681.78 86.6392 1690.68 90.8771L1691.11 89.9742L1691.54 89.0714C1682.3 84.6679 1670.75 82.4928 1656.95 82.4928V83.4928ZM1691.11 89.9742L1690.69 90.8806C1699.68 95.07 1706.33 100.78 1710.72 107.992L1711.58 107.472L1712.43 106.953C1707.81 99.351 1700.82 93.3963 1691.54 89.0679L1691.11 89.9742ZM1711.58 107.472L1710.72 107.997C1715.19 115.234 1717.43 123.444 1717.43 132.656L1718.43 132.656L1719.43 132.656C1719.43 123.104 1717.1 114.524 1712.43 106.947L1711.58 107.472ZM1718.43 132.656H1717.43C1717.43 140.244 1715.97 146.678 1713.1 151.995L1713.98 152.469L1714.86 152.944C1717.92 147.274 1719.43 140.498 1719.43 132.656H1718.43ZM1713.98 152.469L1713.11 151.991C1710.22 157.286 1706.34 161.579 1701.48 164.882L1702.04 165.71L1702.6 166.537C1707.73 163.051 1711.82 158.516 1714.86 152.948L1713.98 152.469ZM1702.04 165.71L1701.48 164.882C1696.58 168.206 1691.11 170.597 1685.05 172.052L1685.28 173.024L1685.51 173.996C1691.8 172.488 1697.5 170.003 1702.6 166.537L1702.04 165.71ZM1685.28 173.024H1684.28V174.876H1685.28H1686.28V173.024H1685.28ZM1685.28 174.876L1685.23 175.874C1691.78 176.235 1698.07 178.247 1704.11 181.932L1704.63 181.079L1705.15 180.225C1698.85 176.38 1692.24 174.257 1685.34 173.877L1685.28 174.876ZM1704.63 181.079L1704.12 181.938C1710.2 185.548 1715.17 190.666 1719.04 197.321L1719.91 196.818L1720.77 196.315C1716.74 189.391 1711.53 184.016 1705.14 180.219L1704.63 181.079ZM1719.91 196.818L1719.04 197.321C1722.89 203.927 1724.83 211.954 1724.83 221.446H1725.83H1726.83C1726.83 211.68 1724.83 203.288 1720.77 196.315L1719.91 196.818ZM1725.83 221.446H1724.83C1724.83 231.091 1722.5 239.736 1717.85 247.408L1718.7 247.926L1719.56 248.445C1724.41 240.438 1726.83 231.429 1726.83 221.446H1725.83ZM1718.7 247.926L1717.85 247.405C1713.22 254.99 1706.22 261.009 1696.8 265.446L1697.22 266.35L1697.65 267.255C1707.37 262.68 1714.69 256.417 1719.56 248.448L1718.7 247.926ZM1697.22 266.35L1696.8 265.446C1687.4 269.87 1675.53 272.109 1661.12 272.109V273.109V274.109C1675.72 274.109 1687.91 271.842 1697.65 267.255L1697.22 266.35ZM1661.12 273.109V272.109H1584.36V273.109V274.109H1661.12V273.109ZM1584.36 273.109H1585.36V83.4928H1584.36H1583.36V273.109H1584.36ZM1584.36 83.4928V84.4928H1656.95V83.4928V82.4928H1584.36V83.4928ZM1618.71 244.408V245.408H1655.65V244.408V243.408H1618.71V244.408ZM1655.65 244.408V245.408C1668.2 245.408 1677.48 243.024 1683.25 238.035L1682.6 237.279L1681.94 236.523C1676.72 241.039 1668.04 243.408 1655.65 243.408V244.408ZM1682.6 237.279L1683.25 238.035C1689.03 233.025 1691.93 226.574 1691.93 218.761H1690.93H1689.93C1689.93 226.01 1687.27 231.904 1681.94 236.523L1682.6 237.279ZM1690.93 218.761H1691.93C1691.93 212.971 1690.49 207.725 1687.61 203.052L1686.76 203.577L1685.91 204.102C1688.59 208.44 1689.93 213.318 1689.93 218.761H1690.93ZM1686.76 203.577L1687.62 203.057C1684.74 198.319 1680.64 194.615 1675.36 191.945L1674.91 192.838L1674.46 193.73C1679.43 196.244 1683.23 199.7 1685.91 204.096L1686.76 203.577ZM1674.91 192.838L1675.37 191.95C1670.08 189.207 1663.8 187.856 1656.58 187.856V188.856V189.856C1663.55 189.856 1669.5 191.16 1674.45 193.725L1674.91 192.838ZM1656.58 188.856V187.856H1618.71V188.856V189.856H1656.58V188.856ZM1618.71 188.856H1617.71V244.408H1618.71H1619.71V188.856H1618.71ZM732.32 198.762V199.762H785.084V198.762V197.762H732.32V198.762ZM785.084 198.762L786.032 198.444L760.367 122.061L759.419 122.38L758.471 122.698L784.136 199.081L785.084 198.762ZM759.419 122.38V121.38H757.937V122.38V123.38H759.419V122.38ZM757.937 122.38L756.989 122.062L731.372 198.444L732.32 198.762L733.268 199.08L758.885 122.697L757.937 122.38ZM119.25 175.153V176.153H150.914V175.153V174.153H119.25V175.153ZM150.914 175.153V176.153C159.513 176.153 166.636 174.971 172.235 172.553L171.839 171.635L171.442 170.717C166.178 172.99 159.351 174.153 150.914 174.153V175.153ZM171.839 171.635L172.244 172.55C177.845 170.067 182.033 166.444 184.744 161.666L183.875 161.172L183.005 160.679C180.532 165.036 176.696 168.389 171.433 170.721L171.839 171.635ZM183.875 161.172L184.742 161.67C187.503 156.855 188.856 150.994 188.856 144.136H187.856H186.856C186.856 150.735 185.555 156.232 183.007 160.675L183.875 161.172ZM187.856 144.136L188.856 144.136C188.856 137.278 187.502 131.361 184.748 126.428L183.875 126.916L183.002 127.403C185.555 131.976 186.856 137.54 186.856 144.136L187.856 144.136ZM183.875 126.916L184.75 126.433C181.983 121.414 177.769 117.63 172.16 115.08L171.746 115.991L171.332 116.901C176.585 119.289 180.458 122.789 182.999 127.398L183.875 126.916ZM171.746 115.991L172.168 115.084C166.56 112.471 159.396 111.195 150.729 111.195V112.195V113.195C159.221 113.195 166.068 114.449 171.323 116.897L171.746 115.991ZM150.729 112.195V111.195H119.25V112.195V113.195H150.729V112.195ZM119.25 112.195H118.25V175.153H119.25H120.25V112.195H119.25ZM560.849 175.153V176.153H592.513V175.153V174.153H560.849V175.153ZM592.513 175.153V176.153C601.112 176.153 608.235 174.971 613.835 172.553L613.438 171.635L613.042 170.717C607.778 172.99 600.95 174.153 592.513 174.153V175.153ZM613.438 171.635L613.843 172.55C619.444 170.067 623.632 166.444 626.344 161.666L625.474 161.172L624.605 160.679C622.132 165.036 618.296 168.389 613.033 170.721L613.438 171.635ZM625.474 161.172L626.342 161.67C629.103 156.855 630.456 150.994 630.456 144.136H629.456H628.456C628.456 150.735 627.154 156.232 624.607 160.675L625.474 161.172ZM629.456 144.136L630.456 144.136C630.456 137.278 629.102 131.361 626.347 126.428L625.474 126.916L624.601 127.403C627.155 131.976 628.456 137.54 628.456 144.136L629.456 144.136ZM625.474 126.916L626.35 126.433C623.583 121.414 619.369 117.63 613.759 115.08L613.345 115.991L612.932 116.901C618.185 119.289 622.057 122.789 624.599 127.398L625.474 126.916ZM613.345 115.991L613.768 115.084C608.159 112.471 600.996 111.195 592.329 111.195V112.195V113.195C600.821 113.195 607.668 114.449 612.923 116.897L613.345 115.991ZM592.329 112.195V111.195H560.849V112.195V113.195H592.329V112.195ZM560.849 112.195H559.849V175.153H560.849H561.849V112.195H560.849ZM1618.71 164.135V165.135H1652.69V164.135V163.135H1618.71V164.135ZM1652.69 164.135V165.135C1658.74 165.135 1664.22 164.032 1669.12 161.806L1668.71 160.895L1668.29 159.985C1663.69 162.078 1658.49 163.135 1652.69 163.135V164.135ZM1668.71 160.895L1669.13 161.801C1674.03 159.509 1677.91 156.278 1680.74 152.104L1679.91 151.544L1679.08 150.983C1676.48 154.833 1672.89 157.837 1668.28 159.989L1668.71 160.895ZM1679.91 151.544L1680.74 152.107C1683.64 147.847 1685.08 142.83 1685.08 137.1H1684.08H1683.08C1683.08 142.481 1681.73 147.093 1679.08 150.98L1679.91 151.544ZM1684.08 137.1H1685.08C1685.08 129.489 1682.38 123.168 1676.98 118.217L1676.3 118.954L1675.62 119.691C1680.59 124.245 1683.08 130.022 1683.08 137.1H1684.08ZM1676.3 118.954L1676.98 118.221C1671.6 113.233 1663.69 110.824 1653.43 110.824V111.824V112.824C1663.41 112.824 1670.75 115.169 1675.62 119.687L1676.3 118.954ZM1653.43 111.824V110.824H1618.71V111.824V112.824H1653.43V111.824ZM1618.71 111.824H1617.71V164.135H1618.71H1619.71V111.824H1618.71Z" fill="white" mask="url(#path-1-outside-1_1_2957)"/>
</g>
<defs>
<filter id="filter0_ddii_1_2957" x="2.28882e-05" y="2.28882e-05" width="1810.73" height="364.602" filterUnits="userSpaceOnUse" color-interpolation-filters="sRGB">
<feFlood flood-opacity="0" result="BackgroundImageFix"/>
<feColorMatrix in="SourceAlpha" type="matrix" values="0 0 0 0 0 0 0 0 0 0 0 0 0 0 0 0 0 0 127 0" result="hardAlpha"/>
<feOffset dy="4"/>
<feGaussianBlur stdDeviation="3"/>
<feComposite in2="hardAlpha" operator="out"/>
<feColorMatrix type="matrix" values="0 0 0 0 0 0 0 0 0 0 0 0 0 0 0 0 0 0 0.4 0"/>
<feBlend mode="normal" in2="BackgroundImageFix" result="effect1_dropShadow_1_2957"/>
<feColorMatrix in="SourceAlpha" type="matrix" values="0 0 0 0 0 0 0 0 0 0 0 0 0 0 0 0 0 0 127 0" result="hardAlpha"/>
<feOffset dy="4"/>
<feGaussianBlur stdDeviation="41.95"/>
<feComposite in2="hardAlpha" operator="out"/>
<feColorMatrix type="matrix" values="0 0 0 0 0.960784 0 0 0 0 0.592157 0 0 0 0 0.407843 0 0 0 0.3 0"/>
<feBlend mode="normal" in2="effect1_dropShadow_1_2957" result="effect2_dropShadow_1_2957"/>
<feBlend mode="normal" in="SourceGraphic" in2="effect2_dropShadow_1_2957" result="shape"/>
<feColorMatrix in="SourceAlpha" type="matrix" values="0 0 0 0 0 0 0 0 0 0 0 0 0 0 0 0 0 0 127 0" result="hardAlpha"/>
<feOffset dy="1"/>
<feComposite in2="hardAlpha" operator="arithmetic" k2="-1" k3="1"/>
<feColorMatrix type="matrix" values="0 0 0 0 1 0 0 0 0 1 0 0 0 0 1 0 0 0 0.4 0"/>
<feBlend mode="normal" in2="shape" result="effect3_innerShadow_1_2957"/>
<feColorMatrix in="SourceAlpha" type="matrix" values="0 0 0 0 0 0 0 0 0 0 0 0 0 0 0 0 0 0 127 0" result="hardAlpha"/>
<feOffset dy="-6"/>
<feGaussianBlur stdDeviation="2"/>
<feComposite in2="hardAlpha" operator="arithmetic" k2="-1" k3="1"/>
<feColorMatrix type="matrix" values="0 0 0 0 0 0 0 0 0 0 0 0 0 0 0 0 0 0 0.2 0"/>
<feBlend mode="normal" in2="effect3_innerShadow_1_2957" result="effect4_innerShadow_1_2957"/>
</filter>
<radialGradient id="paint0_radial_1_2957" cx="0" cy="0" r="1" gradientUnits="userSpaceOnUse" gradientTransform="translate(905.367 285.44) rotate(-90) scale(168.437 936.049)">
<stop stop-color="#F59768"/>
<stop offset="1" stop-color="#B05D41"/>
</radialGradient>
</defs>
</svg>
