<svg width="1703" height="257" viewBox="0 0 1703 257" fill="none" xmlns="http://www.w3.org/2000/svg">
<g filter="url(#filter0_ddii_22_56)">
<mask id="path-1-outside-1_22_56" maskUnits="userSpaceOnUse" x="30" y="26" width="1643" height="197" fill="black">
<rect fill="white" x="30" y="26" width="1643" height="197"/>
<path d="M877.887 27C888.442 27 898.256 28.4816 907.329 31.4443C916.403 34.4071 924.489 38.7587 931.587 44.499C938.685 50.1776 944.518 57.152 949.086 65.4229C953.715 73.6321 956.74 83.0146 958.159 93.5693H923.532C922.545 87.8908 920.723 82.8599 918.069 78.4775C915.415 74.0337 912.113 70.2687 908.163 67.1826C904.213 64.0964 899.706 61.7814 894.645 60.2383C889.645 58.6336 884.244 57.8311 878.442 57.8311C868.135 57.8311 858.999 60.4237 851.037 65.6084C843.075 70.7315 836.84 78.2617 832.334 88.1992C827.828 98.075 825.575 110.142 825.575 124.4C825.575 138.905 827.828 151.127 832.334 161.064C836.902 170.94 843.136 178.409 851.037 183.471C858.999 188.47 868.104 190.971 878.35 190.971C884.028 190.971 889.337 190.229 894.274 188.748C899.274 187.205 903.749 184.952 907.699 181.989C911.711 179.027 915.076 175.385 917.792 171.064C920.57 166.744 922.483 161.805 923.532 156.25L958.159 156.436C956.863 165.447 954.054 173.903 949.733 181.804C945.474 189.704 939.889 196.68 932.976 202.729C926.062 208.716 917.976 213.407 908.718 216.802C899.459 220.135 889.182 221.802 877.887 221.802C861.221 221.802 846.346 217.944 833.261 210.229C820.175 202.513 809.867 191.371 802.337 176.805C794.807 162.238 791.041 144.769 791.041 124.4C791.041 103.97 794.837 86.5021 802.429 71.9971C810.021 57.4302 820.36 46.2888 833.445 38.5732C846.531 30.8578 861.345 27 877.887 27ZM102.106 29.5928C116.673 29.5928 128.895 32.1232 138.771 37.1846C148.708 42.2459 156.207 49.3444 161.269 58.4795C166.392 67.5528 168.953 78.1386 168.953 90.2363C168.953 102.396 166.361 112.951 161.176 121.901C156.053 130.79 148.491 137.672 138.492 142.548C137.321 143.112 136.118 143.641 134.884 144.139L175.897 219.209H137.566L100.303 149.77H65.3496V219.209H31V29.5928H102.106ZM310.86 58.3867H221.885V109.865H304.472V138.659H221.885V190.415H311.601V219.209H187.535V29.5928H310.86V58.3867ZM454.341 58.3867H367.217V109.865H446.008V138.659H367.217V219.209H332.867V29.5928H454.341V58.3867ZM543.706 29.5928C558.273 29.5928 570.494 32.1232 580.37 37.1846C590.308 42.2459 597.807 49.3444 602.868 58.4795C607.991 67.5528 610.553 78.1386 610.553 90.2363C610.553 102.396 607.96 112.951 602.775 121.901C597.652 130.79 590.091 137.672 580.092 142.548C578.921 143.112 577.717 143.641 576.483 144.139L617.086 218.456L683.576 29.5928H725.98L792.828 219.209H756.164L740.454 172.453H669.166L653.485 219.209H579.166L541.902 149.77H506.949V219.209H472.6V29.5928H543.706ZM1119.53 58.3867H1060.92V219.209H1026.85V58.3867H968.246V29.5928H1119.53V58.3867ZM1193.16 168.936H1194.92L1231.39 29.5928H1265L1301.57 169.027H1303.24L1337.41 29.5928H1374.35L1320.83 219.209H1286.95L1248.99 86.1631H1247.5L1209.45 219.209H1175.56L1122.05 29.5928H1158.99L1193.16 168.936ZM1508.45 58.3867H1419.48V109.865H1502.07V138.659H1419.48V190.415H1509.19V219.209H1385.13V29.5928H1508.45V58.3867ZM1603.05 29.5928C1616.75 29.5928 1628.14 31.7536 1637.21 36.0742C1646.35 40.3332 1653.17 46.1655 1657.68 53.5723C1662.24 60.9791 1664.53 69.3739 1664.53 78.7559C1664.53 86.4712 1663.05 93.076 1660.08 98.5693C1657.12 104.001 1653.14 108.415 1648.14 111.81C1643.14 115.204 1637.55 117.643 1631.38 119.124V120.976C1638.11 121.346 1644.56 123.414 1650.73 127.179C1656.97 130.882 1662.06 136.129 1666.01 142.918C1669.96 149.708 1671.93 157.917 1671.93 167.546C1671.93 177.36 1669.56 186.187 1664.8 194.026C1660.05 201.803 1652.89 207.944 1643.32 212.45C1633.76 216.956 1621.72 219.209 1607.22 219.209H1530.46V29.5928H1603.05ZM1564.81 190.508H1601.75C1614.22 190.508 1623.2 188.132 1628.7 183.379C1634.25 178.564 1637.03 172.392 1637.03 164.861C1637.03 159.244 1635.64 154.183 1632.86 149.677C1630.08 145.109 1626.13 141.53 1621.01 138.938C1615.89 136.283 1609.78 134.956 1602.68 134.956H1564.81V190.508ZM678.42 144.862H731.184L705.519 68.4795H704.037L678.42 144.862ZM65.3496 121.253H97.0137C105.532 121.253 112.507 120.081 117.938 117.735C123.37 115.328 127.382 111.84 129.975 107.272C132.629 102.643 133.956 96.9642 133.956 90.2363C133.956 83.5086 132.629 77.7683 129.975 73.0156C127.32 68.2012 123.277 64.5598 117.846 62.0908C112.414 59.5602 105.409 58.295 96.8291 58.2949H65.3496V121.253ZM506.949 121.253H538.613C547.131 121.253 554.106 120.081 559.538 117.735C564.97 115.328 568.982 111.84 571.574 107.272C574.228 102.643 575.556 96.9642 575.556 90.2363C575.556 83.5086 574.228 77.7683 571.574 73.0156C568.92 68.2012 564.877 64.5598 559.445 62.0908C554.014 59.5602 547.008 58.295 538.429 58.2949H506.949V121.253ZM1564.81 110.235H1598.79C1604.72 110.235 1610.06 109.155 1614.81 106.995C1619.56 104.773 1623.29 101.656 1626.01 97.6436C1628.79 93.5698 1630.18 88.7554 1630.18 83.2002C1630.18 75.8552 1627.58 69.8064 1622.4 65.0537C1617.28 60.301 1609.65 57.9238 1599.53 57.9238H1564.81V110.235Z"/>
</mask>
<path d="M877.887 27C888.442 27 898.256 28.4816 907.329 31.4443C916.403 34.4071 924.489 38.7587 931.587 44.499C938.685 50.1776 944.518 57.152 949.086 65.4229C953.715 73.6321 956.74 83.0146 958.159 93.5693H923.532C922.545 87.8908 920.723 82.8599 918.069 78.4775C915.415 74.0337 912.113 70.2687 908.163 67.1826C904.213 64.0964 899.706 61.7814 894.645 60.2383C889.645 58.6336 884.244 57.8311 878.442 57.8311C868.135 57.8311 858.999 60.4237 851.037 65.6084C843.075 70.7315 836.84 78.2617 832.334 88.1992C827.828 98.075 825.575 110.142 825.575 124.4C825.575 138.905 827.828 151.127 832.334 161.064C836.902 170.94 843.136 178.409 851.037 183.471C858.999 188.47 868.104 190.971 878.35 190.971C884.028 190.971 889.337 190.229 894.274 188.748C899.274 187.205 903.749 184.952 907.699 181.989C911.711 179.027 915.076 175.385 917.792 171.064C920.57 166.744 922.483 161.805 923.532 156.25L958.159 156.436C956.863 165.447 954.054 173.903 949.733 181.804C945.474 189.704 939.889 196.68 932.976 202.729C926.062 208.716 917.976 213.407 908.718 216.802C899.459 220.135 889.182 221.802 877.887 221.802C861.221 221.802 846.346 217.944 833.261 210.229C820.175 202.513 809.867 191.371 802.337 176.805C794.807 162.238 791.041 144.769 791.041 124.4C791.041 103.97 794.837 86.5021 802.429 71.9971C810.021 57.4302 820.36 46.2888 833.445 38.5732C846.531 30.8578 861.345 27 877.887 27ZM102.106 29.5928C116.673 29.5928 128.895 32.1232 138.771 37.1846C148.708 42.2459 156.207 49.3444 161.269 58.4795C166.392 67.5528 168.953 78.1386 168.953 90.2363C168.953 102.396 166.361 112.951 161.176 121.901C156.053 130.79 148.491 137.672 138.492 142.548C137.321 143.112 136.118 143.641 134.884 144.139L175.897 219.209H137.566L100.303 149.77H65.3496V219.209H31V29.5928H102.106ZM310.86 58.3867H221.885V109.865H304.472V138.659H221.885V190.415H311.601V219.209H187.535V29.5928H310.86V58.3867ZM454.341 58.3867H367.217V109.865H446.008V138.659H367.217V219.209H332.867V29.5928H454.341V58.3867ZM543.706 29.5928C558.273 29.5928 570.494 32.1232 580.37 37.1846C590.308 42.2459 597.807 49.3444 602.868 58.4795C607.991 67.5528 610.553 78.1386 610.553 90.2363C610.553 102.396 607.96 112.951 602.775 121.901C597.652 130.79 590.091 137.672 580.092 142.548C578.921 143.112 577.717 143.641 576.483 144.139L617.086 218.456L683.576 29.5928H725.98L792.828 219.209H756.164L740.454 172.453H669.166L653.485 219.209H579.166L541.902 149.77H506.949V219.209H472.6V29.5928H543.706ZM1119.53 58.3867H1060.92V219.209H1026.85V58.3867H968.246V29.5928H1119.53V58.3867ZM1193.16 168.936H1194.92L1231.39 29.5928H1265L1301.57 169.027H1303.24L1337.41 29.5928H1374.35L1320.83 219.209H1286.95L1248.99 86.1631H1247.5L1209.45 219.209H1175.56L1122.05 29.5928H1158.99L1193.16 168.936ZM1508.45 58.3867H1419.48V109.865H1502.07V138.659H1419.48V190.415H1509.19V219.209H1385.13V29.5928H1508.45V58.3867ZM1603.05 29.5928C1616.75 29.5928 1628.14 31.7536 1637.21 36.0742C1646.35 40.3332 1653.17 46.1655 1657.68 53.5723C1662.24 60.9791 1664.53 69.3739 1664.53 78.7559C1664.53 86.4712 1663.05 93.076 1660.08 98.5693C1657.12 104.001 1653.14 108.415 1648.14 111.81C1643.14 115.204 1637.55 117.643 1631.38 119.124V120.976C1638.11 121.346 1644.56 123.414 1650.73 127.179C1656.97 130.882 1662.06 136.129 1666.01 142.918C1669.96 149.708 1671.93 157.917 1671.93 167.546C1671.93 177.36 1669.56 186.187 1664.8 194.026C1660.05 201.803 1652.89 207.944 1643.32 212.45C1633.76 216.956 1621.72 219.209 1607.22 219.209H1530.46V29.5928H1603.05ZM1564.81 190.508H1601.75C1614.22 190.508 1623.2 188.132 1628.7 183.379C1634.25 178.564 1637.03 172.392 1637.03 164.861C1637.03 159.244 1635.64 154.183 1632.86 149.677C1630.08 145.109 1626.13 141.53 1621.01 138.938C1615.89 136.283 1609.78 134.956 1602.68 134.956H1564.81V190.508ZM678.42 144.862H731.184L705.519 68.4795H704.037L678.42 144.862ZM65.3496 121.253H97.0137C105.532 121.253 112.507 120.081 117.938 117.735C123.37 115.328 127.382 111.84 129.975 107.272C132.629 102.643 133.956 96.9642 133.956 90.2363C133.956 83.5086 132.629 77.7683 129.975 73.0156C127.32 68.2012 123.277 64.5598 117.846 62.0908C112.414 59.5602 105.409 58.295 96.8291 58.2949H65.3496V121.253ZM506.949 121.253H538.613C547.131 121.253 554.106 120.081 559.538 117.735C564.97 115.328 568.982 111.84 571.574 107.272C574.228 102.643 575.556 96.9642 575.556 90.2363C575.556 83.5086 574.228 77.7683 571.574 73.0156C568.92 68.2012 564.877 64.5598 559.445 62.0908C554.014 59.5602 547.008 58.295 538.429 58.2949H506.949V121.253ZM1564.81 110.235H1598.79C1604.72 110.235 1610.06 109.155 1614.81 106.995C1619.56 104.773 1623.29 101.656 1626.01 97.6436C1628.79 93.5698 1630.18 88.7554 1630.18 83.2002C1630.18 75.8552 1627.58 69.8064 1622.4 65.0537C1617.28 60.301 1609.65 57.9238 1599.53 57.9238H1564.81V110.235Z" fill="url(#paint0_radial_22_56)"/>
<path d="M877.887 27V26V26V27ZM907.329 31.4443L907.64 30.4937V30.4937L907.329 31.4443ZM931.587 44.499L930.958 45.2766L930.962 45.2799L931.587 44.499ZM949.086 65.4229L948.211 65.9063L948.215 65.914L949.086 65.4229ZM958.159 93.5693V94.5693H959.303L959.15 93.436L958.159 93.5693ZM923.532 93.5693L922.547 93.7407L922.691 94.5693H923.532V93.5693ZM918.069 78.4775L917.211 78.9903L917.214 78.9956L918.069 78.4775ZM908.163 67.1826L908.779 66.3946V66.3946L908.163 67.1826ZM894.645 60.2383L894.339 61.1904L894.346 61.1927L894.353 61.1948L894.645 60.2383ZM878.442 57.8311V56.8311V56.8311V57.8311ZM851.037 65.6084L851.578 66.4494L851.583 66.4464L851.037 65.6084ZM832.334 88.1992L833.244 88.6143L833.245 88.6122L832.334 88.1992ZM825.575 124.4H824.575V124.4H825.575ZM832.334 161.064L831.423 161.477L831.426 161.484L832.334 161.064ZM851.037 183.471L850.498 184.313L850.505 184.318L851.037 183.471ZM878.35 190.971V191.971V191.971V190.971ZM894.274 188.748L894.562 189.706L894.569 189.704L894.274 188.748ZM907.699 181.989L907.105 181.185L907.099 181.189L907.699 181.989ZM917.792 171.064L916.951 170.524L916.945 170.532L917.792 171.064ZM923.532 156.25L923.538 155.25L922.704 155.246L922.55 156.064L923.532 156.25ZM958.159 156.436L959.149 156.578L959.312 155.442L958.165 155.436L958.159 156.436ZM949.733 181.804L948.856 181.324L948.853 181.329L949.733 181.804ZM932.976 202.729L933.63 203.484L933.634 203.481L932.976 202.729ZM908.718 216.802L909.057 217.743L909.062 217.741L908.718 216.802ZM877.887 221.802V222.802V222.802V221.802ZM833.261 210.229L832.753 211.09L832.753 211.09L833.261 210.229ZM802.337 176.805L801.449 177.264V177.264L802.337 176.805ZM791.041 124.4H790.041V124.4H791.041ZM802.429 71.9971L803.315 72.4608L803.315 72.4593L802.429 71.9971ZM833.445 38.5732L832.937 37.7118V37.7118L833.445 38.5732ZM102.106 29.5928V28.5928V28.5928V29.5928ZM138.771 37.1846L138.314 38.0745L138.317 38.0757L138.771 37.1846ZM161.269 58.4795L160.394 58.9642L160.398 58.9712L161.269 58.4795ZM168.953 90.2363H169.953V90.2363L168.953 90.2363ZM161.176 121.901L160.31 121.4L160.309 121.402L161.176 121.901ZM138.492 142.548L138.926 143.449L138.931 143.447L138.492 142.548ZM134.884 144.139L134.51 143.211L133.467 143.632L134.006 144.618L134.884 144.139ZM175.897 219.209V220.209H177.583L176.775 218.73L175.897 219.209ZM137.566 219.209L136.685 219.682L136.968 220.209H137.566V219.209ZM100.303 149.77L101.184 149.297L100.901 148.77H100.303V149.77ZM65.3496 149.77V148.77H64.3496V149.77H65.3496ZM65.3496 219.209V220.209H66.3496V219.209H65.3496ZM31 219.209H30V220.209H31V219.209ZM31 29.5928V28.5928H30V29.5928H31ZM310.86 58.3867V59.3867H311.86V58.3867H310.86ZM221.885 58.3867V57.3867H220.885V58.3867H221.885ZM221.885 109.865H220.885V110.865H221.885V109.865ZM304.472 109.865H305.472V108.865H304.472V109.865ZM304.472 138.659V139.659H305.472V138.659H304.472ZM221.885 138.659V137.659H220.885V138.659H221.885ZM221.885 190.415H220.885V191.415H221.885V190.415ZM311.601 190.415H312.601V189.415H311.601V190.415ZM311.601 219.209V220.209H312.601V219.209H311.601ZM187.535 219.209H186.535V220.209H187.535V219.209ZM187.535 29.5928V28.5928H186.535V29.5928H187.535ZM310.86 29.5928H311.86V28.5928H310.86V29.5928ZM454.341 58.3867V59.3867H455.341V58.3867H454.341ZM367.217 58.3867V57.3867H366.217V58.3867H367.217ZM367.217 109.865H366.217V110.865H367.217V109.865ZM446.008 109.865H447.008V108.865H446.008V109.865ZM446.008 138.659V139.659H447.008V138.659H446.008ZM367.217 138.659V137.659H366.217V138.659H367.217ZM367.217 219.209V220.209H368.217V219.209H367.217ZM332.867 219.209H331.867V220.209H332.867V219.209ZM332.867 29.5928V28.5928H331.867V29.5928H332.867ZM454.341 29.5928H455.341V28.5928H454.341V29.5928ZM543.706 29.5928V28.5928V28.5928V29.5928ZM580.37 37.1846L579.914 38.0745L579.916 38.0757L580.37 37.1846ZM602.868 58.4795L601.993 58.9642L601.997 58.9712L602.868 58.4795ZM610.553 90.2363H611.553V90.2363L610.553 90.2363ZM602.775 121.901L601.91 121.4L601.909 121.402L602.775 121.901ZM580.092 142.548L580.526 143.449L580.53 143.447L580.092 142.548ZM576.483 144.139L576.109 143.211L575.067 143.632L575.606 144.618L576.483 144.139ZM617.086 218.456L616.208 218.936L617.284 220.905L618.029 218.788L617.086 218.456ZM683.576 29.5928V28.5928H682.868L682.633 29.2607L683.576 29.5928ZM725.98 29.5928L726.924 29.2603L726.688 28.5928H725.98V29.5928ZM792.828 219.209V220.209H794.241L793.771 218.876L792.828 219.209ZM756.164 219.209L755.216 219.527L755.445 220.209H756.164V219.209ZM740.454 172.453L741.402 172.135L741.173 171.453H740.454V172.453ZM669.166 172.453V171.453H668.447L668.218 172.135L669.166 172.453ZM653.485 219.209V220.209H654.205L654.433 219.527L653.485 219.209ZM579.166 219.209L578.285 219.682L578.568 220.209H579.166V219.209ZM541.902 149.77L542.783 149.297L542.501 148.77H541.902V149.77ZM506.949 149.77V148.77H505.949V149.77H506.949ZM506.949 219.209V220.209H507.949V219.209H506.949ZM472.6 219.209H471.6V220.209H472.6V219.209ZM472.6 29.5928V28.5928H471.6V29.5928H472.6ZM1119.53 58.3867V59.3867H1120.53V58.3867H1119.53ZM1060.92 58.3867V57.3867H1059.92V58.3867H1060.92ZM1060.92 219.209V220.209H1061.92V219.209H1060.92ZM1026.85 219.209H1025.85V220.209H1026.85V219.209ZM1026.85 58.3867H1027.85V57.3867H1026.85V58.3867ZM968.246 58.3867H967.246V59.3867H968.246V58.3867ZM968.246 29.5928V28.5928H967.246V29.5928H968.246ZM1119.53 29.5928H1120.53V28.5928H1119.53V29.5928ZM1193.16 168.936L1192.19 169.174L1192.37 169.936H1193.16V168.936ZM1194.92 168.936V169.936H1195.69L1195.88 169.189L1194.92 168.936ZM1231.39 29.5928V28.5928H1230.62L1230.43 29.3395L1231.39 29.5928ZM1265 29.5928L1265.97 29.3391L1265.77 28.5928H1265V29.5928ZM1301.57 169.027L1300.61 169.281L1300.8 170.027H1301.57V169.027ZM1303.24 169.027V170.027H1304.03L1304.21 169.265L1303.24 169.027ZM1337.41 29.5928V28.5928H1336.62L1336.43 29.3548L1337.41 29.5928ZM1374.35 29.5928L1375.31 29.8644L1375.67 28.5928H1374.35V29.5928ZM1320.83 219.209V220.209H1321.59L1321.79 219.481L1320.83 219.209ZM1286.95 219.209L1285.98 219.483L1286.19 220.209H1286.95V219.209ZM1248.99 86.1631L1249.95 85.8887L1249.74 85.1631H1248.99V86.1631ZM1247.5 86.1631V85.1631H1246.75L1246.54 85.8881L1247.5 86.1631ZM1209.45 219.209V220.209H1210.21L1210.41 219.484L1209.45 219.209ZM1175.56 219.209L1174.6 219.481L1174.81 220.209H1175.56V219.209ZM1122.05 29.5928V28.5928H1120.73L1121.09 29.8644L1122.05 29.5928ZM1158.99 29.5928L1159.96 29.3546L1159.78 28.5928H1158.99V29.5928ZM1508.45 58.3867V59.3867H1509.45V58.3867H1508.45ZM1419.48 58.3867V57.3867H1418.48V58.3867H1419.48ZM1419.48 109.865H1418.48V110.865H1419.48V109.865ZM1502.07 109.865H1503.07V108.865H1502.07V109.865ZM1502.07 138.659V139.659H1503.07V138.659H1502.07ZM1419.48 138.659V137.659H1418.48V138.659H1419.48ZM1419.48 190.415H1418.48V191.415H1419.48V190.415ZM1509.19 190.415H1510.19V189.415H1509.19V190.415ZM1509.19 219.209V220.209H1510.19V219.209H1509.19ZM1385.13 219.209H1384.13V220.209H1385.13V219.209ZM1385.13 29.5928V28.5928H1384.13V29.5928H1385.13ZM1508.45 29.5928H1509.45V28.5928H1508.45V29.5928ZM1603.05 29.5928V28.5928V28.5928V29.5928ZM1637.21 36.0742L1636.78 36.9771L1636.79 36.9806L1637.21 36.0742ZM1657.68 53.5723L1656.82 54.092L1656.82 54.0972L1657.68 53.5723ZM1664.53 78.7559H1665.53V78.7559L1664.53 78.7559ZM1660.08 98.5693L1660.96 99.0482L1660.96 99.044L1660.08 98.5693ZM1648.14 111.81L1648.7 112.637V112.637L1648.14 111.81ZM1631.38 119.124L1631.15 118.152L1630.38 118.336V119.124H1631.38ZM1631.38 120.976H1630.38V121.922L1631.33 121.974L1631.38 120.976ZM1650.73 127.179L1650.21 128.032L1650.22 128.038L1650.73 127.179ZM1666.01 142.918L1666.87 142.415V142.415L1666.01 142.918ZM1671.93 167.546H1672.93V167.546H1671.93ZM1664.8 194.026L1665.66 194.548L1665.66 194.545L1664.8 194.026ZM1643.32 212.45L1643.75 213.355V213.355L1643.32 212.45ZM1530.46 219.209H1529.46V220.209H1530.46V219.209ZM1530.46 29.5928V28.5928H1529.46V29.5928H1530.46ZM1564.81 190.508H1563.81V191.508H1564.81V190.508ZM1628.7 183.379L1629.35 184.135L1629.35 184.135L1628.7 183.379ZM1637.03 164.861H1638.03V164.861H1637.03ZM1632.86 149.677L1632.01 150.196L1632.01 150.202L1632.86 149.677ZM1621.01 138.938L1620.55 139.825L1620.56 139.83L1621.01 138.938ZM1564.81 134.956V133.956H1563.81V134.956H1564.81ZM678.42 144.862L677.472 144.544L677.03 145.862H678.42V144.862ZM731.184 144.862V145.862H732.575L732.132 144.544L731.184 144.862ZM705.519 68.4795L706.466 68.161L706.237 67.4795H705.519V68.4795ZM704.037 68.4795V67.4795H703.318L703.089 68.1615L704.037 68.4795ZM65.3496 121.253H64.3496V122.253H65.3496V121.253ZM117.938 117.735L118.335 118.653L118.344 118.65L117.938 117.735ZM129.975 107.272L129.107 106.775L129.105 106.779L129.975 107.272ZM133.956 90.2363H134.956V90.2363L133.956 90.2363ZM129.975 73.0156L129.099 73.4984L129.102 73.5032L129.975 73.0156ZM117.846 62.0908L117.423 62.9973L117.432 63.0012L117.846 62.0908ZM96.8291 58.2949V57.2949V57.2949V58.2949ZM65.3496 58.2949V57.2949H64.3496V58.2949H65.3496ZM506.949 121.253H505.949V122.253H506.949V121.253ZM559.538 117.735L559.935 118.653L559.943 118.65L559.538 117.735ZM571.574 107.272L570.707 106.775L570.705 106.779L571.574 107.272ZM575.556 90.2363H576.556V90.2363L575.556 90.2363ZM571.574 73.0156L570.698 73.4984L570.701 73.5032L571.574 73.0156ZM559.445 62.0908L559.023 62.9973L559.031 63.0012L559.445 62.0908ZM538.429 58.2949V57.2949V57.2949V58.2949ZM506.949 58.2949V57.2949H505.949V58.2949H506.949ZM1564.81 110.235H1563.81V111.235H1564.81V110.235ZM1598.79 110.235V111.235V111.235V110.235ZM1614.81 106.995L1615.22 107.906L1615.23 107.901L1614.81 106.995ZM1626.01 97.6436L1625.18 97.0802L1625.18 97.083L1626.01 97.6436ZM1630.18 83.2002H1631.18V83.2002H1630.18ZM1622.4 65.0537L1621.72 65.7868L1621.72 65.7909L1622.4 65.0537ZM1599.53 57.9238V56.9238V56.9238V57.9238ZM1564.81 57.9238V56.9238H1563.81V57.9238H1564.81ZM877.887 27V28C888.347 28 898.055 29.4682 907.019 32.3949L907.329 31.4443L907.64 30.4937C898.456 27.495 888.536 26 877.887 26V27ZM907.329 31.4443L907.019 32.3949C915.982 35.3216 923.959 39.6163 930.958 45.2766L931.587 44.499L932.216 43.7215C925.018 37.9011 916.823 33.4926 907.64 30.4937L907.329 31.4443ZM931.587 44.499L930.962 45.2799C937.954 50.8735 943.704 57.7454 948.211 65.9063L949.086 65.4229L949.961 64.9394C945.333 56.5585 939.416 49.4817 932.212 43.7182L931.587 44.499ZM949.086 65.4229L948.215 65.914C952.774 73.9993 955.763 83.2574 957.168 93.7026L958.159 93.5693L959.15 93.436C957.716 82.7717 954.656 73.265 949.957 64.9317L949.086 65.4229ZM958.159 93.5693V92.5693H923.532V93.5693V94.5693H958.159V93.5693ZM923.532 93.5693L924.517 93.398C923.511 87.612 921.651 82.4608 918.925 77.9595L918.069 78.4775L917.214 78.9956C919.796 83.259 921.578 88.1695 922.547 93.7407L923.532 93.5693ZM918.069 78.4775L918.928 77.9648C916.213 73.4185 912.829 69.5591 908.779 66.3946L908.163 67.1826L907.547 67.9706C911.397 70.9783 914.618 74.6489 917.211 78.9903L918.069 78.4775ZM908.163 67.1826L908.779 66.3946C904.726 63.2287 900.108 60.8586 894.936 59.2817L894.645 60.2383L894.353 61.1948C899.303 62.7041 903.699 64.9642 907.547 67.9706L908.163 67.1826ZM894.645 60.2383L894.95 59.2861C889.842 57.6466 884.337 56.8311 878.442 56.8311V57.8311V58.8311C884.151 58.8311 889.448 59.6205 894.339 61.1904L894.645 60.2383ZM878.442 57.8311V56.8311C867.958 56.8311 858.63 59.471 850.491 64.7704L851.037 65.6084L851.583 66.4464C859.369 61.3764 868.311 58.8311 878.442 58.8311V57.8311ZM851.037 65.6084L850.496 64.7674C842.348 70.0098 835.996 77.7007 831.423 87.7863L832.334 88.1992L833.245 88.6122C837.684 78.8226 843.801 71.4532 851.578 66.4494L851.037 65.6084ZM832.334 88.1992L831.424 87.7841C826.843 97.8243 824.575 110.042 824.575 124.4H825.575H826.575C826.575 110.243 828.813 98.3257 833.244 88.6143L832.334 88.1992ZM825.575 124.4H824.575C824.575 139.003 826.843 151.375 831.423 161.477L832.334 161.064L833.245 160.652C828.814 150.879 826.575 138.807 826.575 124.4H825.575ZM832.334 161.064L831.426 161.484C836.061 171.505 842.412 179.133 850.498 184.313L851.037 183.471L851.577 182.629C843.861 177.686 837.742 170.376 833.242 160.645L832.334 161.064ZM851.037 183.471L850.505 184.318C858.641 189.426 867.933 191.971 878.35 191.971V190.971V189.971C868.274 189.971 859.358 187.514 851.569 182.624L851.037 183.471ZM878.35 190.971V191.971C884.116 191.971 889.522 191.218 894.562 189.706L894.274 188.748L893.987 187.79C889.151 189.241 883.941 189.971 878.35 189.971V190.971ZM894.274 188.748L894.569 189.704C899.672 188.129 904.252 185.825 908.299 182.789L907.699 181.989L907.099 181.189C903.246 184.079 898.876 186.281 893.979 187.793L894.274 188.748ZM907.699 181.989L908.293 182.794C912.408 179.755 915.858 176.021 918.639 171.597L917.792 171.064L916.945 170.532C914.294 174.75 911.015 178.298 907.105 181.185L907.699 181.989ZM917.792 171.064L918.633 171.605C921.487 167.166 923.444 162.104 924.515 156.436L923.532 156.25L922.55 156.064C921.522 161.506 919.652 166.322 916.951 170.524L917.792 171.064ZM923.532 156.25L923.527 157.25L958.154 157.436L958.159 156.436L958.165 155.436L923.538 155.25L923.532 156.25ZM958.159 156.436L957.169 156.293C955.89 165.188 953.119 173.529 948.856 181.324L949.733 181.804L950.611 182.284C954.989 174.277 957.836 165.707 959.149 156.578L958.159 156.436ZM949.733 181.804L948.853 181.329C944.652 189.122 939.142 196.004 932.317 201.976L932.976 202.729L933.634 203.481C940.635 197.355 946.297 190.287 950.614 182.278L949.733 181.804ZM932.976 202.729L932.321 201.973C925.506 207.875 917.527 212.506 908.374 215.863L908.718 216.802L909.062 217.741C918.425 214.307 926.619 209.557 933.63 203.484L932.976 202.729ZM908.718 216.802L908.379 215.861C899.244 219.149 889.083 220.802 877.887 220.802V221.802V222.802C889.281 222.802 899.675 221.12 909.057 217.743L908.718 216.802ZM877.887 221.802V220.802C861.382 220.802 846.685 216.983 833.769 209.367L833.261 210.229L832.753 211.09C846.007 218.905 861.061 222.802 877.887 222.802V221.802ZM833.261 210.229L833.769 209.367C820.858 201.755 810.676 190.759 803.225 176.345L802.337 176.805L801.449 177.264C809.058 191.984 819.492 203.271 832.753 211.09L833.261 210.229ZM802.337 176.805L803.225 176.345C795.784 161.951 792.041 144.648 792.041 124.4H791.041H790.041C790.041 144.891 793.829 162.525 801.449 177.264L802.337 176.805ZM791.041 124.4H792.041C792.041 104.092 795.814 86.7916 803.315 72.4608L802.429 71.9971L801.543 71.5333C793.86 86.2127 790.041 103.848 790.041 124.4H791.041ZM802.429 71.9971L803.315 72.4593C810.828 58.0443 821.042 47.0474 833.953 39.4347L833.445 38.5732L832.937 37.7118C819.678 45.5301 809.213 56.8162 801.542 71.5349L802.429 71.9971ZM833.445 38.5732L833.953 39.4347C846.871 31.8179 861.507 28 877.887 28V27V26C861.182 26 846.19 29.8976 832.937 37.7118L833.445 38.5732ZM102.106 29.5928V30.5928C116.562 30.5928 128.617 33.1045 138.314 38.0745L138.771 37.1846L139.227 36.2946C129.173 31.1419 116.784 28.5928 102.106 28.5928V29.5928ZM138.771 37.1846L138.317 38.0757C148.089 43.0529 155.436 50.0155 160.394 58.9641L161.269 58.4795L162.143 57.9948C156.979 48.6734 149.327 41.4389 139.224 36.2935L138.771 37.1846ZM161.269 58.4795L160.398 58.9712C165.423 67.8719 167.953 78.2829 167.953 90.2363L168.953 90.2363L169.953 90.2363C169.953 77.9943 167.36 67.2338 162.139 57.9878L161.269 58.4795ZM168.953 90.2363H167.953C167.953 102.251 165.393 112.627 160.31 121.4L161.176 121.901L162.041 122.403C167.329 113.275 169.953 102.541 169.953 90.2363H168.953ZM161.176 121.901L160.309 121.402C155.294 130.103 147.89 136.853 138.054 141.649L138.492 142.548L138.931 143.447C149.093 138.491 156.811 131.476 162.042 122.401L161.176 121.901ZM138.492 142.548L138.058 141.647C136.908 142.201 135.725 142.721 134.51 143.211L134.884 144.139L135.258 145.066C136.511 144.561 137.734 144.023 138.926 143.449L138.492 142.548ZM134.884 144.139L134.006 144.618L175.02 219.688L175.897 219.209L176.775 218.73L135.761 143.659L134.884 144.139ZM175.897 219.209V218.209H137.566V219.209V220.209H175.897V219.209ZM137.566 219.209L138.448 218.736L101.184 149.297L100.303 149.77L99.4216 150.242L136.685 219.682L137.566 219.209ZM100.303 149.77V148.77H65.3496V149.77V150.77H100.303V149.77ZM65.3496 149.77H64.3496V219.209H65.3496H66.3496V149.77H65.3496ZM65.3496 219.209V218.209H31V219.209V220.209H65.3496V219.209ZM31 219.209H32V29.5928H31H30V219.209H31ZM31 29.5928V30.5928H102.106V29.5928V28.5928H31V29.5928ZM310.86 58.3867V57.3867H221.885V58.3867V59.3867H310.86V58.3867ZM221.885 58.3867H220.885V109.865H221.885H222.885V58.3867H221.885ZM221.885 109.865V110.865H304.472V109.865V108.865H221.885V109.865ZM304.472 109.865H303.472V138.659H304.472H305.472V109.865H304.472ZM304.472 138.659V137.659H221.885V138.659V139.659H304.472V138.659ZM221.885 138.659H220.885V190.415H221.885H222.885V138.659H221.885ZM221.885 190.415V191.415H311.601V190.415V189.415H221.885V190.415ZM311.601 190.415H310.601V219.209H311.601H312.601V190.415H311.601ZM311.601 219.209V218.209H187.535V219.209V220.209H311.601V219.209ZM187.535 219.209H188.535V29.5928H187.535H186.535V219.209H187.535ZM187.535 29.5928V30.5928H310.86V29.5928V28.5928H187.535V29.5928ZM310.86 29.5928H309.86V58.3867H310.86H311.86V29.5928H310.86ZM454.341 58.3867V57.3867H367.217V58.3867V59.3867H454.341V58.3867ZM367.217 58.3867H366.217V109.865H367.217H368.217V58.3867H367.217ZM367.217 109.865V110.865H446.008V109.865V108.865H367.217V109.865ZM446.008 109.865H445.008V138.659H446.008H447.008V109.865H446.008ZM446.008 138.659V137.659H367.217V138.659V139.659H446.008V138.659ZM367.217 138.659H366.217V219.209H367.217H368.217V138.659H367.217ZM367.217 219.209V218.209H332.867V219.209V220.209H367.217V219.209ZM332.867 219.209H333.867V29.5928H332.867H331.867V219.209H332.867ZM332.867 29.5928V30.5928H454.341V29.5928V28.5928H332.867V29.5928ZM454.341 29.5928H453.341V58.3867H454.341H455.341V29.5928H454.341ZM543.706 29.5928V30.5928C558.162 30.5928 570.216 33.1045 579.914 38.0745L580.37 37.1846L580.826 36.2946C570.772 31.1419 558.384 28.5928 543.706 28.5928V29.5928ZM580.37 37.1846L579.916 38.0757C589.689 43.0529 597.035 50.0155 601.993 58.9641L602.868 58.4795L603.743 57.9948C598.578 48.6734 590.926 41.4389 580.824 36.2935L580.37 37.1846ZM602.868 58.4795L601.997 58.9712C607.023 67.8719 609.553 78.2829 609.553 90.2363L610.553 90.2363L611.553 90.2363C611.553 77.9943 608.959 67.2338 603.739 57.9878L602.868 58.4795ZM610.553 90.2363H609.553C609.553 102.251 606.992 112.627 601.91 121.4L602.775 121.901L603.641 122.403C608.928 113.275 611.553 102.541 611.553 90.2363H610.553ZM602.775 121.901L601.909 121.402C596.894 130.103 589.489 136.853 579.654 141.649L580.092 142.548L580.53 143.447C590.693 138.491 598.411 131.476 603.642 122.401L602.775 121.901ZM580.092 142.548L579.658 141.647C578.508 142.201 577.324 142.721 576.109 143.211L576.483 144.139L576.858 145.066C578.11 144.561 579.333 144.023 580.526 143.449L580.092 142.548ZM576.483 144.139L575.606 144.618L616.208 218.936L617.086 218.456L617.964 217.977L577.361 143.659L576.483 144.139ZM617.086 218.456L618.029 218.788L684.519 29.9248L683.576 29.5928L682.633 29.2607L616.143 218.124L617.086 218.456ZM683.576 29.5928V30.5928H725.98V29.5928V28.5928H683.576V29.5928ZM725.98 29.5928L725.037 29.9253L791.885 219.541L792.828 219.209L793.771 218.876L726.924 29.2603L725.98 29.5928ZM792.828 219.209V218.209H756.164V219.209V220.209H792.828V219.209ZM756.164 219.209L757.112 218.89L741.402 172.135L740.454 172.453L739.506 172.772L755.216 219.527L756.164 219.209ZM740.454 172.453V171.453H669.166V172.453V173.453H740.454V172.453ZM669.166 172.453L668.218 172.135L652.537 218.891L653.485 219.209L654.433 219.527L670.114 172.771L669.166 172.453ZM653.485 219.209V218.209H579.166V219.209V220.209H653.485V219.209ZM579.166 219.209L580.047 218.736L542.783 149.297L541.902 149.77L541.021 150.242L578.285 219.682L579.166 219.209ZM541.902 149.77V148.77H506.949V149.77V150.77H541.902V149.77ZM506.949 149.77H505.949V219.209H506.949H507.949V149.77H506.949ZM506.949 219.209V218.209H472.6V219.209V220.209H506.949V219.209ZM472.6 219.209H473.6V29.5928H472.6H471.6V219.209H472.6ZM472.6 29.5928V30.5928H543.706V29.5928V28.5928H472.6V29.5928ZM1119.53 58.3867V57.3867H1060.92V58.3867V59.3867H1119.53V58.3867ZM1060.92 58.3867H1059.92V219.209H1060.92H1061.92V58.3867H1060.92ZM1060.92 219.209V218.209H1026.85V219.209V220.209H1060.92V219.209ZM1026.85 219.209H1027.85V58.3867H1026.85H1025.85V219.209H1026.85ZM1026.85 58.3867V57.3867H968.246V58.3867V59.3867H1026.85V58.3867ZM968.246 58.3867H969.246V29.5928H968.246H967.246V58.3867H968.246ZM968.246 29.5928V30.5928H1119.53V29.5928V28.5928H968.246V29.5928ZM1119.53 29.5928H1118.53V58.3867H1119.53H1120.53V29.5928H1119.53ZM1193.16 168.936V169.936H1194.92V168.936V167.936H1193.16V168.936ZM1194.92 168.936L1195.88 169.189L1232.36 29.846L1231.39 29.5928L1230.43 29.3395L1193.95 168.682L1194.92 168.936ZM1231.39 29.5928V30.5928H1265V29.5928V28.5928H1231.39V29.5928ZM1265 29.5928L1264.04 29.8465L1300.61 169.281L1301.57 169.027L1302.54 168.774L1265.97 29.3391L1265 29.5928ZM1301.57 169.027V170.027H1303.24V169.027V168.027H1301.57V169.027ZM1303.24 169.027L1304.21 169.265L1338.38 29.8308L1337.41 29.5928L1336.43 29.3548L1302.27 168.789L1303.24 169.027ZM1337.41 29.5928V30.5928H1374.35V29.5928V28.5928H1337.41V29.5928ZM1374.35 29.5928L1373.39 29.3212L1319.87 218.937L1320.83 219.209L1321.79 219.481L1375.31 29.8644L1374.35 29.5928ZM1320.83 219.209V218.209H1286.95V219.209V220.209H1320.83V219.209ZM1286.95 219.209L1287.91 218.935L1249.95 85.8887L1248.99 86.1631L1248.02 86.4375L1285.98 219.483L1286.95 219.209ZM1248.99 86.1631V85.1631H1247.5V86.1631V87.1631H1248.99V86.1631ZM1247.5 86.1631L1246.54 85.8881L1208.49 218.934L1209.45 219.209L1210.41 219.484L1248.47 86.4381L1247.5 86.1631ZM1209.45 219.209V218.209H1175.56V219.209V220.209H1209.45V219.209ZM1175.56 219.209L1176.53 218.937L1123.01 29.3212L1122.05 29.5928L1121.09 29.8644L1174.6 219.481L1175.56 219.209ZM1122.05 29.5928V30.5928H1158.99V29.5928V28.5928H1122.05V29.5928ZM1158.99 29.5928L1158.02 29.8309L1192.19 169.174L1193.16 168.936L1194.13 168.697L1159.96 29.3546L1158.99 29.5928ZM1508.45 58.3867V57.3867H1419.48V58.3867V59.3867H1508.45V58.3867ZM1419.48 58.3867H1418.48V109.865H1419.48H1420.48V58.3867H1419.48ZM1419.48 109.865V110.865H1502.07V109.865V108.865H1419.48V109.865ZM1502.07 109.865H1501.07V138.659H1502.07H1503.07V109.865H1502.07ZM1502.07 138.659V137.659H1419.48V138.659V139.659H1502.07V138.659ZM1419.48 138.659H1418.48V190.415H1419.48H1420.48V138.659H1419.48ZM1419.48 190.415V191.415H1509.19V190.415V189.415H1419.48V190.415ZM1509.19 190.415H1508.19V219.209H1509.19H1510.19V190.415H1509.19ZM1509.19 219.209V218.209H1385.13V219.209V220.209H1509.19V219.209ZM1385.13 219.209H1386.13V29.5928H1385.13H1384.13V219.209H1385.13ZM1385.13 29.5928V30.5928H1508.45V29.5928V28.5928H1385.13V29.5928ZM1508.45 29.5928H1507.45V58.3867H1508.45H1509.45V29.5928H1508.45ZM1603.05 29.5928V30.5928C1616.65 30.5928 1627.88 32.7392 1636.78 36.9771L1637.21 36.0742L1637.64 35.1714C1628.4 30.7679 1616.85 28.5928 1603.05 28.5928V29.5928ZM1637.21 36.0742L1636.79 36.9806C1645.78 41.17 1652.43 46.88 1656.82 54.092L1657.68 53.5723L1658.53 53.0525C1653.91 45.451 1646.92 39.4963 1637.64 35.1679L1637.21 36.0742ZM1657.68 53.5723L1656.82 54.0972C1661.29 61.3338 1663.53 69.5441 1663.53 78.7559L1664.53 78.7559L1665.53 78.7559C1665.53 69.2036 1663.2 60.6244 1658.53 53.0474L1657.68 53.5723ZM1664.53 78.7559H1663.53C1663.53 86.3442 1662.07 92.7777 1659.2 98.0947L1660.08 98.5693L1660.96 99.044C1664.02 93.3742 1665.53 86.5983 1665.53 78.7559H1664.53ZM1660.08 98.5693L1659.21 98.0905C1656.32 103.386 1652.44 107.679 1647.58 110.982L1648.14 111.81L1648.7 112.637C1653.83 109.151 1657.92 104.616 1660.96 99.0482L1660.08 98.5693ZM1648.14 111.81L1647.58 110.982C1642.68 114.306 1637.21 116.697 1631.15 118.152L1631.38 119.124L1631.61 120.096C1637.9 118.588 1643.6 116.103 1648.7 112.637L1648.14 111.81ZM1631.38 119.124H1630.38V120.976H1631.38H1632.38V119.124H1631.38ZM1631.38 120.976L1631.33 121.974C1637.88 122.335 1644.17 124.347 1650.21 128.032L1650.73 127.179L1651.25 126.325C1644.95 122.48 1638.34 120.357 1631.44 119.977L1631.38 120.976ZM1650.73 127.179L1650.22 128.038C1656.3 131.648 1661.27 136.766 1665.14 143.421L1666.01 142.918L1666.87 142.415C1662.84 135.491 1657.63 130.116 1651.24 126.319L1650.73 127.179ZM1666.01 142.918L1665.14 143.421C1668.99 150.027 1670.93 158.054 1670.93 167.546H1671.93H1672.93C1672.93 157.78 1670.93 149.388 1666.87 142.415L1666.01 142.918ZM1671.93 167.546H1670.93C1670.93 177.191 1668.6 185.836 1663.95 193.508L1664.8 194.026L1665.66 194.545C1670.51 186.538 1672.93 177.529 1672.93 167.546H1671.93ZM1664.8 194.026L1663.95 193.505C1659.32 201.09 1652.32 207.109 1642.9 211.546L1643.32 212.45L1643.75 213.355C1653.47 208.779 1660.79 202.517 1665.66 194.548L1664.8 194.026ZM1643.32 212.45L1642.9 211.546C1633.5 215.97 1621.63 218.209 1607.22 218.209V219.209V220.209C1621.82 220.209 1634.01 217.942 1643.75 213.355L1643.32 212.45ZM1607.22 219.209V218.209H1530.46V219.209V220.209H1607.22V219.209ZM1530.46 219.209H1531.46V29.5928H1530.46H1529.46V219.209H1530.46ZM1530.46 29.5928V30.5928H1603.05V29.5928V28.5928H1530.46V29.5928ZM1564.81 190.508V191.508H1601.75V190.508V189.508H1564.81V190.508ZM1601.75 190.508V191.508C1614.3 191.508 1623.58 189.124 1629.35 184.135L1628.7 183.379L1628.04 182.623C1622.82 187.139 1614.14 189.508 1601.75 189.508V190.508ZM1628.7 183.379L1629.35 184.135C1635.13 179.125 1638.03 172.673 1638.03 164.861H1637.03H1636.03C1636.03 172.11 1633.37 178.004 1628.04 182.623L1628.7 183.379ZM1637.03 164.861H1638.03C1638.03 159.071 1636.59 153.825 1633.71 149.152L1632.86 149.677L1632.01 150.202C1634.69 154.54 1636.03 159.418 1636.03 164.861H1637.03ZM1632.86 149.677L1633.72 149.157C1630.84 144.419 1626.74 140.715 1621.46 138.045L1621.01 138.938L1620.56 139.83C1625.53 142.344 1629.33 145.8 1632.01 150.196L1632.86 149.677ZM1621.01 138.938L1621.47 138.05C1616.18 135.307 1609.9 133.956 1602.68 133.956V134.956V135.956C1609.65 135.956 1615.6 137.26 1620.55 139.825L1621.01 138.938ZM1602.68 134.956V133.956H1564.81V134.956V135.956H1602.68V134.956ZM1564.81 134.956H1563.81V190.508H1564.81H1565.81V134.956H1564.81ZM678.42 144.862V145.862H731.184V144.862V143.862H678.42V144.862ZM731.184 144.862L732.132 144.544L706.466 68.161L705.519 68.4795L704.571 68.798L730.236 145.181L731.184 144.862ZM705.519 68.4795V67.4795H704.037V68.4795V69.4795H705.519V68.4795ZM704.037 68.4795L703.089 68.1615L677.472 144.544L678.42 144.862L679.368 145.18L704.985 68.7975L704.037 68.4795ZM65.3496 121.253V122.253H97.0137V121.253V120.253H65.3496V121.253ZM97.0137 121.253V122.253C105.613 122.253 112.736 121.071 118.335 118.653L117.938 117.735L117.542 116.817C112.278 119.09 105.45 120.253 97.0137 120.253V121.253ZM117.938 117.735L118.344 118.65C123.944 116.167 128.132 112.544 130.844 107.766L129.975 107.272L129.105 106.779C126.632 111.136 122.796 114.489 117.533 116.821L117.938 117.735ZM129.975 107.272L130.842 107.77C133.603 102.955 134.956 97.0939 134.956 90.2363H133.956H132.956C132.956 96.8345 131.655 102.332 129.107 106.775L129.975 107.272ZM133.956 90.2363L134.956 90.2363C134.956 83.3777 133.602 77.461 130.848 72.5281L129.975 73.0156L129.102 73.5032C131.655 78.0756 132.956 83.6395 132.956 90.2363L133.956 90.2363ZM129.975 73.0156L130.85 72.5328C128.083 67.5135 123.869 63.7304 118.26 61.1805L117.846 62.0908L117.432 63.0012C122.685 65.3891 126.558 68.8889 129.099 73.4984L129.975 73.0156ZM117.846 62.0908L118.268 61.1844C112.66 58.5715 105.496 57.295 96.8291 57.2949V58.2949V59.2949C105.321 59.2949 112.168 60.5489 117.423 62.9973L117.846 62.0908ZM96.8291 58.2949V57.2949H65.3496V58.2949V59.2949H96.8291V58.2949ZM65.3496 58.2949H64.3496V121.253H65.3496H66.3496V58.2949H65.3496ZM506.949 121.253V122.253H538.613V121.253V120.253H506.949V121.253ZM538.613 121.253V122.253C547.212 122.253 554.335 121.071 559.935 118.653L559.538 117.735L559.142 116.817C553.878 119.09 547.05 120.253 538.613 120.253V121.253ZM559.538 117.735L559.943 118.65C565.544 116.167 569.732 112.544 572.444 107.766L571.574 107.272L570.705 106.779C568.232 111.136 564.396 114.489 559.133 116.821L559.538 117.735ZM571.574 107.272L572.442 107.77C575.203 102.955 576.556 97.0939 576.556 90.2363H575.556H574.556C574.556 96.8345 573.254 102.332 570.707 106.775L571.574 107.272ZM575.556 90.2363L576.556 90.2363C576.556 83.3777 575.202 77.461 572.447 72.5281L571.574 73.0156L570.701 73.5032C573.255 78.0756 574.556 83.6395 574.556 90.2363L575.556 90.2363ZM571.574 73.0156L572.45 72.5328C569.683 67.5135 565.469 63.7304 559.859 61.1805L559.445 62.0908L559.031 63.0012C564.285 65.3891 568.157 68.8889 570.698 73.4984L571.574 73.0156ZM559.445 62.0908L559.868 61.1844C554.259 58.5715 547.096 57.295 538.429 57.2949V58.2949V59.2949C546.921 59.2949 553.768 60.5489 559.023 62.9973L559.445 62.0908ZM538.429 58.2949V57.2949H506.949V58.2949V59.2949H538.429V58.2949ZM506.949 58.2949H505.949V121.253H506.949H507.949V58.2949H506.949ZM1564.81 110.235V111.235H1598.79V110.235V109.235H1564.81V110.235ZM1598.79 110.235V111.235C1604.84 111.235 1610.32 110.132 1615.22 107.905L1614.81 106.995L1614.39 106.085C1609.79 108.178 1604.59 109.235 1598.79 109.235V110.235ZM1614.81 106.995L1615.23 107.901C1620.13 105.609 1624.01 102.378 1626.84 98.2041L1626.01 97.6436L1625.18 97.083C1622.58 100.933 1618.99 103.937 1614.38 106.089L1614.81 106.995ZM1626.01 97.6436L1626.84 98.2069C1629.74 93.9466 1631.18 88.93 1631.18 83.2002H1630.18H1629.18C1629.18 88.5807 1627.83 93.193 1625.18 97.0802L1626.01 97.6436ZM1630.18 83.2002H1631.18C1631.18 75.5889 1628.48 69.2679 1623.08 64.3166L1622.4 65.0537L1621.72 65.7909C1626.69 70.3449 1629.18 76.1215 1629.18 83.2002H1630.18ZM1622.4 65.0537L1623.08 64.3206C1617.7 59.3329 1609.79 56.9238 1599.53 56.9238V57.9238V58.9238C1609.51 58.9238 1616.85 61.2691 1621.72 65.7868L1622.4 65.0537ZM1599.53 57.9238V56.9238H1564.81V57.9238V58.9238H1599.53V57.9238ZM1564.81 57.9238H1563.81V110.235H1564.81H1565.81V57.9238H1564.81Z" fill="white" mask="url(#path-1-outside-1_22_56)"/>
</g>
<defs>
<filter id="filter0_ddii_22_56" x="0" y="0" width="1702.93" height="256.802" filterUnits="userSpaceOnUse" color-interpolation-filters="sRGB">
<feFlood flood-opacity="0" result="BackgroundImageFix"/>
<feColorMatrix in="SourceAlpha" type="matrix" values="0 0 0 0 0 0 0 0 0 0 0 0 0 0 0 0 0 0 127 0" result="hardAlpha"/>
<feOffset dy="4"/>
<feGaussianBlur stdDeviation="3"/>
<feComposite in2="hardAlpha" operator="out"/>
<feColorMatrix type="matrix" values="0 0 0 0 0 0 0 0 0 0 0 0 0 0 0 0 0 0 0.4 0"/>
<feBlend mode="normal" in2="BackgroundImageFix" result="effect1_dropShadow_22_56"/>
<feColorMatrix in="SourceAlpha" type="matrix" values="0 0 0 0 0 0 0 0 0 0 0 0 0 0 0 0 0 0 127 0" result="hardAlpha"/>
<feOffset dy="4"/>
<feGaussianBlur stdDeviation="15"/>
<feComposite in2="hardAlpha" operator="out"/>
<feColorMatrix type="matrix" values="0 0 0 0 0.960784 0 0 0 0 0.592157 0 0 0 0 0.407843 0 0 0 0.3 0"/>
<feBlend mode="normal" in2="effect1_dropShadow_22_56" result="effect2_dropShadow_22_56"/>
<feBlend mode="normal" in="SourceGraphic" in2="effect2_dropShadow_22_56" result="shape"/>
<feColorMatrix in="SourceAlpha" type="matrix" values="0 0 0 0 0 0 0 0 0 0 0 0 0 0 0 0 0 0 127 0" result="hardAlpha"/>
<feOffset dy="1"/>
<feComposite in2="hardAlpha" operator="arithmetic" k2="-1" k3="1"/>
<feColorMatrix type="matrix" values="0 0 0 0 1 0 0 0 0 1 0 0 0 0 1 0 0 0 0.4 0"/>
<feBlend mode="normal" in2="shape" result="effect3_innerShadow_22_56"/>
<feColorMatrix in="SourceAlpha" type="matrix" values="0 0 0 0 0 0 0 0 0 0 0 0 0 0 0 0 0 0 127 0" result="hardAlpha"/>
<feOffset dy="-6"/>
<feGaussianBlur stdDeviation="2"/>
<feComposite in2="hardAlpha" operator="arithmetic" k2="-1" k3="1"/>
<feColorMatrix type="matrix" values="0 0 0 0 0 0 0 0 0 0 0 0 0 0 0 0 0 0 0.2 0"/>
<feBlend mode="normal" in2="effect3_innerShadow_22_56" result="effect4_innerShadow_22_56"/>
</filter>
<radialGradient id="paint0_radial_22_56" cx="0" cy="0" r="1" gradientUnits="userSpaceOnUse" gradientTransform="translate(851.467 231.54) rotate(-90) scale(168.437 936.049)">
<stop stop-color="#F59768"/>
<stop offset="1" stop-color="#B05D41"/>
</radialGradient>
</defs>
</svg>
